SeanSans-NormalBold.ufo
<glyph name="exclam" format="1">
  <advance width="261"/>
  <unicode hex="0021"/>
  <outline>
    <contour>
      <point x="183" y="229" type="line"/>
      <point x="195" y="722" type="line"/>
      <point x="65" y="722" type="line"/>
      <point x="78" y="229" type="line"/>
    </contour>
    <contour>
      <point x="199" y="51" type="curve"/>
      <point x="199" y="92"/>
      <point x="170" y="111"/>
      <point x="130" y="111" type="curve"/>
      <point x="89" y="111"/>
      <point x="62" y="90"/>
      <point x="62" y="51" type="curve"/>
      <point x="196" y="51"/>
      <point x="65" y="51"/>
      <point x="199" y="51" type="curve"/>
      <point x="199" y="10"/>
      <point x="170" y="-9"/>
      <point x="129" y="-9" type="curve"/>
      <point x="89" y="-9"/>
      <point x="62" y="12"/>
      <point x="62" y="51" type="curve"/>
      <point x="196" y="51"/>
      <point x="65" y="51"/>
    </contour>
  </outline>
</glyph>
<glyph name="quotedbl" format="1">
  <advance width="435"/>
  <unicode hex="0022"/>
  <outline>
    <contour>
      <point x="170" y="617" type="line"/>
      <point x="178" y="835" type="line"/>
      <point x="48" y="835" type="line"/>
      <point x="56" y="617" type="line"/>
    </contour>
    <contour>
      <point x="379" y="617" type="line"/>
      <point x="387" y="835" type="line"/>
      <point x="257" y="835" type="line"/>
      <point x="265" y="617" type="line"/>
    </contour>
  </outline>
</glyph>
<glyph name="numbersign" format="1">
  <advance width="711"/>
  <unicode hex="0023"/>
  <outline>
    <contour>
      <point x="34" y="223" type="curve"/>
      <point x="576" y="223" type="curve"/>
      <point x="607" y="315" type="curve"/>
      <point x="66" y="315" type="curve"/>
    </contour>
    <contour>
      <point x="104" y="443" type="curve"/>
      <point x="649" y="443" type="curve"/>
      <point x="679" y="534" type="curve"/>
      <point x="134" y="534" type="curve"/>
    </contour>
    <contour>
      <point x="448" y="39" type="curve"/>
      <point x="673" y="722" type="curve"/>
      <point x="552" y="722" type="curve"/>
      <point x="326" y="39" type="curve"/>
    </contour>
    <contour>
      <point x="166" y="46" type="curve"/>
      <point x="389" y="722" type="curve"/>
      <point x="268" y="722" type="curve"/>
      <point x="50" y="46" type="curve"/>
    </contour>
  </outline>
</glyph>
<glyph name="dollar" format="1">
  <advance width="589"/>
  <unicode hex="0024"/>
  <outline>
    <contour>
      <point x="331" y="-41" type="curve"/>
      <point x="331" y="-10"/>
      <point x="331" y="58"/>
      <point x="331" y="89" type="curve"/>
      <point x="210" y="89"/>
      <point x="331" y="89"/>
      <point x="210" y="89" type="curve"/>
      <point x="210" y="58"/>
      <point x="210" y="-10"/>
      <point x="210" y="-41" type="curve"/>
      <point x="331" y="-41"/>
      <point x="210" y="-41"/>
    </contour>
    <contour>
      <point x="344" y="640" type="curve"/>
      <point x="344" y="671"/>
      <point x="344" y="742"/>
      <point x="344" y="773" type="curve"/>
      <point x="223" y="773"/>
      <point x="344" y="773"/>
      <point x="223" y="773" type="curve"/>
      <point x="223" y="742"/>
      <point x="223" y="671"/>
      <point x="223" y="640" type="curve"/>
      <point x="344" y="640"/>
      <point x="223" y="640"/>
    </contour>
    <contour>
      <point x="40" y="93" type="curve"/>
      <point x="104" y="66"/>
      <point x="179" y="43"/>
      <point x="265" y="43" type="curve"/>
      <point x="424" y="43"/>
      <point x="555" y="90"/>
      <point x="555" y="216" type="curve"/>
      <point x="555" y="328"/>
      <point x="442" y="370"/>
      <point x="321" y="415" type="curve"/>
      <point x="241" y="445"/>
      <point x="165" y="463"/>
      <point x="165" y="525" type="curve"/>
      <point x="165" y="576"/>
      <point x="219" y="596"/>
      <point x="286" y="596" type="curve"/>
      <point x="351" y="596"/>
      <point x="396" y="583"/>
      <point x="459" y="557" type="curve"/>
      <point x="514" y="635"/>
      <point x="459" y="557"/>
      <point x="514" y="635" type="curve"/>
      <point x="438" y="669"/>
      <point x="377" y="687"/>
      <point x="291" y="687" type="curve"/>
      <point x="152" y="687"/>
      <point x="44" y="638"/>
      <point x="44" y="525" type="curve"/>
      <point x="44" y="418"/>
      <point x="135" y="375"/>
      <point x="250" y="332" type="curve"/>
      <point x="337" y="301"/>
      <point x="434" y="282"/>
      <point x="434" y="212" type="curve"/>
      <point x="434" y="154"/>
      <point x="360" y="134"/>
      <point x="276" y="134" type="curve"/>
      <point x="211" y="134"/>
      <point x="154" y="155"/>
      <point x="99" y="176" type="curve"/>
      <point x="40" y="93"/>
      <point x="99" y="176"/>
    </contour>
  </outline>
</glyph>
<glyph name="percent" format="1">
  <advance width="1144"/>
  <unicode hex="0025"/>
  <outline>
    <contour>
      <point x="412" y="-48" type="line"/>
      <point x="856" y="718" type="line"/>
      <point x="745" y="718" type="line"/>
      <point x="301" y="-48" type="line"/>
    </contour>
    <contour>
      <point x="139" y="503" type="curve"/>
      <point x="139" y="579"/>
      <point x="172" y="633"/>
      <point x="245" y="633" type="curve"/>
      <point x="319" y="634"/>
      <point x="353" y="580"/>
      <point x="353" y="501" type="curve"/>
      <point x="353" y="424"/>
      <point x="323" y="368"/>
      <point x="252" y="368" type="curve"/>
      <point x="175" y="368"/>
      <point x="139" y="423"/>
      <point x="139" y="503" type="curve"/>
      <point x="98" y="503"/>
      <point x="70" y="503"/>
      <point x="29" y="503" type="curve"/>
      <point x="29" y="366"/>
      <point x="110" y="281"/>
      <point x="246" y="281" type="curve"/>
      <point x="384" y="281"/>
      <point x="468" y="367"/>
      <point x="468" y="506" type="curve"/>
      <point x="468" y="640"/>
      <point x="385" y="721"/>
      <point x="250" y="721" type="curve"/>
      <point x="113" y="721"/>
      <point x="29" y="639"/>
      <point x="29" y="503" type="curve"/>
      <point x="70" y="503"/>
      <point x="98" y="503"/>
    </contour>
    <contour>
      <point x="786" y="170" type="curve"/>
      <point x="786" y="247"/>
      <point x="820" y="300"/>
      <point x="893" y="300" type="curve"/>
      <point x="966" y="301"/>
      <point x="1001" y="247"/>
      <point x="1001" y="169" type="curve"/>
      <point x="1001" y="92"/>
      <point x="971" y="35"/>
      <point x="899" y="35" type="curve"/>
      <point x="823" y="35"/>
      <point x="786" y="90"/>
      <point x="786" y="170" type="curve"/>
      <point x="745" y="170"/>
      <point x="718" y="170"/>
      <point x="677" y="170" type="curve"/>
      <point x="677" y="33"/>
      <point x="758" y="-52"/>
      <point x="894" y="-52" type="curve"/>
      <point x="1032" y="-52"/>
      <point x="1115" y="34"/>
      <point x="1115" y="173" type="curve"/>
      <point x="1115" y="307"/>
      <point x="1033" y="388"/>
      <point x="898" y="388" type="curve"/>
      <point x="761" y="388"/>
      <point x="677" y="306"/>
      <point x="677" y="170" type="curve"/>
      <point x="718" y="170"/>
      <point x="745" y="170"/>
    </contour>
  </outline>
</glyph>
<glyph name="ampersand" format="1">
  <advance width="741"/>
  <unicode hex="0026"/>
  <outline>
    <contour>
      <point x="713" y="53" type="line"/>
      <point x="607" y="150"/>
      <point x="486" y="270"/>
      <point x="376" y="372" type="curve"/>
      <point x="316" y="429"/>
      <point x="237" y="470"/>
      <point x="237" y="555" type="curve"/>
      <point x="237" y="602"/>
      <point x="265" y="636"/>
      <point x="312" y="636" type="curve"/>
      <point x="365" y="636"/>
      <point x="401" y="608"/>
      <point x="401" y="557" type="curve"/>
      <point x="401" y="479"/>
      <point x="336" y="449"/>
      <point x="264" y="413" type="curve"/>
      <point x="154" y="357"/>
      <point x="49" y="315"/>
      <point x="49" y="196" type="curve"/>
      <point x="49" y="61"/>
      <point x="162" y="-5"/>
      <point x="306" y="-5" type="curve"/>
      <point x="505" y="-5"/>
      <point x="625" y="122"/>
      <point x="695" y="313" type="curve"/>
      <point x="590" y="336"/>
      <point x="695" y="313"/>
      <point x="590" y="336" type="curve"/>
      <point x="537" y="192"/>
      <point x="459" y="87"/>
      <point x="312" y="87" type="curve"/>
      <point x="231" y="87"/>
      <point x="170" y="120"/>
      <point x="170" y="196" type="curve"/>
      <point x="170" y="277"/>
      <point x="240" y="302"/>
      <point x="314" y="340" type="curve"/>
      <point x="421" y="395"/>
      <point x="521" y="440"/>
      <point x="522" y="557" type="curve"/>
      <point x="522" y="669"/>
      <point x="434" y="727"/>
      <point x="317" y="727" type="curve"/>
      <point x="203" y="727"/>
      <point x="120" y="665"/>
      <point x="120" y="555" type="curve"/>
      <point x="120" y="446"/>
      <point x="212" y="390"/>
      <point x="292" y="317" type="curve"/>
      <point x="399" y="215"/>
      <point x="537" y="83"/>
      <point x="641" y="-14" type="curve"/>
    </contour>
  </outline>
</glyph>
<glyph name="parenleft" format="1">
  <advance width="390"/>
  <unicode hex="0028"/>
  <outline>
    <contour>
      <point x="388" y="-211" type="curve"/>
      <point x="227" y="-55"/>
      <point x="157" y="100"/>
      <point x="157" y="326" type="curve"/>
      <point x="157" y="553"/>
      <point x="227" y="707"/>
      <point x="387" y="866" type="curve"/>
      <point x="315" y="925"/>
      <point x="387" y="866"/>
      <point x="315" y="925" type="curve"/>
      <point x="132" y="749"/>
      <point x="39" y="583"/>
      <point x="39" y="326" type="curve"/>
      <point x="39" y="69"/>
      <point x="133" y="-97"/>
      <point x="316" y="-275" type="curve"/>
      <point x="388" y="-211"/>
      <point x="316" y="-275"/>
    </contour>
  </outline>
</glyph>
<glyph name="asterisk" format="1">
  <advance width="569"/>
  <unicode hex="002A"/>
  <outline>
    <contour>
      <point x="324" y="584" type="line"/>
      <point x="330" y="802" type="line"/>
      <point x="236" y="802" type="line"/>
      <point x="242" y="584" type="line"/>
    </contour>
    <contour>
      <point x="316" y="534" type="line"/>
      <point x="523" y="601" type="line"/>
      <point x="492" y="689" type="line"/>
      <point x="288" y="611" type="line"/>
    </contour>
    <contour>
      <point x="265" y="525" type="line"/>
      <point x="398" y="352" type="line"/>
      <point x="470" y="412" type="line"/>
      <point x="328" y="577" type="line"/>
    </contour>
    <contour>
      <point x="243" y="576" type="line"/>
      <point x="100" y="410" type="line"/>
      <point x="173" y="351" type="line"/>
      <point x="305" y="524" type="line"/>
    </contour>
    <contour>
      <point x="280" y="608" type="line"/>
      <point x="76" y="687" type="line"/>
      <point x="45" y="599" type="line"/>
      <point x="252" y="532" type="line"/>
    </contour>
  </outline>
</glyph>
<glyph name="plus" format="1">
  <advance width="636"/>
  <unicode hex="002B"/>
  <outline>
    <contour>
      <point x="36" y="263" type="curve"/>
      <point x="600" y="263" type="line"/>
      <point x="600" y="363"/>
      <point x="600" y="263"/>
      <point x="600" y="363" type="curve"/>
      <point x="36" y="363" type="line"/>
      <point x="36" y="263"/>
      <point x="36" y="363"/>
    </contour>
    <contour>
      <point x="376" y="32" type="curve"/>
      <point x="376" y="584" type="line"/>
      <point x="255" y="584"/>
      <point x="383" y="584"/>
      <point x="263" y="584" type="curve"/>
      <point x="263" y="32" type="line"/>
      <point x="383" y="32"/>
      <point x="255" y="32"/>
    </contour>
  </outline>
</glyph>
<glyph name="comma" format="1">
  <advance width="215"/>
  <unicode hex="002C"/>
  <outline>
    <contour>
      <point x="16" y="-119" type="line"/>
      <point x="107" y="-113"/>
      <point x="170" y="-50"/>
      <point x="170" y="44" type="curve"/>
      <point x="170" y="113"/>
      <point x="140" y="160"/>
      <point x="91" y="160" type="curve"/>
      <point x="51" y="160"/>
      <point x="23" y="139"/>
      <point x="23" y="100" type="curve"/>
      <point x="23" y="63"/>
      <point x="48" y="40"/>
      <point x="88" y="39" type="curve"/>
      <point x="87" y="4"/>
      <point x="76" y="-40"/>
      <point x="12" y="-54" type="curve"/>
    </contour>
  </outline>
</glyph>
<glyph name="hyphen" format="1">
  <advance width="423"/>
  <unicode hex="002D"/>
  <outline>
    <contour>
      <point x="60" y="231" type="curve"/>
      <point x="161" y="231"/>
      <point x="262" y="231"/>
      <point x="363" y="231" type="curve"/>
      <point x="363" y="331"/>
      <point x="363" y="231"/>
      <point x="363" y="331" type="curve"/>
      <point x="262" y="331"/>
      <point x="161" y="331"/>
      <point x="60" y="331" type="curve"/>
      <point x="60" y="231"/>
      <point x="60" y="331"/>
    </contour>
  </outline>
</glyph>
<glyph name="period" format="1">
  <advance width="240"/>
  <unicode hex="002E"/>
  <outline>
    <contour>
      <point x="189" y="51" type="curve"/>
      <point x="189" y="92"/>
      <point x="159" y="111"/>
      <point x="119" y="111" type="curve"/>
      <point x="78" y="111"/>
      <point x="51" y="90"/>
      <point x="51" y="51" type="curve"/>
      <point x="185" y="51"/>
      <point x="54" y="51"/>
      <point x="189" y="51" type="curve"/>
      <point x="189" y="10"/>
      <point x="159" y="-9"/>
      <point x="118" y="-9" type="curve"/>
      <point x="78" y="-9"/>
      <point x="51" y="12"/>
      <point x="51" y="51" type="curve"/>
      <point x="185" y="51"/>
      <point x="54" y="51"/>
    </contour>
  </outline>
</glyph>
<glyph name="slash" format="1">
  <advance width="607"/>
  <unicode hex="002F"/>
  <outline>
    <contour>
      <point x="142" y="-25" type="curve"/>
      <point x="290" y="248"/>
      <point x="438" y="522"/>
      <point x="586" y="795" type="curve"/>
      <point x="465" y="795"/>
      <point x="586" y="795"/>
      <point x="465" y="795" type="curve"/>
      <point x="317" y="522"/>
      <point x="169" y="248"/>
      <point x="21" y="-25" type="curve"/>
      <point x="142" y="-25"/>
      <point x="21" y="-25"/>
    </contour>
  </outline>
</glyph>
<glyph name="zero" format="1">
  <advance width="754"/>
  <unicode hex="0030"/>
  <outline>
    <contour>
      <point x="169" y="360" type="curve"/>
      <point x="169" y="521"/>
      <point x="233" y="631"/>
      <point x="374" y="631" type="curve"/>
      <point x="517" y="631"/>
      <point x="586" y="524"/>
      <point x="586" y="363" type="curve"/>
      <point x="586" y="202"/>
      <point x="522" y="91"/>
      <point x="384" y="91" type="curve"/>
      <point x="239" y="91"/>
      <point x="169" y="199"/>
      <point x="169" y="360" type="curve"/>
      <point x="48" y="360"/>
      <point x="169" y="360"/>
      <point x="48" y="360" type="curve"/>
      <point x="48" y="136"/>
      <point x="164" y="-5"/>
      <point x="378" y="-5" type="curve"/>
      <point x="593" y="-5"/>
      <point x="707" y="137"/>
      <point x="707" y="363" type="curve"/>
      <point x="707" y="585"/>
      <point x="596" y="727"/>
      <point x="385" y="727" type="curve"/>
      <point x="167" y="727"/>
      <point x="48" y="586"/>
      <point x="48" y="360" type="curve"/>
      <point x="169" y="360"/>
      <point x="48" y="360"/>
    </contour>
  </outline>
</glyph>
<glyph name="two" format="1">
  <advance width="609"/>
  <unicode hex="0032"/>
  <outline>
    <contour>
      <point x="37" y="0" type="curve"/>
      <point x="244" y="0"/>
      <point x="417" y="0"/>
      <point x="569" y="0" type="curve"/>
      <point x="569" y="91"/>
      <point x="569" y="0"/>
      <point x="569" y="91" type="curve"/>
      <point x="398" y="91"/>
      <point x="208" y="92"/>
      <point x="38" y="92" type="curve"/>
      <point x="37" y="0"/>
      <point x="38" y="91"/>
    </contour>
    <contour>
      <point x="126" y="523" type="curve"/>
      <point x="179" y="590"/>
      <point x="220" y="631"/>
      <point x="297" y="631" type="curve"/>
      <point x="377" y="631"/>
      <point x="427" y="590"/>
      <point x="427" y="507" type="curve"/>
      <point x="427" y="404"/>
      <point x="351" y="340"/>
      <point x="268" y="275" type="curve"/>
      <point x="191" y="213"/>
      <point x="116" y="154"/>
      <point x="38" y="92" type="curve"/>
      <point x="40" y="0"/>
      <point x="38" y="91"/>
      <point x="40" y="0" type="curve"/>
      <point x="181" y="64"/>
      <point x="261" y="137"/>
      <point x="345" y="205" type="curve"/>
      <point x="455" y="289"/>
      <point x="540" y="367"/>
      <point x="540" y="512" type="curve"/>
      <point x="540" y="655"/>
      <point x="449" y="727"/>
      <point x="302" y="727" type="curve"/>
      <point x="185" y="727"/>
      <point x="101" y="674"/>
      <point x="45" y="576" type="curve"/>
      <point x="126" y="523"/>
      <point x="45" y="576"/>
    </contour>
  </outline>
</glyph>
<glyph name="three" format="1">
  <advance width="572"/>
  <unicode hex="0033"/>
  <outline>
    <contour>
      <point x="36" y="56" type="curve"/>
      <point x="93" y="20"/>
      <point x="160" y="-5"/>
      <point x="244" y="-5" type="curve"/>
      <point x="409" y="-5"/>
      <point x="526" y="54"/>
      <point x="526" y="213" type="curve"/>
      <point x="526" y="352"/>
      <point x="373" y="409"/>
      <point x="159" y="409" type="curve"/>
      <point x="159" y="333"/>
      <point x="159" y="407"/>
      <point x="159" y="331" type="curve"/>
      <point x="289" y="331"/>
      <point x="410" y="297"/>
      <point x="410" y="209" type="curve"/>
      <point x="410" y="117"/>
      <point x="333" y="91"/>
      <point x="248" y="91" type="curve"/>
      <point x="199" y="91"/>
      <point x="148" y="105"/>
      <point x="94" y="132" type="curve"/>
      <point x="36" y="56"/>
      <point x="94" y="132"/>
    </contour>
    <contour>
      <point x="105" y="573" type="curve"/>
      <point x="135" y="602"/>
      <point x="187" y="631"/>
      <point x="241" y="631" type="curve"/>
      <point x="321" y="631"/>
      <point x="376" y="606"/>
      <point x="376" y="530" type="curve"/>
      <point x="376" y="452"/>
      <point x="274" y="421"/>
      <point x="159" y="421" type="curve"/>
      <point x="159" y="345"/>
      <point x="159" y="420"/>
      <point x="159" y="344" type="curve"/>
      <point x="344" y="344"/>
      <point x="491" y="398"/>
      <point x="491" y="534" type="curve"/>
      <point x="491" y="669"/>
      <point x="391" y="727"/>
      <point x="251" y="727" type="curve"/>
      <point x="160" y="727"/>
      <point x="79" y="686"/>
      <point x="38" y="639" type="curve"/>
      <point x="105" y="573"/>
      <point x="38" y="639"/>
    </contour>
  </outline>
</glyph>
<glyph name="four" format="1">
  <advance width="628"/>
  <unicode hex="0034"/>
  <outline>
    <contour>
      <point x="60" y="248" type="line"/>
      <point x="426" y="677" type="line"/>
      <point x="330" y="702" type="line"/>
      <point x="13" y="335" type="line"/>
    </contour>
    <contour>
      <point x="595" y="335" type="line"/>
      <point x="13" y="335" type="line"/>
      <point x="13" y="234" type="line"/>
      <point x="595" y="234" type="line"/>
    </contour>
    <contour>
      <point x="451" y="0" type="line"/>
      <point x="451" y="702" type="line"/>
      <point x="331" y="702" type="line"/>
      <point x="331" y="0" type="line"/>
    </contour>
  </outline>
</glyph>
<glyph name="five" format="1">
  <advance width="569"/>
  <unicode hex="0035"/>
  <outline>
    <contour>
      <point x="74" y="722" type="curve"/>
      <point x="74" y="625"/>
      <point x="74" y="515"/>
      <point x="74" y="381" type="curve"/>
      <point x="190" y="350"/>
      <point x="74" y="381"/>
      <point x="189" y="350" type="curve"/>
      <point x="189" y="440"/>
      <point x="189" y="541"/>
      <point x="189" y="631" type="curve"/>
      <point x="74" y="722"/>
      <point x="189" y="631"/>
    </contour>
    <contour>
      <point x="189" y="350" type="curve"/>
      <point x="208" y="364"/>
      <point x="246" y="374"/>
      <point x="274" y="374" type="curve"/>
      <point x="362" y="374"/>
      <point x="410" y="323"/>
      <point x="410" y="237" type="curve"/>
      <point x="410" y="149"/>
      <point x="345" y="91"/>
      <point x="254" y="91" type="curve"/>
      <point x="197" y="91"/>
      <point x="153" y="101"/>
      <point x="98" y="126" type="curve"/>
      <point x="42" y="43"/>
      <point x="98" y="126"/>
      <point x="42" y="43" type="curve"/>
      <point x="107" y="12"/>
      <point x="175" y="-5"/>
      <point x="254" y="-5" type="curve"/>
      <point x="409" y="-5"/>
      <point x="529" y="86"/>
      <point x="529" y="238" type="curve"/>
      <point x="529" y="382"/>
      <point x="432" y="471"/>
      <point x="284" y="471" type="curve"/>
      <point x="218" y="471"/>
      <point x="143" y="448"/>
      <point x="87" y="382" type="curve"/>
      <point x="191" y="353"/>
      <point x="86" y="379"/>
    </contour>
    <contour>
      <point x="497" y="722" type="curve"/>
      <point x="352" y="722"/>
      <point x="208" y="722"/>
      <point x="74" y="722" type="curve"/>
      <point x="189" y="631"/>
      <point x="74" y="722"/>
      <point x="189" y="631" type="curve"/>
      <point x="285" y="631"/>
      <point x="391" y="631"/>
      <point x="497" y="631" type="curve"/>
      <point x="497" y="722"/>
      <point x="497" y="631"/>
    </contour>
  </outline>
</glyph>
<glyph name="six" format="1">
  <advance width="628"/>
  <unicode hex="0036"/>
  <outline>
    <contour>
      <point x="142" y="220" type="curve"/>
      <point x="178" y="301"/>
      <point x="240" y="346"/>
      <point x="330" y="346" type="curve"/>
      <point x="415" y="346"/>
      <point x="467" y="304"/>
      <point x="467" y="221" type="curve"/>
      <point x="467" y="140"/>
      <point x="413" y="98"/>
      <point x="331" y="98" type="curve"/>
      <point x="225" y="98"/>
      <point x="159" y="154"/>
      <point x="159" y="256" type="curve"/>
      <point x="159" y="482"/>
      <point x="333" y="577"/>
      <point x="565" y="640" type="curve"/>
      <point x="536" y="729"/>
      <point x="565" y="640"/>
      <point x="536" y="729" type="curve"/>
      <point x="266" y="662"/>
      <point x="43" y="535"/>
      <point x="43" y="251" type="curve"/>
      <point x="43" y="83"/>
      <point x="155" y="-10"/>
      <point x="327" y="-10" type="curve"/>
      <point x="484" y="-10"/>
      <point x="589" y="70"/>
      <point x="589" y="221" type="curve"/>
      <point x="589" y="368"/>
      <point x="490" y="442"/>
      <point x="344" y="442" type="curve"/>
      <point x="207" y="442"/>
      <point x="115" y="351"/>
      <point x="70" y="256" type="curve"/>
      <point x="142" y="220"/>
      <point x="70" y="256"/>
    </contour>
  </outline>
</glyph>
<glyph name="seven" format="1">
  <advance width="564"/>
  <unicode hex="0037"/>
  <outline>
    <contour>
      <point x="35" y="631" type="curve"/>
      <point x="548" y="631" type="curve"/>
      <point x="548" y="722" type="curve"/>
      <point x="35" y="722" type="curve"/>
    </contour>
    <contour>
      <point x="473" y="722" type="curve"/>
      <point x="52" y="0" type="curve"/>
      <point x="187" y="0" type="curve"/>
      <point x="548" y="631" type="curve"/>
    </contour>
  </outline>
</glyph>
<glyph name="eight" format="1">
  <advance width="617"/>
  <unicode hex="0038"/>
  <outline>
    <contour>
      <point x="68" y="542" type="curve"/>
      <point x="68" y="424"/>
      <point x="161" y="394"/>
      <point x="274" y="346" type="curve"/>
      <point x="368" y="304"/>
      <point x="449" y="282"/>
      <point x="449" y="189" type="curve"/>
      <point x="449" y="117"/>
      <point x="392" y="89"/>
      <point x="309" y="89" type="curve"/>
      <point x="225" y="89"/>
      <point x="168" y="116"/>
      <point x="168" y="189" type="curve"/>
      <point x="168" y="284"/>
      <point x="252" y="304"/>
      <point x="347" y="346" type="curve"/>
      <point x="456" y="396"/>
      <point x="549" y="424"/>
      <point x="549" y="540" type="curve"/>
      <point x="549" y="674"/>
      <point x="454" y="727"/>
      <point x="309" y="727" type="curve"/>
      <point x="167" y="727"/>
      <point x="68" y="673"/>
      <point x="68" y="542" type="curve"/>
      <point x="187" y="542"/>
      <point x="68" y="542"/>
      <point x="187" y="542" type="curve"/>
      <point x="187" y="604"/>
      <point x="234" y="633"/>
      <point x="304" y="633" type="curve"/>
      <point x="380" y="633"/>
      <point x="430" y="607"/>
      <point x="430" y="540" type="curve"/>
      <point x="430" y="459"/>
      <point x="355" y="445"/>
      <point x="272" y="410" type="curve"/>
      <point x="149" y="355"/>
      <point x="48" y="320"/>
      <point x="48" y="189" type="curve"/>
      <point x="48" y="50"/>
      <point x="152" y="-5"/>
      <point x="303" y="-5" type="curve"/>
      <point x="458" y="-5"/>
      <point x="569" y="47"/>
      <point x="569" y="189" type="curve"/>
      <point x="569" y="318"/>
      <point x="469" y="356"/>
      <point x="348" y="410" type="curve"/>
      <point x="264" y="447"/>
      <point x="187" y="461"/>
      <point x="187" y="542" type="curve"/>
      <point x="68" y="542"/>
      <point x="187" y="542"/>
    </contour>
  </outline>
</glyph>
<glyph name="nine" format="1">
  <advance width="627"/>
  <unicode hex="0039"/>
  <outline>
    <contour>
      <point x="488" y="488" type="curve"/>
      <point x="449" y="410"/>
      <point x="394" y="376"/>
      <point x="306" y="376" type="curve"/>
      <point x="216" y="376"/>
      <point x="157" y="419"/>
      <point x="157" y="506" type="curve"/>
      <point x="157" y="585"/>
      <point x="213" y="624"/>
      <point x="294" y="624" type="curve"/>
      <point x="401" y="624"/>
      <point x="467" y="570"/>
      <point x="467" y="466" type="curve"/>
      <point x="467" y="241"/>
      <point x="300" y="144"/>
      <point x="66" y="83" type="curve"/>
      <point x="101" y="-11"/>
      <point x="66" y="83"/>
      <point x="101" y="-11" type="curve"/>
      <point x="373" y="50"/>
      <point x="583" y="187"/>
      <point x="583" y="471" type="curve"/>
      <point x="583" y="639"/>
      <point x="472" y="732"/>
      <point x="299" y="732" type="curve"/>
      <point x="142" y="732"/>
      <point x="38" y="652"/>
      <point x="38" y="501" type="curve"/>
      <point x="38" y="354"/>
      <point x="141" y="280"/>
      <point x="294" y="280" type="curve"/>
      <point x="425" y="280"/>
      <point x="502" y="355"/>
      <point x="547" y="461" type="curve"/>
      <point x="488" y="488"/>
      <point x="547" y="461"/>
    </contour>
  </outline>
</glyph>
<glyph name="colon" format="1">
  <advance width="255"/>
  <unicode hex="003A"/>
  <outline>
    <contour>
      <point x="195" y="383" type="curve"/>
      <point x="195" y="424"/>
      <point x="165" y="444"/>
      <point x="125" y="444" type="curve"/>
      <point x="85" y="444"/>
      <point x="58" y="422"/>
      <point x="58" y="383" type="curve"/>
      <point x="192" y="383"/>
      <point x="61" y="383"/>
      <point x="195" y="383" type="curve"/>
      <point x="195" y="342"/>
      <point x="166" y="324"/>
      <point x="125" y="324" type="curve"/>
      <point x="84" y="324"/>
      <point x="58" y="344"/>
      <point x="58" y="383" type="curve"/>
      <point x="192" y="383"/>
      <point x="61" y="383"/>
    </contour>
    <contour>
      <point x="195" y="53" type="curve"/>
      <point x="195" y="93"/>
      <point x="165" y="113"/>
      <point x="125" y="113" type="curve"/>
      <point x="84" y="113"/>
      <point x="57" y="91"/>
      <point x="57" y="53" type="curve"/>
      <point x="191" y="53"/>
      <point x="60" y="53"/>
      <point x="195" y="53" type="curve"/>
      <point x="195" y="11"/>
      <point x="165" y="-7"/>
      <point x="124" y="-7" type="curve"/>
      <point x="84" y="-7"/>
      <point x="57" y="13"/>
      <point x="57" y="53" type="curve"/>
      <point x="191" y="53"/>
      <point x="60" y="53"/>
    </contour>
  </outline>
</glyph>
<glyph name="semicolon" format="1">
  <advance width="242"/>
  <unicode hex="003B"/>
  <outline>
    <contour>
      <point x="30" y="-167" type="line"/>
      <point x="124" y="-160"/>
      <point x="189" y="-98"/>
      <point x="189" y="-3" type="curve"/>
      <point x="189" y="66"/>
      <point x="158" y="112"/>
      <point x="107" y="112" type="curve"/>
      <point x="66" y="112"/>
      <point x="37" y="92"/>
      <point x="37" y="52" type="curve"/>
      <point x="37" y="15"/>
      <point x="63" y="-7"/>
      <point x="104" y="-8" type="curve"/>
      <point x="103" y="-43"/>
      <point x="92" y="-87"/>
      <point x="26" y="-102" type="curve"/>
    </contour>
    <contour>
      <point x="174" y="388" type="curve"/>
      <point x="174" y="429"/>
      <point x="144" y="449"/>
      <point x="104" y="449" type="curve"/>
      <point x="64" y="449"/>
      <point x="37" y="427"/>
      <point x="37" y="388" type="curve"/>
      <point x="171" y="388"/>
      <point x="40" y="388"/>
      <point x="174" y="388" type="curve"/>
      <point x="174" y="347"/>
      <point x="145" y="329"/>
      <point x="104" y="329" type="curve"/>
      <point x="63" y="329"/>
      <point x="37" y="349"/>
      <point x="37" y="388" type="curve"/>
      <point x="171" y="388"/>
      <point x="40" y="388"/>
    </contour>
  </outline>
</glyph>
<glyph name="less" format="1">
  <advance width="721"/>
  <unicode hex="003C"/>
  <outline>
    <contour>
      <point x="663" y="620" type="curve"/>
      <point x="452" y="530"/>
      <point x="240" y="440"/>
      <point x="29" y="350" type="curve"/>
      <point x="29" y="250"/>
      <point x="29" y="350"/>
      <point x="29" y="250" type="curve"/>
      <point x="240" y="340"/>
      <point x="452" y="430"/>
      <point x="663" y="520" type="curve"/>
      <point x="663" y="620"/>
      <point x="663" y="520"/>
    </contour>
    <contour>
      <point x="674" y="86" type="curve"/>
      <point x="459" y="174"/>
      <point x="244" y="262"/>
      <point x="29" y="350" type="curve"/>
      <point x="29" y="250"/>
      <point x="29" y="350"/>
      <point x="29" y="250" type="curve"/>
      <point x="244" y="162"/>
      <point x="459" y="74"/>
      <point x="674" y="-14" type="curve"/>
      <point x="674" y="86"/>
      <point x="674" y="-14"/>
    </contour>
  </outline>
</glyph>
<glyph name="equal" format="1">
  <advance width="760"/>
  <unicode hex="003D"/>
  <outline>
    <contour>
      <point x="55" y="169" type="curve"/>
      <point x="274" y="169"/>
      <point x="492" y="169"/>
      <point x="711" y="169" type="curve"/>
      <point x="711" y="266"/>
      <point x="711" y="169"/>
      <point x="711" y="266" type="curve"/>
      <point x="492" y="266"/>
      <point x="274" y="266"/>
      <point x="55" y="266" type="curve"/>
      <point x="55" y="169"/>
      <point x="55" y="266"/>
    </contour>
    <contour>
      <point x="55" y="391" type="curve"/>
      <point x="274" y="391"/>
      <point x="492" y="391"/>
      <point x="711" y="391" type="curve"/>
      <point x="711" y="488"/>
      <point x="711" y="391"/>
      <point x="711" y="488" type="curve"/>
      <point x="492" y="488"/>
      <point x="274" y="488"/>
      <point x="55" y="488" type="curve"/>
      <point x="55" y="391"/>
      <point x="55" y="488"/>
    </contour>
  </outline>
</glyph>
<glyph name="greater" format="1">
  <advance width="722"/>
  <unicode hex="003E"/>
  <outline>
    <contour>
      <point x="57" y="-14" type="curve"/>
      <point x="269" y="76"/>
      <point x="481" y="166"/>
      <point x="692" y="256" type="curve"/>
      <point x="692" y="356"/>
      <point x="692" y="256"/>
      <point x="692" y="356" type="curve"/>
      <point x="481" y="266"/>
      <point x="269" y="176"/>
      <point x="57" y="86" type="curve"/>
      <point x="57" y="-14"/>
      <point x="57" y="86"/>
    </contour>
    <contour>
      <point x="47" y="520" type="curve"/>
      <point x="262" y="432"/>
      <point x="477" y="344"/>
      <point x="692" y="256" type="curve"/>
      <point x="692" y="356"/>
      <point x="692" y="256"/>
      <point x="692" y="356" type="curve"/>
      <point x="477" y="444"/>
      <point x="262" y="532"/>
      <point x="47" y="620" type="curve"/>
      <point x="47" y="520"/>
      <point x="47" y="620"/>
    </contour>
  </outline>
</glyph>
<glyph name="question" format="1">
  <advance width="547"/>
  <unicode hex="003F"/>
  <outline>
    <contour>
      <point x="195" y="370" type="curve"/>
      <point x="195" y="333"/>
      <point x="195" y="258"/>
      <point x="195" y="221" type="curve"/>
      <point x="311" y="221"/>
      <point x="195" y="221"/>
      <point x="311" y="221" type="curve"/>
      <point x="311" y="258"/>
      <point x="311" y="333"/>
      <point x="311" y="370" type="curve"/>
      <point x="195" y="370"/>
      <point x="311" y="370"/>
    </contour>
    <contour>
      <point x="105" y="583" type="line"/>
      <point x="140" y="619"/>
      <point x="190" y="648"/>
      <point x="252" y="648" type="curve"/>
      <point x="337" y="648"/>
      <point x="396" y="602"/>
      <point x="396" y="519" type="curve"/>
      <point x="396" y="423"/>
      <point x="318" y="370"/>
      <point x="208" y="370" type="curve"/>
      <point x="208" y="336"/>
      <point x="207" y="315"/>
      <point x="207" y="280" type="curve"/>
      <point x="384" y="280"/>
      <point x="511" y="365"/>
      <point x="511" y="519" type="curve"/>
      <point x="511" y="664"/>
      <point x="405" y="744"/>
      <point x="258" y="744" type="curve"/>
      <point x="167" y="744"/>
      <point x="98" y="713"/>
      <point x="42" y="655" type="curve"/>
    </contour>
    <contour>
      <point x="322" y="32" type="curve"/>
      <point x="322" y="72"/>
      <point x="293" y="92"/>
      <point x="253" y="92" type="curve"/>
      <point x="213" y="92"/>
      <point x="186" y="70"/>
      <point x="186" y="32" type="curve"/>
      <point x="322" y="32"/>
      <point x="186" y="32"/>
      <point x="322" y="32" type="curve"/>
      <point x="322" y="-9"/>
      <point x="294" y="-27"/>
      <point x="253" y="-27" type="curve"/>
      <point x="213" y="-27"/>
      <point x="186" y="-7"/>
      <point x="186" y="32" type="curve"/>
      <point x="322" y="32"/>
      <point x="186" y="32"/>
    </contour>
  </outline>
</glyph>
<glyph name="at" format="1">
  <advance width="889"/>
  <unicode hex="0040"/>
  <outline>
    <contour>
      <point x="607" y="-20" type="curve"/>
      <point x="555" y="-43"/>
      <point x="516" y="-51"/>
      <point x="461" y="-51" type="curve"/>
      <point x="277" y="-51"/>
      <point x="154" y="36"/>
      <point x="154" y="212" type="curve"/>
      <point x="154" y="383"/>
      <point x="275" y="465"/>
      <point x="453" y="465" type="curve"/>
      <point x="622" y="465"/>
      <point x="734" y="379"/>
      <point x="734" y="215" type="curve"/>
      <point x="734" y="159"/>
      <point x="728" y="113"/>
      <point x="690" y="113" type="curve"/>
      <point x="650" y="113"/>
      <point x="639" y="158"/>
      <point x="639" y="217" type="curve"/>
      <point x="639" y="336"/>
      <point x="565" y="406"/>
      <point x="444" y="406" type="curve"/>
      <point x="312" y="406"/>
      <point x="235" y="340"/>
      <point x="235" y="214" type="curve"/>
      <point x="235" y="87"/>
      <point x="305" y="14"/>
      <point x="432" y="14" type="curve"/>
      <point x="544" y="14"/>
      <point x="602" y="84"/>
      <point x="622" y="198" type="curve"/>
      <point x="545" y="217"/>
      <point x="622" y="198"/>
      <point x="545" y="217" type="curve"/>
      <point x="528" y="153"/>
      <point x="509" y="105"/>
      <point x="447" y="105" type="curve"/>
      <point x="382" y="105"/>
      <point x="347" y="148"/>
      <point x="347" y="218" type="curve"/>
      <point x="347" y="279"/>
      <point x="377" y="314"/>
      <point x="436" y="314" type="curve"/>
      <point x="500" y="314"/>
      <point x="529" y="276"/>
      <point x="529" y="212" type="curve"/>
      <point x="529" y="102"/>
      <point x="576" y="26"/>
      <point x="681" y="26" type="curve"/>
      <point x="791" y="26"/>
      <point x="843" y="103"/>
      <point x="843" y="219" type="curve"/>
      <point x="843" y="444"/>
      <point x="690" y="561"/>
      <point x="458" y="561" type="curve"/>
      <point x="208" y="561"/>
      <point x="43" y="446"/>
      <point x="43" y="207" type="curve"/>
      <point x="43" y="-28"/>
      <point x="208" y="-143"/>
      <point x="455" y="-143" type="curve"/>
      <point x="534" y="-143"/>
      <point x="591" y="-129"/>
      <point x="650" y="-98" type="curve"/>
      <point x="607" y="-20"/>
      <point x="650" y="-98"/>
    </contour>
  </outline>
</glyph>
<glyph name="A" format="1">
  <advance width="733"/>
  <unicode hex="0041"/>
  <outline>
    <contour>
      <point x="536" y="299" type="curve"/>
      <point x="426" y="299"/>
      <point x="316" y="299"/>
      <point x="206" y="299" type="curve"/>
      <point x="156" y="203"/>
      <point x="206" y="299"/>
      <point x="156" y="203" type="curve"/>
      <point x="295" y="203"/>
      <point x="435" y="203"/>
      <point x="574" y="203" type="curve"/>
      <point x="536" y="299"/>
      <point x="574" y="203"/>
    </contour>
    <contour>
      <point x="721" y="0" type="curve"/>
      <point x="626" y="241"/>
      <point x="527" y="481"/>
      <point x="432" y="722" type="curve"/>
      <point x="322" y="722"/>
      <point x="432" y="722"/>
      <point x="322" y="722" type="curve"/>
      <point x="415" y="482"/>
      <point x="502" y="240"/>
      <point x="594" y="0" type="curve"/>
      <point x="721" y="0"/>
      <point x="594" y="0"/>
    </contour>
    <contour>
      <point x="129" y="0" type="curve"/>
      <point x="232" y="240"/>
      <point x="327" y="482"/>
      <point x="431" y="722" type="curve"/>
      <point x="321" y="722"/>
      <point x="431" y="722"/>
      <point x="321" y="722" type="curve"/>
      <point x="215" y="480"/>
      <point x="102" y="242"/>
      <point x="-3" y="0" type="curve"/>
      <point x="129" y="0"/>
      <point x="-3" y="0"/>
    </contour>
    <contour>
      <point x="375" y="791" type="move" name="top"/>
    </contour>
    <contour>
      <point x="691" y="4" type="move" name="bottom"/>
    </contour>
  </outline>
</glyph>
<glyph name="B" format="1">
  <advance width="659"/>
  <unicode hex="0042"/>
  <outline>
    <contour>
      <point x="132" y="631" type="curve"/>
      <point x="204" y="631"/>
      <point x="270" y="631"/>
      <point x="343" y="631" type="curve"/>
      <point x="407" y="631"/>
      <point x="449" y="599"/>
      <point x="449" y="537" type="curve"/>
      <point x="449" y="476"/>
      <point x="395" y="451"/>
      <point x="328" y="451" type="curve"/>
      <point x="260" y="451"/>
      <point x="200" y="451"/>
      <point x="132" y="451" type="curve"/>
      <point x="132" y="385"/>
      <point x="132" y="425"/>
      <point x="132" y="359" type="curve"/>
      <point x="182" y="359"/>
      <point x="227" y="359"/>
      <point x="277" y="359" type="curve"/>
      <point x="403" y="359"/>
      <point x="570" y="397"/>
      <point x="570" y="535" type="curve"/>
      <point x="570" y="661"/>
      <point x="479" y="722"/>
      <point x="346" y="722" type="curve"/>
      <point x="272" y="722"/>
      <point x="206" y="722"/>
      <point x="132" y="722" type="curve"/>
      <point x="132" y="656"/>
      <point x="132" y="696"/>
    </contour>
    <contour>
      <point x="206" y="0" type="curve"/>
      <point x="206" y="241"/>
      <point x="206" y="481"/>
      <point x="206" y="722" type="curve"/>
      <point x="80" y="722"/>
      <point x="206" y="722"/>
      <point x="80" y="722" type="curve"/>
      <point x="80" y="481"/>
      <point x="80" y="241"/>
      <point x="80" y="0" type="curve"/>
      <point x="206" y="0"/>
      <point x="80" y="0"/>
    </contour>
    <contour>
      <point x="132" y="359" type="curve"/>
      <point x="200" y="359"/>
      <point x="260" y="359"/>
      <point x="328" y="359" type="curve"/>
      <point x="428" y="359"/>
      <point x="498" y="316"/>
      <point x="498" y="221" type="curve"/>
      <point x="498" y="133"/>
      <point x="437" y="91"/>
      <point x="343" y="91" type="curve"/>
      <point x="270" y="91"/>
      <point x="205" y="91"/>
      <point x="132" y="91" type="curve"/>
      <point x="132" y="26"/>
      <point x="132" y="66"/>
      <point x="132" y="0" type="curve"/>
      <point x="206" y="0"/>
      <point x="272" y="0"/>
      <point x="347" y="0" type="curve"/>
      <point x="509" y="0"/>
      <point x="619" y="69"/>
      <point x="619" y="220" type="curve"/>
      <point x="619" y="394"/>
      <point x="439" y="451"/>
      <point x="277" y="451" type="curve"/>
      <point x="227" y="451"/>
      <point x="182" y="451"/>
      <point x="132" y="451" type="curve"/>
      <point x="132" y="385"/>
      <point x="132" y="425"/>
    </contour>
  </outline>
</glyph>
<glyph name="C" format="1">
  <advance width="712"/>
  <unicode hex="0043"/>
  <outline>
    <contour>
      <point x="690" y="654" type="curve"/>
      <point x="612" y="696"/>
      <point x="525" y="727"/>
      <point x="428" y="727" type="curve"/>
      <point x="188" y="727"/>
      <point x="45" y="587"/>
      <point x="45" y="344" type="curve"/>
      <point x="45" y="121"/>
      <point x="180" y="-5"/>
      <point x="404" y="-5" type="curve"/>
      <point x="531" y="-5"/>
      <point x="611" y="26"/>
      <point x="699" y="93" type="curve"/>
      <point x="642" y="168"/>
      <point x="698" y="93"/>
      <point x="641" y="168" type="curve"/>
      <point x="563" y="115"/>
      <point x="501" y="92"/>
      <point x="409" y="92" type="curve"/>
      <point x="251" y="92"/>
      <point x="166" y="188"/>
      <point x="166" y="349" type="curve"/>
      <point x="166" y="523"/>
      <point x="255" y="632"/>
      <point x="423" y="632" type="curve"/>
      <point x="497" y="632"/>
      <point x="564" y="614"/>
      <point x="634" y="578" type="curve"/>
      <point x="690" y="654"/>
      <point x="634" y="578"/>
    </contour>
    <contour>
      <point x="418" y="791" type="move" name="top"/>
    </contour>
    <contour>
      <point x="434" y="5" type="move" name="bottom"/>
    </contour>
  </outline>
</glyph>
<glyph name="D" format="1">
  <advance width="772"/>
  <unicode hex="0044"/>
  <outline>
    <contour>
      <point x="80" y="722" type="curve"/>
      <point x="80" y="481"/>
      <point x="80" y="241"/>
      <point x="80" y="0" type="curve"/>
      <point x="201" y="0"/>
      <point x="80" y="0"/>
      <point x="201" y="0" type="curve"/>
      <point x="201" y="241"/>
      <point x="201" y="481"/>
      <point x="201" y="722" type="curve"/>
      <point x="80" y="722"/>
      <point x="201" y="722"/>
    </contour>
    <contour>
      <point x="142" y="0" type="curve"/>
      <point x="210" y="0"/>
      <point x="276" y="0"/>
      <point x="344" y="0" type="curve"/>
      <point x="588" y="0"/>
      <point x="727" y="116"/>
      <point x="727" y="354" type="curve"/>
      <point x="727" y="600"/>
      <point x="587" y="722"/>
      <point x="337" y="722" type="curve"/>
      <point x="272" y="722"/>
      <point x="208" y="722"/>
      <point x="142" y="722" type="curve"/>
      <point x="142" y="632"/>
      <point x="142" y="720"/>
      <point x="142" y="631" type="curve"/>
      <point x="206" y="631"/>
      <point x="268" y="631"/>
      <point x="331" y="631" type="curve"/>
      <point x="514" y="631"/>
      <point x="607" y="533"/>
      <point x="607" y="351" type="curve"/>
      <point x="607" y="182"/>
      <point x="522" y="91"/>
      <point x="354" y="91" type="curve"/>
      <point x="283" y="91"/>
      <point x="214" y="91"/>
      <point x="142" y="91" type="curve"/>
      <point x="142" y="2"/>
      <point x="142" y="90"/>
    </contour>
    <contour>
      <point x="321" y="791" type="move" name="top"/>
    </contour>
  </outline>
</glyph>
<glyph name="E" format="1">
  <advance width="611"/>
  <unicode hex="0045"/>
  <outline>
    <contour>
      <point x="145" y="327" type="curve"/>
      <point x="259" y="327"/>
      <point x="373" y="327"/>
      <point x="487" y="327" type="curve"/>
      <point x="487" y="419"/>
      <point x="487" y="327"/>
      <point x="487" y="419" type="curve"/>
      <point x="373" y="419"/>
      <point x="259" y="419"/>
      <point x="145" y="419" type="curve"/>
      <point x="145" y="327"/>
      <point x="145" y="419"/>
    </contour>
    <contour>
      <point x="129" y="631" type="curve"/>
      <point x="270" y="631"/>
      <point x="411" y="631"/>
      <point x="553" y="631" type="curve"/>
      <point x="553" y="722"/>
      <point x="553" y="631"/>
      <point x="553" y="722" type="curve"/>
      <point x="411" y="722"/>
      <point x="270" y="722"/>
      <point x="129" y="722" type="curve"/>
      <point x="129" y="631"/>
      <point x="129" y="722"/>
    </contour>
    <contour>
      <point x="201" y="0" type="curve"/>
      <point x="201" y="722" type="line"/>
      <point x="80" y="722"/>
      <point x="201" y="722"/>
      <point x="80" y="722" type="curve"/>
      <point x="80" y="481"/>
      <point x="80" y="241"/>
      <point x="80" y="0" type="curve"/>
      <point x="201" y="0"/>
      <point x="80" y="0"/>
    </contour>
    <contour>
      <point x="129" y="0" type="curve"/>
      <point x="282" y="0"/>
      <point x="435" y="0"/>
      <point x="588" y="0" type="curve"/>
      <point x="588" y="91"/>
      <point x="588" y="0"/>
      <point x="588" y="91" type="curve"/>
      <point x="435" y="91"/>
      <point x="282" y="91"/>
      <point x="129" y="91" type="curve"/>
      <point x="129" y="0"/>
      <point x="129" y="91"/>
    </contour>
    <contour>
      <point x="292" y="791" type="move" name="top"/>
    </contour>
    <contour>
      <point x="544" y="8" type="move" name="bottom"/>
    </contour>
  </outline>
</glyph>
<glyph name="F" format="1">
  <advance width="578"/>
  <unicode hex="0046"/>
  <outline>
    <contour>
      <point x="145" y="327" type="curve"/>
      <point x="257" y="327"/>
      <point x="368" y="327"/>
      <point x="480" y="327" type="curve"/>
      <point x="480" y="419"/>
      <point x="480" y="327"/>
      <point x="480" y="419" type="curve"/>
      <point x="368" y="419"/>
      <point x="257" y="419"/>
      <point x="145" y="419" type="curve"/>
      <point x="145" y="327"/>
      <point x="145" y="419"/>
    </contour>
    <contour>
      <point x="201" y="0" type="curve"/>
      <point x="201" y="722" type="line"/>
      <point x="80" y="722"/>
      <point x="201" y="722"/>
      <point x="80" y="722" type="curve"/>
      <point x="80" y="481"/>
      <point x="80" y="241"/>
      <point x="80" y="0" type="curve"/>
      <point x="201" y="0"/>
      <point x="80" y="0"/>
    </contour>
    <contour>
      <point x="129" y="631" type="curve"/>
      <point x="271" y="631"/>
      <point x="414" y="631"/>
      <point x="556" y="631" type="curve"/>
      <point x="556" y="722"/>
      <point x="556" y="631"/>
      <point x="556" y="722" type="curve"/>
      <point x="414" y="722"/>
      <point x="271" y="722"/>
      <point x="129" y="722" type="curve"/>
      <point x="129" y="631"/>
      <point x="129" y="722"/>
    </contour>
  </outline>
</glyph>
<glyph name="G" format="1">
  <advance width="815"/>
  <unicode hex="0047"/>
  <outline>
    <contour>
      <point x="732" y="359" type="curve"/>
      <point x="656" y="359"/>
      <point x="579" y="359"/>
      <point x="503" y="359" type="curve"/>
      <point x="503" y="268"/>
      <point x="503" y="359"/>
      <point x="503" y="268" type="curve"/>
      <point x="579" y="268"/>
      <point x="656" y="268"/>
      <point x="732" y="268" type="curve"/>
      <point x="732" y="359"/>
      <point x="732" y="268"/>
    </contour>
    <contour>
      <point x="765" y="79" type="curve"/>
      <point x="765" y="172"/>
      <point x="765" y="265"/>
      <point x="765" y="359" type="curve"/>
      <point x="655" y="359"/>
      <point x="765" y="359"/>
      <point x="655" y="359" type="curve"/>
      <point x="655" y="265"/>
      <point x="655" y="172"/>
      <point x="655" y="79" type="curve"/>
      <point x="765" y="79"/>
      <point x="655" y="79"/>
    </contour>
    <contour>
      <point x="747" y="645" type="curve"/>
      <point x="645" y="702"/>
      <point x="553" y="727"/>
      <point x="435" y="727" type="curve"/>
      <point x="193" y="727"/>
      <point x="44" y="599"/>
      <point x="44" y="361" type="curve"/>
      <point x="44" y="119"/>
      <point x="200" y="-5"/>
      <point x="446" y="-5" type="curve"/>
      <point x="572" y="-5"/>
      <point x="653" y="23"/>
      <point x="765" y="79" type="curve"/>
      <point x="704" y="147"/>
      <point x="765" y="79"/>
      <point x="704" y="147" type="curve"/>
      <point x="617" y="105"/>
      <point x="546" y="91"/>
      <point x="446" y="91" type="curve"/>
      <point x="267" y="91"/>
      <point x="165" y="191"/>
      <point x="165" y="370" type="curve"/>
      <point x="165" y="538"/>
      <point x="265" y="632"/>
      <point x="435" y="632" type="curve"/>
      <point x="529" y="632"/>
      <point x="604" y="613"/>
      <point x="694" y="564" type="curve"/>
      <point x="747" y="645"/>
      <point x="694" y="564"/>
    </contour>
    <contour>
      <point x="434" y="791" type="move" name="top"/>
    </contour>
    <contour>
      <point x="482" y="-2" type="move" name="bottom"/>
    </contour>
  </outline>
</glyph>
<glyph name="H" format="1">
  <advance width="803"/>
  <unicode hex="0048"/>
  <outline>
    <contour>
      <point x="201" y="0" type="curve"/>
      <point x="201" y="722" type="line"/>
      <point x="80" y="722"/>
      <point x="201" y="722"/>
      <point x="80" y="722" type="curve"/>
      <point x="80" y="481"/>
      <point x="80" y="241"/>
      <point x="80" y="0" type="curve"/>
      <point x="201" y="0"/>
      <point x="80" y="0"/>
    </contour>
    <contour>
      <point x="661" y="408" type="curve"/>
      <point x="487" y="408"/>
      <point x="314" y="408"/>
      <point x="140" y="408" type="curve"/>
      <point x="140" y="317"/>
      <point x="140" y="408"/>
      <point x="140" y="317" type="curve"/>
      <point x="314" y="317"/>
      <point x="487" y="317"/>
      <point x="661" y="317" type="curve"/>
      <point x="661" y="408"/>
      <point x="661" y="317"/>
    </contour>
    <contour>
      <point x="723" y="0" type="curve"/>
      <point x="723" y="216"/>
      <point x="723" y="506"/>
      <point x="723" y="722" type="curve"/>
      <point x="603" y="722"/>
      <point x="723" y="722"/>
      <point x="603" y="722" type="curve"/>
      <point x="603" y="0" type="line"/>
      <point x="723" y="0"/>
      <point x="603" y="0"/>
    </contour>
  </outline>
</glyph>
<glyph name="J" format="1">
  <advance width="462"/>
  <unicode hex="004A"/>
  <outline>
    <contour>
      <point x="2" y="44" type="curve"/>
      <point x="37" y="22"/>
      <point x="87" y="-4"/>
      <point x="148" y="-4" type="curve"/>
      <point x="302" y="-4"/>
      <point x="388" y="78"/>
      <point x="388" y="239" type="curve"/>
      <point x="388" y="402"/>
      <point x="388" y="559"/>
      <point x="388" y="722" type="curve"/>
      <point x="269" y="722"/>
      <point x="386" y="722"/>
      <point x="267" y="722" type="curve"/>
      <point x="267" y="559"/>
      <point x="267" y="402"/>
      <point x="267" y="239" type="curve"/>
      <point x="267" y="149"/>
      <point x="232" y="88"/>
      <point x="148" y="88" type="curve"/>
      <point x="111" y="88"/>
      <point x="87" y="101"/>
      <point x="58" y="117" type="curve"/>
      <point x="3" y="45"/>
      <point x="57" y="115"/>
    </contour>
  </outline>
</glyph>
<glyph name="K" format="1">
  <advance width="696"/>
  <unicode hex="004B"/>
  <outline>
    <contour>
      <point x="509" y="722" type="curve"/>
      <point x="169" y="380" type="line"/>
      <point x="314" y="380"/>
      <point x="172" y="380"/>
      <point x="317" y="380" type="curve"/>
      <point x="662" y="722" type="line"/>
      <point x="521" y="722"/>
      <point x="649" y="722"/>
    </contour>
    <contour>
      <point x="201" y="0" type="curve"/>
      <point x="201" y="722" type="line"/>
      <point x="80" y="722"/>
      <point x="201" y="722"/>
      <point x="80" y="722" type="curve"/>
      <point x="80" y="481"/>
      <point x="80" y="241"/>
      <point x="80" y="0" type="curve"/>
      <point x="201" y="0"/>
      <point x="80" y="0"/>
    </contour>
    <contour>
      <point x="688" y="0" type="curve"/>
      <point x="317" y="380" type="line"/>
      <point x="172" y="380"/>
      <point x="314" y="380"/>
      <point x="169" y="380" type="curve"/>
      <point x="532" y="0" type="line"/>
      <point x="681" y="0"/>
      <point x="539" y="0"/>
    </contour>
    <contour>
      <point x="384" y="-7" type="move" name="bottom"/>
    </contour>
  </outline>
</glyph>
<glyph name="L" format="1">
  <advance width="590"/>
  <unicode hex="004C"/>
  <outline>
    <contour>
      <point x="201" y="0" type="curve"/>
      <point x="201" y="241"/>
      <point x="201" y="481"/>
      <point x="201" y="722" type="curve"/>
      <point x="80" y="722"/>
      <point x="201" y="722"/>
      <point x="80" y="722" type="curve"/>
      <point x="80" y="481"/>
      <point x="80" y="241"/>
      <point x="80" y="0" type="curve"/>
      <point x="201" y="0"/>
      <point x="80" y="0"/>
    </contour>
    <contour>
      <point x="139" y="0" type="curve"/>
      <point x="286" y="0"/>
      <point x="432" y="0"/>
      <point x="579" y="0" type="curve"/>
      <point x="579" y="91"/>
      <point x="579" y="0"/>
      <point x="579" y="91" type="curve"/>
      <point x="432" y="91"/>
      <point x="286" y="91"/>
      <point x="139" y="91" type="curve"/>
      <point x="139" y="0"/>
      <point x="139" y="91"/>
    </contour>
    <contour>
      <point x="140" y="791" type="move" name="top"/>
    </contour>
    <contour>
      <point x="330" y="-4" type="move" name="bottom"/>
    </contour>
  </outline>
</glyph>
<glyph name="M" format="1">
  <advance width="947"/>
  <unicode hex="004D"/>
  <outline>
    <contour>
      <point x="894" y="0" type="curve"/>
      <point x="872" y="241"/>
      <point x="847" y="481"/>
      <point x="825" y="722" type="curve"/>
      <point x="715" y="722"/>
      <point x="825" y="722"/>
      <point x="715" y="722" type="curve"/>
      <point x="736" y="481"/>
      <point x="752" y="241"/>
      <point x="773" y="0" type="curve"/>
      <point x="894" y="0"/>
      <point x="773" y="0"/>
    </contour>
    <contour>
      <point x="169" y="0" type="curve"/>
      <point x="189" y="241"/>
      <point x="208" y="481"/>
      <point x="228" y="722" type="curve"/>
      <point x="117" y="722"/>
      <point x="228" y="722"/>
      <point x="117" y="722" type="curve"/>
      <point x="96" y="481"/>
      <point x="76" y="241"/>
      <point x="55" y="0" type="curve"/>
      <point x="169" y="0"/>
      <point x="55" y="0"/>
    </contour>
    <contour>
      <point x="524" y="0" type="curve"/>
      <point x="427" y="241"/>
      <point x="329" y="481"/>
      <point x="231" y="722" type="curve"/>
      <point x="119" y="722"/>
      <point x="231" y="722"/>
      <point x="119" y="722" type="curve"/>
      <point x="217" y="481"/>
      <point x="314" y="241"/>
      <point x="411" y="0" type="curve"/>
      <point x="524" y="0"/>
      <point x="411" y="0"/>
    </contour>
    <contour>
      <point x="534" y="0" type="curve"/>
      <point x="629" y="241"/>
      <point x="725" y="481"/>
      <point x="821" y="722" type="curve"/>
      <point x="709" y="722"/>
      <point x="820" y="722"/>
      <point x="709" y="722" type="curve"/>
      <point x="612" y="481"/>
      <point x="515" y="241"/>
      <point x="419" y="0" type="curve"/>
      <point x="534" y="0"/>
      <point x="419" y="0"/>
    </contour>
  </outline>
</glyph>
<glyph name="P" format="1">
  <advance width="610"/>
  <unicode hex="0050"/>
  <outline>
    <contour>
      <point x="124" y="300" type="curve"/>
      <point x="184" y="273"/>
      <point x="253" y="255"/>
      <point x="322" y="255" type="curve"/>
      <point x="476" y="257"/>
      <point x="579" y="330"/>
      <point x="579" y="482" type="curve"/>
      <point x="579" y="640"/>
      <point x="453" y="722"/>
      <point x="284" y="722" type="curve"/>
      <point x="238" y="722"/>
      <point x="191" y="722"/>
      <point x="144" y="722" type="curve"/>
      <point x="144" y="631"/>
      <point x="144" y="722"/>
      <point x="144" y="631" type="curve"/>
      <point x="185" y="631"/>
      <point x="227" y="631"/>
      <point x="268" y="631" type="curve"/>
      <point x="377" y="631"/>
      <point x="458" y="584"/>
      <point x="458" y="485" type="curve"/>
      <point x="458" y="394"/>
      <point x="397" y="344"/>
      <point x="309" y="344" type="curve"/>
      <point x="253" y="344"/>
      <point x="213" y="357"/>
      <point x="162" y="380" type="curve"/>
      <point x="124" y="301"/>
      <point x="162" y="380"/>
    </contour>
    <contour>
      <point x="201" y="0" type="curve"/>
      <point x="201" y="241"/>
      <point x="201" y="481"/>
      <point x="201" y="722" type="curve"/>
      <point x="80" y="722"/>
      <point x="201" y="722"/>
      <point x="80" y="722" type="curve"/>
      <point x="80" y="481"/>
      <point x="80" y="241"/>
      <point x="80" y="0" type="curve"/>
      <point x="201" y="0"/>
      <point x="80" y="0"/>
    </contour>
  </outline>
</glyph>
<glyph name="Q" format="1">
  <advance width="854"/>
  <unicode hex="0051"/>
  <outline>
    <contour>
      <point x="360" y="22" type="curve"/>
      <point x="480" y="-162"/>
      <point x="614" y="-217"/>
      <point x="822" y="-217" type="curve"/>
      <point x="822" y="-122"/>
      <point x="822" y="-217"/>
      <point x="822" y="-122" type="curve"/>
      <point x="661" y="-122"/>
      <point x="559" y="-76"/>
      <point x="464" y="68" type="curve"/>
      <point x="360" y="22"/>
      <point x="464" y="68"/>
    </contour>
    <contour>
      <point x="166" y="360" type="curve"/>
      <point x="166" y="519"/>
      <point x="249" y="627"/>
      <point x="402" y="627" type="curve"/>
      <point x="557" y="627"/>
      <point x="641" y="522"/>
      <point x="641" y="361" type="curve"/>
      <point x="641" y="200"/>
      <point x="561" y="91"/>
      <point x="408" y="91" type="curve"/>
      <point x="251" y="91"/>
      <point x="166" y="198"/>
      <point x="166" y="360" type="curve"/>
      <point x="45" y="360"/>
      <point x="166" y="360"/>
      <point x="45" y="360" type="curve"/>
      <point x="45" y="136"/>
      <point x="182" y="-5"/>
      <point x="402" y="-5" type="curve"/>
      <point x="626" y="-5"/>
      <point x="762" y="139"/>
      <point x="762" y="366" type="curve"/>
      <point x="762" y="589"/>
      <point x="629" y="731"/>
      <point x="409" y="731" type="curve"/>
      <point x="184" y="731"/>
      <point x="45" y="587"/>
      <point x="45" y="360" type="curve"/>
      <point x="166" y="360"/>
      <point x="45" y="360"/>
    </contour>
  </outline>
</glyph>
<glyph name="R" format="1">
  <advance width="686"/>
  <unicode hex="0052"/>
  <outline>
    <contour>
      <point x="285" y="354" type="curve"/>
      <point x="359" y="251"/>
      <point x="471" y="103"/>
      <point x="545" y="0" type="curve"/>
      <point x="670" y="0"/>
      <point x="559" y="0"/>
      <point x="684" y="0" type="curve"/>
      <point x="614" y="98"/>
      <point x="494" y="256"/>
      <point x="425" y="354" type="curve"/>
      <point x="286" y="354"/>
      <point x="423" y="354"/>
    </contour>
    <contour>
      <point x="201" y="0" type="curve"/>
      <point x="201" y="241"/>
      <point x="201" y="481"/>
      <point x="201" y="722" type="curve"/>
      <point x="80" y="722"/>
      <point x="201" y="722"/>
      <point x="80" y="722" type="curve"/>
      <point x="80" y="481"/>
      <point x="80" y="241"/>
      <point x="80" y="0" type="curve"/>
      <point x="201" y="0"/>
      <point x="80" y="0"/>
    </contour>
    <contour>
      <point x="142" y="306" type="curve"/>
      <point x="202" y="306"/>
      <point x="261" y="306"/>
      <point x="320" y="306" type="curve"/>
      <point x="482" y="306"/>
      <point x="596" y="369"/>
      <point x="596" y="523" type="curve"/>
      <point x="596" y="665"/>
      <point x="488" y="722"/>
      <point x="335" y="722" type="curve"/>
      <point x="271" y="722"/>
      <point x="207" y="722"/>
      <point x="142" y="722" type="curve"/>
      <point x="142" y="631"/>
      <point x="142" y="722"/>
      <point x="142" y="631" type="curve"/>
      <point x="200" y="631"/>
      <point x="256" y="631"/>
      <point x="314" y="631" type="curve"/>
      <point x="408" y="631"/>
      <point x="475" y="600"/>
      <point x="475" y="514" type="curve"/>
      <point x="475" y="431"/>
      <point x="416" y="398"/>
      <point x="328" y="398" type="curve"/>
      <point x="266" y="398"/>
      <point x="204" y="398"/>
      <point x="142" y="398" type="curve"/>
      <point x="142" y="306"/>
      <point x="142" y="398"/>
    </contour>
    <contour>
      <point x="289" y="791" type="move" name="top"/>
    </contour>
    <contour>
      <point x="387" y="-8" type="move" name="bottom"/>
    </contour>
  </outline>
</glyph>
<glyph name="S" format="1">
  <advance width="600"/>
  <unicode hex="0053"/>
  <outline>
    <contour>
      <point x="38" y="54" type="curve"/>
      <point x="110" y="14"/>
      <point x="188" y="-5"/>
      <point x="280" y="-5" type="curve"/>
      <point x="439" y="-5"/>
      <point x="569" y="46"/>
      <point x="569" y="188" type="curve"/>
      <point x="569" y="314"/>
      <point x="464" y="360"/>
      <point x="344" y="411" type="curve"/>
      <point x="255" y="448"/>
      <point x="163" y="482"/>
      <point x="163" y="546" type="curve"/>
      <point x="162" y="608"/>
      <point x="220" y="636"/>
      <point x="292" y="636" type="curve"/>
      <point x="359" y="636"/>
      <point x="421" y="611"/>
      <point x="471" y="588" type="curve"/>
      <point x="522" y="660"/>
      <point x="472" y="590"/>
      <point x="523" y="661" type="curve"/>
      <point x="453" y="698"/>
      <point x="384" y="723"/>
      <point x="296" y="723" type="curve"/>
      <point x="153" y="723"/>
      <point x="42" y="667"/>
      <point x="42" y="540" type="curve"/>
      <point x="42" y="418"/>
      <point x="146" y="375"/>
      <point x="263" y="327" type="curve"/>
      <point x="354" y="289"/>
      <point x="448" y="254"/>
      <point x="448" y="186" type="curve"/>
      <point x="448" y="123"/>
      <point x="373" y="91"/>
      <point x="285" y="91" type="curve"/>
      <point x="216" y="91"/>
      <point x="152" y="112"/>
      <point x="97" y="141" type="curve"/>
      <point x="39" y="55"/>
      <point x="96" y="140"/>
    </contour>
    <contour>
      <point x="296" y="791" type="move" name="top"/>
    </contour>
    <contour>
      <point x="323" y="-2" type="move" name="bottom"/>
    </contour>
  </outline>
</glyph>
<glyph name="T" format="1">
  <advance width="669"/>
  <unicode hex="0054"/>
  <outline>
    <contour>
      <point x="395" y="0" type="curve"/>
      <point x="395" y="237"/>
      <point x="395" y="473"/>
      <point x="395" y="710" type="curve"/>
      <point x="274" y="710"/>
      <point x="395" y="710"/>
      <point x="274" y="710" type="curve"/>
      <point x="274" y="473"/>
      <point x="274" y="237"/>
      <point x="274" y="0" type="curve"/>
      <point x="395" y="0"/>
      <point x="274" y="0"/>
    </contour>
    <contour>
      <point x="12" y="625" type="curve"/>
      <point x="226" y="625"/>
      <point x="442" y="625"/>
      <point x="658" y="625" type="curve"/>
      <point x="658" y="726"/>
      <point x="658" y="621"/>
      <point x="658" y="722" type="curve"/>
      <point x="442" y="722"/>
      <point x="226" y="722"/>
      <point x="12" y="722" type="curve"/>
      <point x="12" y="621"/>
      <point x="12" y="726"/>
    </contour>
    <contour>
      <point x="332" y="791" type="move" name="top"/>
    </contour>
    <contour>
      <point x="375" y="-6" type="move" name="bottom"/>
    </contour>
  </outline>
</glyph>
<glyph name="U" format="1">
  <advance width="779"/>
  <unicode hex="0055"/>
  <outline>
    <contour>
      <point x="73" y="722" type="curve"/>
      <point x="73" y="580"/>
      <point x="72" y="418"/>
      <point x="73" y="277" type="curve"/>
      <point x="73" y="81"/>
      <point x="183" y="-5"/>
      <point x="387" y="-5" type="curve"/>
      <point x="593" y="-5"/>
      <point x="706" y="85"/>
      <point x="706" y="284" type="curve"/>
      <point x="706" y="423"/>
      <point x="706" y="583"/>
      <point x="706" y="722" type="curve"/>
      <point x="598" y="722"/>
      <point x="704" y="722"/>
      <point x="596" y="722" type="curve"/>
      <point x="596" y="577"/>
      <point x="596" y="417"/>
      <point x="596" y="273" type="curve"/>
      <point x="596" y="152"/>
      <point x="523" y="96"/>
      <point x="397" y="96" type="curve"/>
      <point x="256" y="96"/>
      <point x="183" y="157"/>
      <point x="183" y="294" type="curve"/>
      <point x="183" y="429"/>
      <point x="183" y="587"/>
      <point x="183" y="722" type="curve"/>
      <point x="75" y="722"/>
      <point x="181" y="722"/>
    </contour>
    <contour>
      <point x="392" y="791" type="move" name="top"/>
    </contour>
    <contour>
      <point x="434" y="0" type="move" name="bottom"/>
    </contour>
  </outline>
</glyph>
<glyph name="V" format="1">
  <advance width="728"/>
  <unicode hex="0056"/>
  <outline>
    <contour>
      <point x="596" y="722" type="curve"/>
      <point x="501" y="481"/>
      <point x="406" y="241"/>
      <point x="312" y="0" type="curve"/>
      <point x="436" y="0"/>
      <point x="306" y="0"/>
      <point x="430" y="0" type="curve"/>
      <point x="526" y="241"/>
      <point x="622" y="481"/>
      <point x="719" y="722" type="curve"/>
      <point x="596" y="722"/>
      <point x="719" y="722"/>
    </contour>
    <contour>
      <point x="6" y="722" type="curve"/>
      <point x="104" y="481"/>
      <point x="202" y="241"/>
      <point x="300" y="0" type="curve"/>
      <point x="424" y="0"/>
      <point x="295" y="0"/>
      <point x="419" y="0" type="curve"/>
      <point x="323" y="241"/>
      <point x="227" y="481"/>
      <point x="130" y="722" type="curve"/>
      <point x="6" y="722"/>
      <point x="130" y="722"/>
    </contour>
  </outline>
</glyph>
<glyph name="W" format="1">
  <advance width="952"/>
  <unicode hex="0057"/>
  <outline>
    <contour>
      <point x="328" y="0" type="curve"/>
      <point x="397" y="241"/>
      <point x="465" y="481"/>
      <point x="534" y="722" type="curve"/>
      <point x="422" y="722"/>
      <point x="537" y="722"/>
      <point x="424" y="722" type="curve"/>
      <point x="359" y="481"/>
      <point x="294" y="242"/>
      <point x="229" y="0" type="curve"/>
      <point x="336" y="0"/>
      <point x="220" y="0"/>
    </contour>
    <contour>
      <point x="435" y="722" type="curve"/>
      <point x="498" y="481"/>
      <point x="557" y="241"/>
      <point x="620" y="0" type="curve"/>
      <point x="728" y="0"/>
      <point x="610" y="0"/>
      <point x="717" y="0" type="curve"/>
      <point x="660" y="242"/>
      <point x="604" y="481"/>
      <point x="544" y="722" type="curve"/>
      <point x="432" y="722"/>
      <point x="547" y="722"/>
    </contour>
    <contour>
      <point x="24" y="722" type="curve"/>
      <point x="87" y="481"/>
      <point x="150" y="241"/>
      <point x="213" y="0" type="curve"/>
      <point x="321" y="0"/>
      <point x="211" y="0"/>
      <point x="319" y="0" type="curve"/>
      <point x="257" y="241"/>
      <point x="199" y="481"/>
      <point x="138" y="722" type="curve"/>
      <point x="24" y="722"/>
      <point x="138" y="722"/>
    </contour>
    <contour>
      <point x="817" y="722" type="curve"/>
      <point x="754" y="481"/>
      <point x="694" y="241"/>
      <point x="631" y="0" type="curve"/>
      <point x="740" y="0"/>
      <point x="626" y="0"/>
      <point x="734" y="0" type="curve"/>
      <point x="800" y="241"/>
      <point x="866" y="481"/>
      <point x="932" y="722" type="curve"/>
      <point x="817" y="722"/>
      <point x="932" y="722"/>
    </contour>
  </outline>
</glyph>
<glyph name="X" format="1">
  <advance width="687"/>
  <unicode hex="0058"/>
  <outline>
    <contour>
      <point x="530" y="722" type="curve"/>
      <point x="362" y="487"/>
      <point x="172" y="235"/>
      <point x="4" y="0" type="curve"/>
      <point x="125" y="0"/>
      <point x="24" y="0"/>
      <point x="144" y="0" type="curve"/>
      <point x="312" y="235"/>
      <point x="495" y="487"/>
      <point x="662" y="722" type="curve"/>
      <point x="548" y="722"/>
      <point x="644" y="722"/>
    </contour>
    <contour>
      <point x="37" y="722" type="curve"/>
      <point x="202" y="487"/>
      <point x="381" y="235"/>
      <point x="546" y="0" type="curve"/>
      <point x="667" y="0"/>
      <point x="559" y="0"/>
      <point x="680" y="0" type="curve"/>
      <point x="512" y="237"/>
      <point x="332" y="485"/>
      <point x="164" y="722" type="curve"/>
      <point x="52" y="722"/>
      <point x="149" y="722"/>
    </contour>
  </outline>
</glyph>
<glyph name="Y" format="1">
  <advance width="651"/>
  <unicode hex="0059"/>
  <outline>
    <contour>
      <point x="12" y="722" type="curve"/>
      <point x="90" y="600"/>
      <point x="186" y="461"/>
      <point x="263" y="337" type="curve"/>
      <point x="386" y="337"/>
      <point x="255" y="338"/>
      <point x="378" y="338" type="curve"/>
      <point x="300" y="467"/>
      <point x="223" y="593"/>
      <point x="143" y="722" type="curve"/>
      <point x="33" y="722"/>
      <point x="123" y="722"/>
    </contour>
    <contour>
      <point x="523" y="722" type="curve"/>
      <point x="438" y="592"/>
      <point x="356" y="467"/>
      <point x="271" y="338" type="curve"/>
      <point x="394" y="338"/>
      <point x="267" y="337"/>
      <point x="390" y="337" type="curve"/>
      <point x="471" y="461"/>
      <point x="566" y="599"/>
      <point x="648" y="722" type="curve"/>
      <point x="537" y="722"/>
      <point x="633" y="722"/>
    </contour>
    <contour>
      <point x="392" y="0" type="curve"/>
      <point x="392" y="115"/>
      <point x="392" y="228"/>
      <point x="392" y="343" type="curve"/>
      <point x="260" y="343"/>
      <point x="392" y="343"/>
      <point x="260" y="343" type="curve"/>
      <point x="260" y="228"/>
      <point x="260" y="115"/>
      <point x="260" y="0" type="curve"/>
      <point x="392" y="0"/>
      <point x="260" y="0"/>
    </contour>
    <contour>
      <point x="331" y="791" type="move" name="top"/>
    </contour>
  </outline>
</glyph>
<glyph name="bracketleft" format="1">
  <advance width="315"/>
  <unicode hex="005B"/>
  <outline>
    <contour>
      <point x="278" y="769" type="curve"/>
      <point x="224" y="769"/>
      <point x="171" y="769"/>
      <point x="118" y="769" type="curve"/>
      <point x="104" y="769"/>
      <point x="79" y="769"/>
      <point x="65" y="769" type="curve"/>
      <point x="65" y="757"/>
      <point x="65" y="738"/>
      <point x="65" y="725" type="curve"/>
      <point x="65" y="459"/>
      <point x="65" y="194"/>
      <point x="65" y="-72" type="curve"/>
      <point x="65" y="-86"/>
      <point x="65" y="-100"/>
      <point x="65" y="-115" type="curve"/>
      <point x="78" y="-115"/>
      <point x="102" y="-115"/>
      <point x="117" y="-115" type="curve"/>
      <point x="170" y="-115"/>
      <point x="224" y="-115"/>
      <point x="278" y="-115" type="curve"/>
      <point x="278" y="-14"/>
      <point x="278" y="-115"/>
      <point x="278" y="-14" type="curve"/>
      <point x="224" y="-14"/>
      <point x="170" y="-14"/>
      <point x="117" y="-14" type="curve"/>
      <point x="186" y="-14"/>
      <point x="117" y="-14"/>
      <point x="186" y="-14" type="curve"/>
      <point x="186" y="-72"/>
      <point x="186" y="-14"/>
      <point x="186" y="-72" type="curve"/>
      <point x="186" y="194"/>
      <point x="186" y="459"/>
      <point x="186" y="725" type="curve"/>
      <point x="186" y="669"/>
      <point x="186" y="725"/>
      <point x="186" y="669" type="curve"/>
      <point x="118" y="669"/>
      <point x="186" y="669"/>
      <point x="118" y="669" type="curve"/>
      <point x="171" y="669"/>
      <point x="224" y="669"/>
      <point x="278" y="669" type="curve"/>
      <point x="278" y="769"/>
      <point x="278" y="669"/>
    </contour>
  </outline>
</glyph>
<glyph name="bracketright" format="1">
  <advance width="314"/>
  <unicode hex="005D"/>
  <outline>
    <contour>
      <point x="37" y="669" type="curve"/>
      <point x="90" y="669"/>
      <point x="143" y="669"/>
      <point x="196" y="669" type="curve"/>
      <point x="185" y="678"/>
      <point x="169" y="682"/>
      <point x="158" y="691" type="curve"/>
      <point x="147" y="701"/>
      <point x="139" y="715"/>
      <point x="129" y="725" type="curve"/>
      <point x="129" y="459"/>
      <point x="128" y="194"/>
      <point x="129" y="-72" type="curve"/>
      <point x="140" y="-62"/>
      <point x="150" y="-49"/>
      <point x="161" y="-39" type="curve"/>
      <point x="172" y="-30"/>
      <point x="186" y="-24"/>
      <point x="197" y="-14" type="curve"/>
      <point x="144" y="-14"/>
      <point x="90" y="-14"/>
      <point x="37" y="-14" type="curve"/>
      <point x="37" y="-115"/>
      <point x="37" y="-14"/>
      <point x="37" y="-115" type="curve"/>
      <point x="90" y="-115"/>
      <point x="144" y="-115"/>
      <point x="197" y="-115" type="curve"/>
      <point x="250" y="-115"/>
      <point x="197" y="-115"/>
      <point x="250" y="-115" type="curve"/>
      <point x="250" y="-72"/>
      <point x="250" y="-115"/>
      <point x="250" y="-72" type="curve"/>
      <point x="250" y="194"/>
      <point x="250" y="459"/>
      <point x="250" y="725" type="curve"/>
      <point x="250" y="769"/>
      <point x="250" y="725"/>
      <point x="250" y="769" type="curve"/>
      <point x="196" y="769"/>
      <point x="250" y="769"/>
      <point x="196" y="769" type="curve"/>
      <point x="143" y="769"/>
      <point x="90" y="769"/>
      <point x="37" y="769" type="curve"/>
      <point x="37" y="669"/>
      <point x="37" y="769"/>
    </contour>
  </outline>
</glyph>
<glyph name="asciicircum" format="1">
  <advance width="558"/>
  <unicode hex="005E"/>
  <outline>
    <contour>
      <point x="157" y="456" type="curve"/>
      <point x="217" y="559"/>
      <point x="278" y="662"/>
      <point x="339" y="766" type="curve"/>
      <point x="218" y="766"/>
      <point x="338" y="766"/>
      <point x="218" y="766" type="curve"/>
      <point x="157" y="662"/>
      <point x="96" y="559"/>
      <point x="36" y="456" type="curve"/>
      <point x="157" y="456"/>
      <point x="37" y="456"/>
    </contour>
    <contour>
      <point x="522" y="456" type="curve"/>
      <point x="462" y="558"/>
      <point x="399" y="663"/>
      <point x="339" y="766" type="curve"/>
      <point x="218" y="766"/>
      <point x="339" y="766"/>
      <point x="218" y="766" type="curve"/>
      <point x="278" y="663"/>
      <point x="341" y="558"/>
      <point x="401" y="456" type="curve"/>
      <point x="522" y="456"/>
      <point x="401" y="456"/>
    </contour>
  </outline>
</glyph>
<glyph name="underscore" format="1">
  <advance width="710"/>
  <unicode hex="005F"/>
  <outline>
    <contour>
      <point x="0" y="-189" type="curve"/>
      <point x="236" y="-189"/>
      <point x="474" y="-189"/>
      <point x="710" y="-189" type="curve"/>
      <point x="710" y="-97"/>
      <point x="710" y="-189"/>
      <point x="710" y="-97" type="curve"/>
      <point x="474" y="-97"/>
      <point x="236" y="-97"/>
      <point x="0" y="-97" type="curve"/>
      <point x="0" y="-189"/>
      <point x="0" y="-97"/>
    </contour>
  </outline>
</glyph>
<glyph name="grave" format="1">
  <advance width="402"/>
  <unicode hex="0060"/>
  <outline>
    <contour>
      <point x="313" y="567" type="line"/>
      <point x="192" y="733" type="line"/>
      <point x="37" y="733" type="line"/>
      <point x="193" y="567" type="line"/>
    </contour>
    <contour>
      <point x="247" y="567" type="move" name="_top"/>
    </contour>
  </outline>
</glyph>
<glyph name="b" format="1">
  <advance width="663"/>
  <unicode hex="0062"/>
  <outline>
    <contour>
      <point x="155" y="345" type="curve"/>
      <point x="198" y="396"/>
      <point x="258" y="443"/>
      <point x="344" y="443" type="curve"/>
      <point x="446" y="443"/>
      <point x="501" y="370"/>
      <point x="501" y="263" type="curve"/>
      <point x="502" y="159"/>
      <point x="444" y="89"/>
      <point x="345" y="90" type="curve"/>
      <point x="268" y="90"/>
      <point x="209" y="123"/>
      <point x="165" y="173" type="curve"/>
      <point x="120" y="143"/>
      <point x="141" y="156"/>
      <point x="97" y="126" type="curve"/>
      <point x="168" y="47"/>
      <point x="244" y="-5"/>
      <point x="363" y="-5" type="curve"/>
      <point x="523" y="-5"/>
      <point x="623" y="98"/>
      <point x="623" y="266" type="curve"/>
      <point x="623" y="433"/>
      <point x="523" y="538"/>
      <point x="362" y="538" type="curve"/>
      <point x="244" y="538"/>
      <point x="166" y="478"/>
      <point x="102" y="402" type="curve"/>
      <point x="139" y="368"/>
      <point x="119" y="378"/>
    </contour>
    <contour>
      <point x="188" y="0" type="curve"/>
      <point x="188" y="284"/>
      <point x="188" y="516"/>
      <point x="188" y="800" type="curve"/>
      <point x="106" y="800"/>
      <point x="148" y="800"/>
      <point x="67" y="800" type="curve"/>
      <point x="67" y="516"/>
      <point x="67" y="284"/>
      <point x="67" y="0" type="curve"/>
      <point x="148" y="0"/>
      <point x="106" y="0"/>
    </contour>
  </outline>
</glyph>
<glyph name="c" format="1">
  <advance width="558"/>
  <unicode hex="0063"/>
  <outline>
    <contour>
      <point x="531" y="470" type="curve"/>
      <point x="475" y="509"/>
      <point x="404" y="538"/>
      <point x="333" y="538" type="curve"/>
      <point x="152" y="538"/>
      <point x="40" y="448"/>
      <point x="40" y="267" type="curve"/>
      <point x="40" y="87"/>
      <point x="149" y="-5"/>
      <point x="329" y="-5" type="curve"/>
      <point x="410" y="-5"/>
      <point x="488" y="23"/>
      <point x="536" y="82" type="curve"/>
      <point x="464" y="149"/>
      <point x="536" y="82"/>
      <point x="464" y="149" type="curve"/>
      <point x="429" y="114"/>
      <point x="384" y="90"/>
      <point x="335" y="90" type="curve"/>
      <point x="223" y="90"/>
      <point x="161" y="152"/>
      <point x="161" y="267" type="curve"/>
      <point x="161" y="381"/>
      <point x="221" y="443"/>
      <point x="330" y="443" type="curve"/>
      <point x="377" y="443"/>
      <point x="422" y="430"/>
      <point x="467" y="404" type="curve"/>
      <point x="531" y="470"/>
      <point x="467" y="404"/>
    </contour>
    <contour>
      <point x="319" y="625" type="move" name="top"/>
    </contour>
    <contour>
      <point x="341" y="7" type="move" name="bottom"/>
    </contour>
  </outline>
</glyph>
<glyph name="d" format="1">
  <advance width="661"/>
  <unicode hex="0064"/>
  <outline>
    <contour>
      <point x="547" y="426" type="curve"/>
      <point x="485" y="497"/>
      <point x="398" y="536"/>
      <point x="303" y="536" type="curve"/>
      <point x="141" y="536"/>
      <point x="40" y="433"/>
      <point x="40" y="262" type="curve"/>
      <point x="40" y="94"/>
      <point x="142" y="-3"/>
      <point x="303" y="-3" type="curve"/>
      <point x="414" y="-3"/>
      <point x="493" y="48"/>
      <point x="548" y="135" type="curve"/>
      <point x="497" y="190"/>
      <point x="544" y="135"/>
      <point x="493" y="190" type="curve"/>
      <point x="448" y="124"/>
      <point x="396" y="88"/>
      <point x="321" y="88" type="curve"/>
      <point x="221" y="88"/>
      <point x="161" y="156"/>
      <point x="161" y="267" type="curve"/>
      <point x="161" y="378"/>
      <point x="224" y="445"/>
      <point x="325" y="445" type="curve"/>
      <point x="392" y="445"/>
      <point x="458" y="411"/>
      <point x="498" y="361" type="curve"/>
      <point x="550" y="422"/>
      <point x="495" y="366"/>
    </contour>
    <contour>
      <point x="595" y="0" type="curve"/>
      <point x="595" y="267"/>
      <point x="595" y="533"/>
      <point x="595" y="800" type="curve"/>
      <point x="468" y="800"/>
      <point x="595" y="800"/>
      <point x="468" y="800" type="curve"/>
      <point x="468" y="533"/>
      <point x="468" y="267"/>
      <point x="468" y="0" type="curve"/>
      <point x="595" y="0"/>
      <point x="468" y="0"/>
    </contour>
  </outline>
</glyph>
<glyph name="f" format="1">
  <advance width="471"/>
  <unicode hex="0066"/>
  <outline>
    <contour>
      <point x="23" y="442" type="curve"/>
      <point x="445" y="442" type="line"/>
      <point x="445" y="533"/>
      <point x="445" y="442"/>
      <point x="445" y="533" type="curve"/>
      <point x="23" y="533" type="line"/>
      <point x="23" y="442"/>
      <point x="23" y="533"/>
    </contour>
    <contour>
      <point x="268" y="0" type="curve"/>
      <point x="268" y="612" type="line"/>
      <point x="268" y="673"/>
      <point x="294" y="715"/>
      <point x="353" y="715" type="curve"/>
      <point x="382" y="715"/>
      <point x="410" y="707"/>
      <point x="436" y="695" type="curve"/>
      <point x="485" y="768"/>
      <point x="436" y="695"/>
      <point x="485" y="768" type="curve"/>
      <point x="444" y="788"/>
      <point x="399" y="803"/>
      <point x="353" y="803" type="curve"/>
      <point x="229" y="803"/>
      <point x="146" y="733"/>
      <point x="147" y="612" type="curve"/>
      <point x="147" y="0" type="line"/>
      <point x="268" y="0"/>
      <point x="147" y="0"/>
    </contour>
  </outline>
</glyph>
<glyph name="g" format="1">
  <advance width="590"/>
  <unicode hex="0067"/>
  <outline>
    <contour>
      <point x="402" y="448" type="curve"/>
      <point x="570" y="519" type="line"/>
      <point x="568" y="521"/>
      <point x="524" y="605"/>
      <point x="522" y="607" type="curve"/>
      <point x="340" y="516" type="line"/>
      <point x="402" y="448"/>
      <point x="341" y="517"/>
    </contour>
    <contour>
      <point x="169" y="341" type="curve"/>
      <point x="169" y="408"/>
      <point x="221" y="447"/>
      <point x="292" y="447" type="curve"/>
      <point x="363" y="447"/>
      <point x="410" y="408"/>
      <point x="410" y="341" type="curve"/>
      <point x="410" y="277"/>
      <point x="362" y="242"/>
      <point x="292" y="242" type="curve"/>
      <point x="223" y="242"/>
      <point x="169" y="274"/>
      <point x="169" y="341" type="curve"/>
      <point x="48" y="337"/>
      <point x="169" y="341"/>
      <point x="48" y="337" type="curve"/>
      <point x="48" y="213"/>
      <point x="151" y="151"/>
      <point x="284" y="151" type="curve"/>
      <point x="423" y="151"/>
      <point x="531" y="215"/>
      <point x="531" y="345" type="curve"/>
      <point x="531" y="471"/>
      <point x="427" y="538"/>
      <point x="292" y="538" type="curve"/>
      <point x="152" y="538"/>
      <point x="48" y="467"/>
      <point x="48" y="337" type="curve"/>
      <point x="169" y="341"/>
      <point x="48" y="337"/>
    </contour>
    <contour>
      <point x="159" y="243" type="curve"/>
      <point x="98" y="214"/>
      <point x="52" y="178"/>
      <point x="52" y="112" type="curve"/>
      <point x="52" y="6"/>
      <point x="158" y="-20"/>
      <point x="275" y="-29" type="curve"/>
      <point x="372" y="-36"/>
      <point x="469" y="-42"/>
      <point x="469" y="-123" type="curve"/>
      <point x="469" y="-195"/>
      <point x="384" y="-213"/>
      <point x="293" y="-213" type="curve"/>
      <point x="206" y="-213"/>
      <point x="131" y="-187"/>
      <point x="131" y="-109" type="curve"/>
      <point x="131" y="-50"/>
      <point x="164" y="-13"/>
      <point x="214" y="5" type="curve"/>
      <point x="154" y="60"/>
      <point x="214" y="5"/>
      <point x="154" y="60" type="curve"/>
      <point x="71" y="30"/>
      <point x="10" y="-21"/>
      <point x="10" y="-114" type="curve"/>
      <point x="10" y="-253"/>
      <point x="136" y="-304"/>
      <point x="287" y="-304" type="curve"/>
      <point x="444" y="-304"/>
      <point x="582" y="-260"/>
      <point x="579" y="-115" type="curve"/>
      <point x="579" y="24"/>
      <point x="444" y="48"/>
      <point x="297" y="58" type="curve"/>
      <point x="234" y="62"/>
      <point x="173" y="72"/>
      <point x="173" y="121" type="curve"/>
      <point x="173" y="152"/>
      <point x="190" y="170"/>
      <point x="217" y="186" type="curve"/>
      <point x="159" y="243"/>
      <point x="217" y="186"/>
    </contour>
    <contour>
      <point x="286" y="625" type="move" name="top"/>
    </contour>
  </outline>
</glyph>
<glyph name="h" format="1">
  <advance width="637"/>
  <unicode hex="0068"/>
  <outline>
    <contour>
      <point x="161" y="300" type="curve"/>
      <point x="191" y="383"/>
      <point x="258" y="445"/>
      <point x="338" y="445" type="curve"/>
      <point x="418" y="445"/>
      <point x="455" y="390"/>
      <point x="455" y="309" type="curve"/>
      <point x="455" y="205"/>
      <point x="455" y="105"/>
      <point x="455" y="0" type="curve"/>
      <point x="576" y="0"/>
      <point x="455" y="0"/>
      <point x="576" y="0" type="curve"/>
      <point x="576" y="108"/>
      <point x="576" y="216"/>
      <point x="576" y="324" type="curve"/>
      <point x="576" y="462"/>
      <point x="504" y="536"/>
      <point x="364" y="536" type="curve"/>
      <point x="251" y="536"/>
      <point x="154" y="461"/>
      <point x="113" y="344" type="curve"/>
      <point x="162" y="298"/>
      <point x="111" y="346"/>
    </contour>
    <contour>
      <point x="188" y="0" type="curve"/>
      <point x="188" y="267"/>
      <point x="188" y="533"/>
      <point x="188" y="800" type="curve"/>
      <point x="67" y="800"/>
      <point x="188" y="800"/>
      <point x="67" y="800" type="curve"/>
      <point x="67" y="533"/>
      <point x="67" y="267"/>
      <point x="67" y="0" type="curve"/>
      <point x="188" y="0"/>
      <point x="67" y="0"/>
    </contour>
  </outline>
</glyph>
<glyph name="i" format="1">
  <advance width="258"/>
  <unicode hex="0069"/>
  <outline>
    <contour>
      <point x="193" y="0" type="curve"/>
      <point x="193" y="178"/>
      <point x="193" y="355"/>
      <point x="193" y="533" type="curve"/>
      <point x="66" y="533"/>
      <point x="193" y="533"/>
      <point x="66" y="533" type="curve"/>
      <point x="66" y="355"/>
      <point x="66" y="178"/>
      <point x="66" y="0" type="curve"/>
      <point x="193" y="0"/>
      <point x="66" y="0"/>
    </contour>
    <contour>
      <point x="196" y="683" type="curve"/>
      <point x="196" y="724"/>
      <point x="167" y="744"/>
      <point x="126" y="744" type="curve"/>
      <point x="86" y="744"/>
      <point x="58" y="722"/>
      <point x="58" y="683" type="curve"/>
      <point x="193" y="683"/>
      <point x="62" y="683"/>
      <point x="196" y="683" type="curve"/>
      <point x="196" y="642"/>
      <point x="167" y="623"/>
      <point x="126" y="623" type="curve"/>
      <point x="85" y="623"/>
      <point x="58" y="644"/>
      <point x="58" y="683" type="curve"/>
      <point x="193" y="683"/>
      <point x="62" y="683"/>
    </contour>
    <contour>
      <point x="126" y="625" type="move" name="top"/>
    </contour>
    <contour>
      <point x="184" y="7" type="move" name="bottom"/>
    </contour>
  </outline>
</glyph>
<glyph name="j" format="1">
  <advance width="284"/>
  <unicode hex="006A"/>
  <outline>
    <contour>
      <point x="-30" y="-302" type="curve"/>
      <point x="-20" y="-303"/>
      <point x="-8" y="-305"/>
      <point x="6" y="-305" type="curve"/>
      <point x="128" y="-305"/>
      <point x="222" y="-241"/>
      <point x="222" y="-125" type="curve"/>
      <point x="222" y="95"/>
      <point x="222" y="314"/>
      <point x="222" y="534" type="curve"/>
      <point x="101" y="534"/>
      <point x="222" y="534"/>
      <point x="101" y="534" type="curve"/>
      <point x="101" y="314"/>
      <point x="101" y="95"/>
      <point x="101" y="-125" type="curve"/>
      <point x="101" y="-180"/>
      <point x="66" y="-217"/>
      <point x="11" y="-217" type="curve"/>
      <point x="3" y="-217"/>
      <point x="-6" y="-216"/>
      <point x="-13" y="-215" type="curve"/>
      <point x="-29" y="-302"/>
      <point x="-13" y="-215"/>
    </contour>
    <contour>
      <point x="231" y="680" type="curve"/>
      <point x="231" y="721"/>
      <point x="201" y="741"/>
      <point x="161" y="741" type="curve"/>
      <point x="120" y="741"/>
      <point x="93" y="719"/>
      <point x="93" y="680" type="curve"/>
      <point x="227" y="680"/>
      <point x="96" y="680"/>
      <point x="231" y="680" type="curve"/>
      <point x="231" y="639"/>
      <point x="201" y="620"/>
      <point x="160" y="620" type="curve"/>
      <point x="119" y="620"/>
      <point x="93" y="641"/>
      <point x="93" y="680" type="curve"/>
      <point x="227" y="680"/>
      <point x="96" y="680"/>
    </contour>
  </outline>
</glyph>
<glyph name="k" format="1">
  <advance width="609"/>
  <unicode hex="006B"/>
  <outline>
    <contour>
      <point x="188" y="0" type="curve"/>
      <point x="188" y="800" type="line"/>
      <point x="67" y="800"/>
      <point x="188" y="800"/>
      <point x="67" y="800" type="curve"/>
      <point x="67" y="533"/>
      <point x="67" y="267"/>
      <point x="67" y="0" type="curve"/>
      <point x="188" y="0"/>
      <point x="67" y="0"/>
    </contour>
    <contour>
      <point x="418" y="533" type="curve"/>
      <point x="159" y="275" type="line"/>
      <point x="296" y="275"/>
      <point x="165" y="275"/>
      <point x="302" y="275" type="curve"/>
      <point x="568" y="533" type="line"/>
      <point x="427" y="533"/>
      <point x="559" y="533"/>
    </contour>
    <contour>
      <point x="596" y="0" type="curve"/>
      <point x="301" y="275" type="line"/>
      <point x="165" y="275"/>
      <point x="295" y="275"/>
      <point x="159" y="275" type="curve"/>
      <point x="444" y="0" type="line"/>
      <point x="582" y="0"/>
      <point x="457" y="0"/>
    </contour>
    <contour>
      <point x="356" y="-10" type="move" name="bottom"/>
    </contour>
  </outline>
</glyph>
<glyph name="m" format="1">
  <advance width="943"/>
  <unicode hex="006D"/>
  <outline>
    <contour>
      <point x="507" y="285" type="curve"/>
      <point x="542" y="372"/>
      <point x="584" y="443"/>
      <point x="661" y="443" type="curve"/>
      <point x="739" y="443"/>
      <point x="759" y="397"/>
      <point x="759" y="315" type="curve"/>
      <point x="759" y="210"/>
      <point x="759" y="105"/>
      <point x="759" y="0" type="curve"/>
      <point x="880" y="0"/>
      <point x="759" y="0"/>
      <point x="880" y="0" type="curve"/>
      <point x="880" y="108"/>
      <point x="880" y="216"/>
      <point x="880" y="324" type="curve"/>
      <point x="880" y="465"/>
      <point x="833" y="538"/>
      <point x="694" y="538" type="curve"/>
      <point x="580" y="538"/>
      <point x="508" y="457"/>
      <point x="458" y="335" type="curve"/>
      <point x="508" y="286"/>
      <point x="456" y="334"/>
    </contour>
    <contour>
      <point x="161" y="288" type="curve"/>
      <point x="195" y="374"/>
      <point x="237" y="443"/>
      <point x="314" y="443" type="curve"/>
      <point x="392" y="443"/>
      <point x="413" y="397"/>
      <point x="413" y="315" type="curve"/>
      <point x="413" y="210"/>
      <point x="413" y="105"/>
      <point x="413" y="0" type="curve"/>
      <point x="534" y="0"/>
      <point x="413" y="0"/>
      <point x="534" y="0" type="curve"/>
      <point x="534" y="108"/>
      <point x="534" y="216"/>
      <point x="534" y="324" type="curve"/>
      <point x="534" y="465"/>
      <point x="487" y="538"/>
      <point x="349" y="538" type="curve"/>
      <point x="233" y="538"/>
      <point x="169" y="462"/>
      <point x="111" y="337" type="curve"/>
      <point x="163" y="289"/>
      <point x="110" y="336"/>
    </contour>
    <contour>
      <point x="188" y="0" type="curve"/>
      <point x="188" y="178"/>
      <point x="188" y="355"/>
      <point x="188" y="533" type="curve"/>
      <point x="67" y="533"/>
      <point x="188" y="533"/>
      <point x="67" y="533" type="curve"/>
      <point x="67" y="355"/>
      <point x="67" y="178"/>
      <point x="67" y="0" type="curve"/>
      <point x="188" y="0"/>
      <point x="67" y="0"/>
    </contour>
  </outline>
</glyph>
<glyph name="n" format="1">
  <advance width="637"/>
  <unicode hex="006E"/>
  <outline>
    <contour>
      <point x="162" y="276" type="curve"/>
      <point x="189" y="371"/>
      <point x="248" y="443"/>
      <point x="334" y="443" type="curve"/>
      <point x="413" y="443"/>
      <point x="454" y="395"/>
      <point x="454" y="315" type="curve"/>
      <point x="454" y="206"/>
      <point x="454" y="109"/>
      <point x="454" y="0" type="curve"/>
      <point x="534" y="0"/>
      <point x="495" y="0"/>
      <point x="575" y="0" type="curve"/>
      <point x="575" y="112"/>
      <point x="575" y="212"/>
      <point x="575" y="324" type="curve"/>
      <point x="575" y="460"/>
      <point x="506" y="538"/>
      <point x="369" y="538" type="curve"/>
      <point x="244" y="538"/>
      <point x="152" y="459"/>
      <point x="111" y="323" type="curve"/>
      <point x="141" y="289"/>
      <point x="132" y="310"/>
    </contour>
    <contour>
      <point x="188" y="0" type="curve"/>
      <point x="188" y="178"/>
      <point x="188" y="355"/>
      <point x="188" y="533" type="curve"/>
      <point x="67" y="533"/>
      <point x="188" y="533"/>
      <point x="67" y="533" type="curve"/>
      <point x="67" y="355"/>
      <point x="67" y="178"/>
      <point x="67" y="0" type="curve"/>
      <point x="188" y="0"/>
      <point x="67" y="0"/>
    </contour>
    <contour>
      <point x="328" y="625" type="move" name="top"/>
    </contour>
    <contour>
      <point x="349" y="10" type="move" name="bottom"/>
    </contour>
  </outline>
</glyph>
<glyph name="o" format="1">
  <advance width="642"/>
  <unicode hex="006F"/>
  <outline>
    <contour>
      <point x="157" y="267" type="curve"/>
      <point x="157" y="372"/>
      <point x="210" y="445"/>
      <point x="315" y="445" type="curve"/>
      <point x="424" y="445"/>
      <point x="481" y="373"/>
      <point x="481" y="266" type="curve"/>
      <point x="481" y="156"/>
      <point x="426" y="88"/>
      <point x="324" y="88" type="curve"/>
      <point x="213" y="88"/>
      <point x="157" y="156"/>
      <point x="157" y="267" type="curve"/>
      <point x="87" y="267"/>
      <point x="110" y="267"/>
      <point x="40" y="267" type="curve"/>
      <point x="40" y="94"/>
      <point x="145" y="-5"/>
      <point x="318" y="-5" type="curve"/>
      <point x="493" y="-5"/>
      <point x="602" y="91"/>
      <point x="602" y="266" type="curve"/>
      <point x="602" y="436"/>
      <point x="497" y="538"/>
      <point x="321" y="538" type="curve"/>
      <point x="145" y="538"/>
      <point x="40" y="436"/>
      <point x="40" y="267" type="curve"/>
      <point x="110" y="267"/>
      <point x="87" y="267"/>
    </contour>
    <contour>
      <point x="319" y="625" type="move" name="top"/>
    </contour>
  </outline>
</glyph>
<glyph name="p" format="1">
  <advance width="663"/>
  <unicode hex="0070"/>
  <outline>
    <contour>
      <point x="153" y="319" type="curve"/>
      <point x="197" y="391"/>
      <point x="261" y="447"/>
      <point x="348" y="447" type="curve"/>
      <point x="452" y="447"/>
      <point x="502" y="372"/>
      <point x="502" y="265" type="curve"/>
      <point x="504" y="159"/>
      <point x="450" y="86"/>
      <point x="346" y="86" type="curve"/>
      <point x="270" y="86"/>
      <point x="211" y="116"/>
      <point x="155" y="167" type="curve"/>
      <point x="120" y="134"/>
      <point x="139" y="143"/>
      <point x="104" y="110" type="curve"/>
      <point x="174" y="37"/>
      <point x="256" y="-5"/>
      <point x="364" y="-5" type="curve"/>
      <point x="531" y="-5"/>
      <point x="624" y="106"/>
      <point x="623" y="270" type="curve"/>
      <point x="623" y="429"/>
      <point x="533" y="539"/>
      <point x="371" y="539" type="curve"/>
      <point x="255" y="539"/>
      <point x="170" y="477"/>
      <point x="111" y="388" type="curve"/>
      <point x="139" y="339"/>
      <point x="125" y="367"/>
    </contour>
    <contour>
      <point x="187" y="-300" type="curve"/>
      <point x="187" y="-22"/>
      <point x="187" y="255"/>
      <point x="187" y="533" type="curve"/>
      <point x="67" y="533"/>
      <point x="187" y="533"/>
      <point x="67" y="533" type="curve"/>
      <point x="67" y="255"/>
      <point x="67" y="-22"/>
      <point x="67" y="-300" type="curve"/>
      <point x="187" y="-300"/>
      <point x="67" y="-300"/>
    </contour>
  </outline>
</glyph>
<glyph name="q" format="1">
  <advance width="669"/>
  <unicode hex="0071"/>
  <outline>
    <contour>
      <point x="558" y="398" type="curve"/>
      <point x="490" y="484"/>
      <point x="406" y="538"/>
      <point x="298" y="538" type="curve"/>
      <point x="131" y="538"/>
      <point x="39" y="428"/>
      <point x="40" y="264" type="curve"/>
      <point x="40" y="100"/>
      <point x="137" y="-5"/>
      <point x="303" y="-5" type="curve"/>
      <point x="414" y="-5"/>
      <point x="496" y="54"/>
      <point x="568" y="138" type="curve"/>
      <point x="536" y="173"/>
      <point x="545" y="156"/>
      <point x="512" y="191" type="curve"/>
      <point x="464" y="124"/>
      <point x="400" y="86"/>
      <point x="320" y="86" type="curve"/>
      <point x="216" y="86"/>
      <point x="161" y="160"/>
      <point x="161" y="268" type="curve"/>
      <point x="161" y="373"/>
      <point x="216" y="445"/>
      <point x="318" y="445" type="curve"/>
      <point x="398" y="445"/>
      <point x="462" y="407"/>
      <point x="516" y="338" type="curve"/>
      <point x="542" y="377"/>
      <point x="532" y="360"/>
    </contour>
    <contour>
      <point x="602" y="-300" type="curve"/>
      <point x="602" y="-10"/>
      <point x="602" y="243"/>
      <point x="602" y="533" type="curve"/>
      <point x="518" y="533"/>
      <point x="560" y="533"/>
      <point x="476" y="533" type="curve"/>
      <point x="476" y="243"/>
      <point x="476" y="-10"/>
      <point x="476" y="-300" type="curve"/>
      <point x="560" y="-300"/>
      <point x="518" y="-300"/>
    </contour>
  </outline>
</glyph>
<glyph name="r" format="1">
  <advance width="405"/>
  <unicode hex="0072"/>
  <outline>
    <contour>
      <point x="188" y="0" type="curve"/>
      <point x="188" y="189"/>
      <point x="188" y="344"/>
      <point x="188" y="533" type="curve"/>
      <point x="106" y="533"/>
      <point x="148" y="533"/>
      <point x="67" y="533" type="curve"/>
      <point x="67" y="344"/>
      <point x="67" y="189"/>
      <point x="67" y="0" type="curve"/>
      <point x="148" y="0"/>
      <point x="106" y="0"/>
    </contour>
    <contour>
      <point x="158" y="288" type="curve"/>
      <point x="209" y="403"/>
      <point x="288" y="435"/>
      <point x="395" y="435" type="curve"/>
      <point x="395" y="504"/>
      <point x="395" y="470"/>
      <point x="395" y="538" type="curve"/>
      <point x="266" y="538"/>
      <point x="177" y="467"/>
      <point x="118" y="347" type="curve"/>
      <point x="147" y="309"/>
      <point x="130" y="325"/>
    </contour>
    <contour>
      <point x="165" y="625" type="move" name="top"/>
    </contour>
    <contour>
      <point x="157" y="6" type="move" name="bottom"/>
    </contour>
  </outline>
</glyph>
<glyph name="s" format="1">
  <advance width="511"/>
  <unicode hex="0073"/>
  <outline>
    <contour>
      <point x="33" y="47" type="curve"/>
      <point x="109" y="15"/>
      <point x="173" y="-5"/>
      <point x="252" y="-5" type="curve"/>
      <point x="386" y="-5"/>
      <point x="483" y="39"/>
      <point x="483" y="156" type="curve"/>
      <point x="482" y="267"/>
      <point x="385" y="287"/>
      <point x="267" y="319" type="curve" smooth="yes"/>
      <point x="206" y="335"/>
      <point x="152" y="351"/>
      <point x="152" y="395" type="curve"/>
      <point x="152" y="427"/>
      <point x="190" y="445"/>
      <point x="241" y="445" type="curve"/>
      <point x="290" y="445"/>
      <point x="347" y="429"/>
      <point x="385" y="410" type="curve"/>
      <point x="434" y="491"/>
      <point x="386" y="411"/>
      <point x="435" y="492" type="curve"/>
      <point x="390" y="517"/>
      <point x="311" y="538"/>
      <point x="245" y="538" type="curve"/>
      <point x="127" y="538"/>
      <point x="42" y="498"/>
      <point x="42" y="394" type="curve"/>
      <point x="42" y="293"/>
      <point x="120" y="259"/>
      <point x="229" y="231" type="curve" smooth="yes"/>
      <point x="298" y="212"/>
      <point x="367" y="201"/>
      <point x="367" y="152" type="curve"/>
      <point x="367" y="111"/>
      <point x="322" y="90"/>
      <point x="265" y="90" type="curve"/>
      <point x="201" y="90"/>
      <point x="154" y="105"/>
      <point x="87" y="131" type="curve"/>
      <point x="33" y="47"/>
      <point x="87" y="131"/>
    </contour>
    <contour>
      <point x="248" y="625" type="move" name="top"/>
    </contour>
    <contour>
      <point x="283" y="-3" type="move" name="bottom"/>
    </contour>
  </outline>
</glyph>
<glyph name="t" format="1">
  <advance width="437"/>
  <unicode hex="0074"/>
  <outline>
    <contour>
      <point x="26" y="441" type="curve"/>
      <point x="413" y="441" type="line"/>
      <point x="413" y="533"/>
      <point x="413" y="441"/>
      <point x="413" y="533" type="curve"/>
      <point x="26" y="533" type="line"/>
      <point x="26" y="441"/>
      <point x="26" y="533"/>
    </contour>
    <contour>
      <point x="388" y="108" type="curve"/>
      <point x="362" y="95"/>
      <point x="342" y="90"/>
      <point x="314" y="90" type="curve"/>
      <point x="266" y="90"/>
      <point x="247" y="118"/>
      <point x="247" y="169" type="curve"/>
      <point x="247" y="685" type="line"/>
      <point x="193" y="651"/>
      <point x="180" y="648"/>
      <point x="126" y="614" type="curve"/>
      <point x="126" y="164" type="line"/>
      <point x="126" y="51"/>
      <point x="189" y="-6"/>
      <point x="300" y="-6" type="curve"/>
      <point x="353" y="-6"/>
      <point x="389" y="9"/>
      <point x="427" y="28" type="curve"/>
      <point x="388" y="108"/>
      <point x="427" y="28"/>
    </contour>
    <contour>
      <point x="326" y="-2" type="move" name="bottom"/>
    </contour>
  </outline>
</glyph>
<glyph name="u" format="1">
  <advance width="630"/>
  <unicode hex="0075"/>
  <outline>
    <contour>
      <point x="563" y="0" type="curve"/>
      <point x="563" y="184"/>
      <point x="563" y="349"/>
      <point x="563" y="533" type="curve"/>
      <point x="483" y="533"/>
      <point x="522" y="533"/>
      <point x="442" y="533" type="curve"/>
      <point x="442" y="349"/>
      <point x="442" y="184"/>
      <point x="442" y="0" type="curve"/>
      <point x="522" y="0"/>
      <point x="483" y="0"/>
    </contour>
    <contour>
      <point x="473" y="233" type="curve"/>
      <point x="440" y="154"/>
      <point x="384" y="88"/>
      <point x="302" y="88" type="curve"/>
      <point x="224" y="88"/>
      <point x="182" y="135"/>
      <point x="182" y="212" type="curve"/>
      <point x="182" y="323"/>
      <point x="182" y="422"/>
      <point x="182" y="533" type="curve"/>
      <point x="102" y="533"/>
      <point x="141" y="533"/>
      <point x="61" y="533" type="curve"/>
      <point x="61" y="420"/>
      <point x="61" y="320"/>
      <point x="61" y="208" type="curve"/>
      <point x="61" y="72"/>
      <point x="141" y="-5"/>
      <point x="283" y="-5" type="curve"/>
      <point x="398" y="-5"/>
      <point x="476" y="75"/>
      <point x="524" y="187" type="curve"/>
      <point x="489" y="213"/>
      <point x="508" y="207"/>
    </contour>
    <contour>
      <point x="291" y="625" type="move" name="top"/>
    </contour>
    <contour>
      <point x="546" y="9" type="move" name="bottom"/>
    </contour>
  </outline>
</glyph>
<glyph name="v" format="1">
  <advance width="606"/>
  <unicode hex="0076"/>
  <outline>
    <contour>
      <point x="17" y="533" type="curve"/>
      <point x="89" y="355"/>
      <point x="161" y="178"/>
      <point x="233" y="0" type="curve"/>
      <point x="351" y="0"/>
      <point x="233" y="0"/>
      <point x="351" y="0" type="curve"/>
      <point x="280" y="178"/>
      <point x="211" y="355"/>
      <point x="140" y="533" type="curve"/>
      <point x="17" y="533"/>
      <point x="140" y="533"/>
    </contour>
    <contour>
      <point x="472" y="533" type="curve"/>
      <point x="248" y="0" type="line"/>
      <point x="367" y="0"/>
      <point x="248" y="0"/>
      <point x="367" y="0" type="curve"/>
      <point x="443" y="178"/>
      <point x="518" y="355"/>
      <point x="594" y="533" type="curve"/>
      <point x="472" y="533"/>
      <point x="594" y="533"/>
    </contour>
  </outline>
</glyph>
<glyph name="w" format="1">
  <advance width="941"/>
  <unicode hex="0077"/>
  <outline>
    <contour>
      <point x="321" y="0" type="curve"/>
      <point x="392" y="178"/>
      <point x="463" y="355"/>
      <point x="533" y="533" type="curve"/>
      <point x="417" y="533"/>
      <point x="533" y="533"/>
      <point x="417" y="533" type="curve"/>
      <point x="348" y="355"/>
      <point x="278" y="178"/>
      <point x="209" y="0" type="curve"/>
      <point x="321" y="0"/>
      <point x="209" y="0"/>
    </contour>
    <contour>
      <point x="810" y="533" type="curve"/>
      <point x="745" y="355"/>
      <point x="680" y="178"/>
      <point x="615" y="0" type="curve"/>
      <point x="728" y="0"/>
      <point x="615" y="0"/>
      <point x="728" y="0" type="curve"/>
      <point x="794" y="178"/>
      <point x="860" y="355"/>
      <point x="926" y="533" type="curve"/>
      <point x="810" y="533"/>
      <point x="926" y="533"/>
    </contour>
    <contour>
      <point x="424" y="533" type="curve"/>
      <point x="487" y="355"/>
      <point x="550" y="178"/>
      <point x="614" y="0" type="curve"/>
      <point x="727" y="0"/>
      <point x="614" y="0"/>
      <point x="727" y="0" type="curve"/>
      <point x="664" y="178"/>
      <point x="601" y="355"/>
      <point x="538" y="533" type="curve"/>
      <point x="424" y="533"/>
      <point x="538" y="533"/>
    </contour>
    <contour>
      <point x="18" y="533" type="curve"/>
      <point x="81" y="355"/>
      <point x="145" y="178"/>
      <point x="208" y="0" type="curve"/>
      <point x="320" y="0"/>
      <point x="208" y="0"/>
      <point x="320" y="0" type="curve"/>
      <point x="258" y="178"/>
      <point x="195" y="355"/>
      <point x="133" y="533" type="curve"/>
      <point x="18" y="533"/>
      <point x="133" y="533"/>
    </contour>
  </outline>
</glyph>
<glyph name="x" format="1">
  <advance width="628"/>
  <unicode hex="0078"/>
  <outline>
    <contour>
      <point x="616" y="0" type="curve"/>
      <point x="580" y="43"/>
      <point x="181" y="490"/>
      <point x="145" y="533" type="curve"/>
      <point x="-19" y="533"/>
      <point x="183" y="533"/>
      <point x="18" y="533" type="curve"/>
      <point x="53" y="490"/>
      <point x="444" y="43"/>
      <point x="480" y="0" type="curve"/>
      <point x="616" y="0"/>
      <point x="480" y="0"/>
    </contour>
    <contour>
      <point x="486" y="533" type="curve"/>
      <point x="450" y="490"/>
      <point x="45" y="43"/>
      <point x="9" y="0" type="curve"/>
      <point x="147" y="0"/>
      <point x="9" y="0"/>
      <point x="147" y="0" type="curve"/>
      <point x="183" y="43"/>
      <point x="580" y="490"/>
      <point x="616" y="533" type="curve"/>
      <point x="434" y="533"/>
      <point x="668" y="533"/>
    </contour>
  </outline>
</glyph>
<glyph name="braceleft" format="1">
  <advance width="309"/>
  <unicode hex="007B"/>
  <outline>
    <contour>
      <point x="270" y="-20" type="curve"/>
      <point x="224" y="-20"/>
      <point x="204" y="11"/>
      <point x="204" y="57" type="curve"/>
      <point x="204" y="110"/>
      <point x="204" y="163"/>
      <point x="204" y="215" type="curve"/>
      <point x="204" y="322"/>
      <point x="137" y="389"/>
      <point x="30" y="389" type="curve"/>
      <point x="30" y="293"/>
      <point x="30" y="389"/>
      <point x="30" y="293" type="curve"/>
      <point x="72" y="293"/>
      <point x="94" y="267"/>
      <point x="94" y="224" type="curve"/>
      <point x="94" y="170"/>
      <point x="94" y="116"/>
      <point x="94" y="62" type="curve"/>
      <point x="94" y="-46"/>
      <point x="161" y="-111"/>
      <point x="270" y="-111" type="curve"/>
      <point x="270" y="-20"/>
      <point x="270" y="-111"/>
    </contour>
    <contour>
      <point x="270" y="792" type="curve"/>
      <point x="161" y="792"/>
      <point x="94" y="729"/>
      <point x="94" y="622" type="curve"/>
      <point x="94" y="566"/>
      <point x="94" y="510"/>
      <point x="94" y="454" type="curve"/>
      <point x="94" y="412"/>
      <point x="71" y="389"/>
      <point x="30" y="389" type="curve"/>
      <point x="30" y="293"/>
      <point x="30" y="389"/>
      <point x="30" y="293" type="curve"/>
      <point x="137" y="293"/>
      <point x="204" y="359"/>
      <point x="204" y="467" type="curve"/>
      <point x="204" y="519"/>
      <point x="204" y="570"/>
      <point x="204" y="622" type="curve"/>
      <point x="204" y="669"/>
      <point x="223" y="700"/>
      <point x="270" y="700" type="curve"/>
      <point x="270" y="792"/>
      <point x="270" y="700"/>
    </contour>
  </outline>
</glyph>
<glyph name="braceright" format="1">
  <advance width="309"/>
  <unicode hex="007D"/>
  <outline>
    <contour>
      <point x="38" y="-112" type="curve"/>
      <point x="146" y="-112"/>
      <point x="213" y="-46"/>
      <point x="213" y="62" type="curve"/>
      <point x="213" y="116"/>
      <point x="213" y="170"/>
      <point x="213" y="224" type="curve"/>
      <point x="213" y="267"/>
      <point x="235" y="293"/>
      <point x="278" y="293" type="curve"/>
      <point x="278" y="389"/>
      <point x="278" y="293"/>
      <point x="278" y="389" type="curve"/>
      <point x="171" y="389"/>
      <point x="103" y="322"/>
      <point x="103" y="215" type="curve"/>
      <point x="103" y="163"/>
      <point x="103" y="110"/>
      <point x="103" y="57" type="curve"/>
      <point x="103" y="11"/>
      <point x="83" y="-20"/>
      <point x="38" y="-20" type="curve"/>
      <point x="38" y="-112"/>
      <point x="38" y="-20"/>
    </contour>
    <contour>
      <point x="38" y="700" type="curve"/>
      <point x="84" y="700"/>
      <point x="103" y="669"/>
      <point x="103" y="622" type="curve"/>
      <point x="103" y="570"/>
      <point x="103" y="519"/>
      <point x="103" y="467" type="curve"/>
      <point x="103" y="358"/>
      <point x="170" y="293"/>
      <point x="278" y="293" type="curve"/>
      <point x="278" y="389"/>
      <point x="278" y="293"/>
      <point x="278" y="389" type="curve"/>
      <point x="236" y="389"/>
      <point x="213" y="412"/>
      <point x="213" y="454" type="curve"/>
      <point x="213" y="510"/>
      <point x="213" y="566"/>
      <point x="213" y="622" type="curve"/>
      <point x="213" y="729"/>
      <point x="146" y="792"/>
      <point x="38" y="792" type="curve"/>
      <point x="38" y="700"/>
      <point x="38" y="792"/>
    </contour>
  </outline>
</glyph>
<glyph name="asciitilde" format="1">
  <advance width="700"/>
  <unicode hex="007E"/>
  <outline>
    <contour>
      <point x="552" y="372" type="curve"/>
      <point x="536" y="329"/>
      <point x="518" y="292"/>
      <point x="477" y="292" type="curve"/>
      <point x="438" y="292"/>
      <point x="415" y="301"/>
      <point x="383" y="323" type="curve"/>
      <point x="331" y="362"/>
      <point x="295" y="382"/>
      <point x="229" y="382" type="curve"/>
      <point x="132" y="382"/>
      <point x="82" y="334"/>
      <point x="53" y="242" type="curve"/>
      <point x="90" y="226"/>
      <point x="105" y="220"/>
      <point x="143" y="205" type="curve"/>
      <point x="158" y="253"/>
      <point x="179" y="288"/>
      <point x="225" y="288" type="curve"/>
      <point x="260" y="288"/>
      <point x="280" y="279"/>
      <point x="308" y="259" type="curve"/>
      <point x="364" y="219"/>
      <point x="402" y="199"/>
      <point x="472" y="198" type="curve"/>
      <point x="567" y="198"/>
      <point x="611" y="248"/>
      <point x="646" y="335" type="curve"/>
      <point x="607" y="351"/>
      <point x="592" y="357"/>
    </contour>
  </outline>
</glyph>
<glyph name="exclamdown" format="1">
  <advance width="259"/>
  <unicode hex="00A1"/>
  <outline>
    <contour>
      <point x="79" y="303" type="line"/>
      <point x="65" y="-190" type="line"/>
      <point x="195" y="-190" type="line"/>
      <point x="184" y="303" type="line"/>
    </contour>
    <contour>
      <point x="62" y="481" type="curve"/>
      <point x="62" y="441"/>
      <point x="91" y="421"/>
      <point x="132" y="421" type="curve"/>
      <point x="172" y="421"/>
      <point x="199" y="442"/>
      <point x="199" y="481" type="curve"/>
      <point x="65" y="481"/>
      <point x="196" y="481"/>
      <point x="62" y="481" type="curve"/>
      <point x="62" y="523"/>
      <point x="91" y="541"/>
      <point x="132" y="541" type="curve"/>
      <point x="173" y="541"/>
      <point x="199" y="520"/>
      <point x="199" y="481" type="curve"/>
      <point x="65" y="481"/>
      <point x="196" y="481"/>
    </contour>
  </outline>
</glyph>
<glyph name="cent" format="1">
  <advance width="673"/>
  <unicode hex="00A2"/>
  <outline>
    <contour>
      <point x="421" y="-53" type="curve"/>
      <point x="421" y="-13"/>
      <point x="421" y="27"/>
      <point x="421" y="67" type="curve"/>
      <point x="300" y="67"/>
      <point x="421" y="67"/>
      <point x="300" y="67" type="curve"/>
      <point x="300" y="27"/>
      <point x="300" y="-13"/>
      <point x="300" y="-53" type="curve"/>
      <point x="421" y="-53"/>
      <point x="300" y="-53"/>
    </contour>
    <contour>
      <point x="322" y="778" type="curve"/>
      <point x="322" y="742"/>
      <point x="322" y="706"/>
      <point x="322" y="670" type="curve"/>
      <point x="442" y="670"/>
      <point x="322" y="670"/>
      <point x="442" y="670" type="curve"/>
      <point x="442" y="706"/>
      <point x="442" y="742"/>
      <point x="442" y="778" type="curve"/>
      <point x="322" y="778"/>
      <point x="442" y="778"/>
    </contour>
    <contour>
      <point x="636" y="613" type="curve"/>
      <point x="554" y="666"/>
      <point x="487" y="685"/>
      <point x="391" y="685" type="curve"/>
      <point x="179" y="685"/>
      <point x="38" y="570"/>
      <point x="38" y="364" type="curve"/>
      <point x="38" y="168"/>
      <point x="158" y="47"/>
      <point x="354" y="47" type="curve"/>
      <point x="467" y="47"/>
      <point x="546" y="73"/>
      <point x="636" y="141" type="curve"/>
      <point x="568" y="217"/>
      <point x="636" y="141"/>
      <point x="568" y="217" type="curve"/>
      <point x="497" y="168"/>
      <point x="444" y="143"/>
      <point x="365" y="143" type="curve"/>
      <point x="233" y="143"/>
      <point x="159" y="232"/>
      <point x="159" y="369" type="curve"/>
      <point x="159" y="507"/>
      <point x="245" y="589"/>
      <point x="380" y="589" type="curve"/>
      <point x="454" y="589"/>
      <point x="506" y="573"/>
      <point x="577" y="533" type="curve"/>
      <point x="636" y="613"/>
      <point x="577" y="533"/>
    </contour>
  </outline>
</glyph>
<glyph name="sterling" format="1">
  <advance width="528"/>
  <unicode hex="00A3"/>
  <outline>
    <contour>
      <point x="464" y="92" type="curve"/>
      <point x="323" y="92"/>
      <point x="181" y="92"/>
      <point x="41" y="92" type="curve"/>
      <point x="41" y="0"/>
      <point x="41" y="92"/>
      <point x="41" y="0" type="curve"/>
      <point x="181" y="0"/>
      <point x="323" y="0"/>
      <point x="464" y="0" type="curve"/>
      <point x="464" y="92"/>
      <point x="464" y="0"/>
    </contour>
    <contour>
      <point x="412" y="421" type="curve"/>
      <point x="300" y="421"/>
      <point x="185" y="421"/>
      <point x="73" y="421" type="curve"/>
      <point x="73" y="330"/>
      <point x="73" y="421"/>
      <point x="73" y="330" type="curve"/>
      <point x="185" y="330"/>
      <point x="300" y="330"/>
      <point x="412" y="330" type="curve"/>
      <point x="412" y="421"/>
      <point x="412" y="330"/>
    </contour>
    <contour>
      <point x="494" y="664" type="curve"/>
      <point x="442" y="707"/>
      <point x="397" y="721"/>
      <point x="334" y="721" type="curve"/>
      <point x="159" y="721"/>
      <point x="87" y="560"/>
      <point x="133" y="366" type="curve"/>
      <point x="167" y="222"/>
      <point x="145" y="92"/>
      <point x="41" y="92" type="curve"/>
      <point x="41" y="0"/>
      <point x="41" y="92"/>
      <point x="41" y="0" type="curve"/>
      <point x="230" y="0"/>
      <point x="296" y="176"/>
      <point x="248" y="384" type="curve"/>
      <point x="218" y="516"/>
      <point x="239" y="634"/>
      <point x="328" y="634" type="curve"/>
      <point x="371" y="634"/>
      <point x="399" y="620"/>
      <point x="435" y="596" type="curve"/>
      <point x="494" y="664"/>
      <point x="435" y="596"/>
    </contour>
  </outline>
</glyph>
<glyph name="currency" format="1">
  <advance width="676"/>
  <unicode hex="00A4"/>
  <outline>
    <contour>
      <point x="243" y="315" type="curve"/>
      <point x="243" y="374"/>
      <point x="277" y="413"/>
      <point x="336" y="413" type="curve"/>
      <point x="399" y="413"/>
      <point x="433" y="376"/>
      <point x="433" y="315" type="curve"/>
      <point x="433" y="255"/>
      <point x="402" y="212"/>
      <point x="343" y="212" type="curve"/>
      <point x="279" y="212"/>
      <point x="243" y="252"/>
      <point x="243" y="315" type="curve"/>
      <point x="122" y="315"/>
      <point x="246" y="315"/>
      <point x="125" y="315" type="curve"/>
      <point x="125" y="190"/>
      <point x="212" y="121"/>
      <point x="341" y="121" type="curve"/>
      <point x="468" y="121"/>
      <point x="552" y="194"/>
      <point x="552" y="318" type="curve"/>
      <point x="552" y="437"/>
      <point x="469" y="504"/>
      <point x="347" y="504" type="curve"/>
      <point x="216" y="504"/>
      <point x="125" y="439"/>
      <point x="125" y="315" type="curve"/>
      <point x="246" y="315"/>
      <point x="122" y="315"/>
    </contour>
    <contour>
      <point x="470" y="337" type="line"/>
      <point x="629" y="485" type="line"/>
      <point x="538" y="577" type="line"/>
      <point x="389" y="417" type="line"/>
    </contour>
    <contour>
      <point x="392" y="214" type="line"/>
      <point x="540" y="54" type="line"/>
      <point x="632" y="146" type="line"/>
      <point x="472" y="294" type="line"/>
    </contour>
    <contour>
      <point x="205" y="295" type="line"/>
      <point x="45" y="147" type="line"/>
      <point x="137" y="55" type="line"/>
      <point x="285" y="215" type="line"/>
    </contour>
    <contour>
      <point x="288" y="419" type="line"/>
      <point x="140" y="579" type="line"/>
      <point x="48" y="487" type="line"/>
      <point x="208" y="338" type="line"/>
    </contour>
  </outline>
</glyph>
<glyph name="yen" format="1">
  <advance width="691"/>
  <unicode hex="00A5"/>
  <outline>
    <contour>
      <point x="580" y="422" type="curve"/>
      <point x="507" y="422"/>
      <point x="434" y="422"/>
      <point x="361" y="422" type="curve"/>
      <point x="361" y="321"/>
      <point x="361" y="422"/>
      <point x="361" y="321" type="curve"/>
      <point x="434" y="321"/>
      <point x="507" y="321"/>
      <point x="580" y="321" type="curve"/>
      <point x="580" y="422"/>
      <point x="580" y="321"/>
    </contour>
    <contour>
      <point x="330" y="422" type="curve"/>
      <point x="258" y="422"/>
      <point x="186" y="422"/>
      <point x="114" y="422" type="curve"/>
      <point x="114" y="321"/>
      <point x="114" y="422"/>
      <point x="114" y="321" type="curve"/>
      <point x="186" y="321"/>
      <point x="258" y="321"/>
      <point x="330" y="321" type="curve"/>
      <point x="330" y="422"/>
      <point x="330" y="321"/>
    </contour>
    <contour>
      <point x="580" y="273" type="curve"/>
      <point x="425" y="273"/>
      <point x="270" y="273"/>
      <point x="114" y="273" type="curve"/>
      <point x="114" y="173"/>
      <point x="114" y="273"/>
      <point x="114" y="173" type="curve"/>
      <point x="270" y="173"/>
      <point x="425" y="173"/>
      <point x="580" y="173" type="curve"/>
      <point x="580" y="273"/>
      <point x="580" y="173"/>
    </contour>
    <contour>
      <point x="30" y="722" type="curve"/>
      <point x="107" y="600"/>
      <point x="203" y="461"/>
      <point x="280" y="337" type="curve"/>
      <point x="403" y="337"/>
      <point x="272" y="338"/>
      <point x="395" y="338" type="curve"/>
      <point x="317" y="467"/>
      <point x="240" y="593"/>
      <point x="161" y="722" type="curve"/>
      <point x="50" y="722"/>
      <point x="140" y="722"/>
    </contour>
    <contour>
      <point x="540" y="722" type="curve"/>
      <point x="455" y="592"/>
      <point x="373" y="467"/>
      <point x="288" y="338" type="curve"/>
      <point x="411" y="338"/>
      <point x="284" y="337"/>
      <point x="407" y="337" type="curve"/>
      <point x="488" y="461"/>
      <point x="583" y="599"/>
      <point x="665" y="722" type="curve"/>
      <point x="554" y="722"/>
      <point x="651" y="722"/>
    </contour>
    <contour>
      <point x="410" y="0" type="curve"/>
      <point x="410" y="115"/>
      <point x="410" y="228"/>
      <point x="410" y="343" type="curve"/>
      <point x="277" y="343"/>
      <point x="410" y="343"/>
      <point x="277" y="343" type="curve"/>
      <point x="277" y="228"/>
      <point x="277" y="115"/>
      <point x="277" y="0" type="curve"/>
      <point x="410" y="0"/>
      <point x="277" y="0"/>
    </contour>
  </outline>
</glyph>
<glyph name="section" format="1">
  <advance width="539"/>
  <unicode hex="00A7"/>
  <outline>
    <contour>
      <point x="445" y="703" type="curve"/>
      <point x="385" y="734"/>
      <point x="340" y="749"/>
      <point x="274" y="749" type="curve"/>
      <point x="158" y="749"/>
      <point x="76" y="702"/>
      <point x="76" y="601" type="curve"/>
      <point x="76" y="511"/>
      <point x="139" y="467"/>
      <point x="228" y="438" type="curve"/>
      <point x="299" y="417"/>
      <point x="381" y="414"/>
      <point x="381" y="357" type="curve"/>
      <point x="381" y="302"/>
      <point x="334" y="281"/>
      <point x="272" y="270" type="curve"/>
      <point x="343" y="197"/>
      <point x="272" y="270"/>
      <point x="343" y="197" type="curve"/>
      <point x="439" y="218"/>
      <point x="502" y="267"/>
      <point x="502" y="361" type="curve"/>
      <point x="501" y="470"/>
      <point x="401" y="494"/>
      <point x="289" y="525" type="curve"/>
      <point x="240" y="540"/>
      <point x="193" y="555"/>
      <point x="193" y="601" type="curve"/>
      <point x="193" y="639"/>
      <point x="224" y="658"/>
      <point x="268" y="658" type="curve"/>
      <point x="317" y="658"/>
      <point x="347" y="648"/>
      <point x="394" y="626" type="curve"/>
      <point x="445" y="703"/>
      <point x="394" y="626"/>
    </contour>
    <contour>
      <point x="195" y="525" type="curve"/>
      <point x="104" y="500"/>
      <point x="40" y="457"/>
      <point x="40" y="366" type="curve"/>
      <point x="40" y="263"/>
      <point x="125" y="229"/>
      <point x="231" y="200" type="curve"/>
      <point x="289" y="182"/>
      <point x="353" y="172"/>
      <point x="353" y="123" type="curve"/>
      <point x="353" y="83"/>
      <point x="318" y="64"/>
      <point x="272" y="64" type="curve"/>
      <point x="218" y="64"/>
      <point x="184" y="78"/>
      <point x="131" y="105" type="curve"/>
      <point x="71" y="35"/>
      <point x="131" y="105"/>
      <point x="71" y="35" type="curve"/>
      <point x="137" y="-9"/>
      <point x="191" y="-27"/>
      <point x="268" y="-27" type="curve"/>
      <point x="384" y="-27"/>
      <point x="472" y="18"/>
      <point x="472" y="126" type="curve"/>
      <point x="470" y="218"/>
      <point x="401" y="260"/>
      <point x="308" y="286" type="curve"/>
      <point x="238" y="307"/>
      <point x="161" y="312"/>
      <point x="161" y="371" type="curve"/>
      <point x="161" y="421"/>
      <point x="201" y="441"/>
      <point x="255" y="457" type="curve"/>
      <point x="195" y="525"/>
      <point x="255" y="457"/>
    </contour>
  </outline>
</glyph>
<glyph name="dieresis" format="1">
  <advance width="421"/>
  <unicode hex="00A8"/>
  <outline>
    <contour>
      <point x="177" y="629" type="curve"/>
      <point x="177" y="669"/>
      <point x="148" y="689"/>
      <point x="108" y="689" type="curve"/>
      <point x="67" y="689"/>
      <point x="40" y="667"/>
      <point x="40" y="629" type="curve"/>
      <point x="174" y="629"/>
      <point x="43" y="629"/>
      <point x="177" y="629" type="curve"/>
      <point x="177" y="588"/>
      <point x="148" y="569"/>
      <point x="107" y="569" type="curve"/>
      <point x="67" y="569"/>
      <point x="40" y="589"/>
      <point x="40" y="629" type="curve"/>
      <point x="174" y="629"/>
      <point x="43" y="629"/>
    </contour>
    <contour>
      <point x="376" y="629" type="curve"/>
      <point x="376" y="669"/>
      <point x="346" y="689"/>
      <point x="306" y="689" type="curve"/>
      <point x="266" y="689"/>
      <point x="238" y="667"/>
      <point x="238" y="629" type="curve"/>
      <point x="373" y="629"/>
      <point x="242" y="629"/>
      <point x="376" y="629" type="curve"/>
      <point x="376" y="588"/>
      <point x="346" y="569"/>
      <point x="306" y="569" type="curve"/>
      <point x="265" y="569"/>
      <point x="238" y="589"/>
      <point x="238" y="629" type="curve"/>
      <point x="373" y="629"/>
      <point x="242" y="629"/>
    </contour>
    <contour>
      <point x="208" y="573" type="move" name="_top"/>
    </contour>
  </outline>
</glyph>
<glyph name="copyright" format="1">
  <advance width="819"/>
  <unicode hex="00A9"/>
  <outline>
    <contour>
      <point x="141" y="323" type="curve"/>
      <point x="141" y="478"/>
      <point x="253" y="571"/>
      <point x="412" y="571" type="curve"/>
      <point x="566" y="571"/>
      <point x="676" y="475"/>
      <point x="676" y="321" type="curve"/>
      <point x="676" y="172"/>
      <point x="570" y="78"/>
      <point x="420" y="78" type="curve"/>
      <point x="261" y="78"/>
      <point x="141" y="168"/>
      <point x="141" y="323" type="curve"/>
      <point x="43" y="323"/>
      <point x="142" y="323"/>
      <point x="44" y="323" type="curve"/>
      <point x="44" y="121"/>
      <point x="203" y="4"/>
      <point x="416" y="4" type="curve"/>
      <point x="621" y="4"/>
      <point x="772" y="125"/>
      <point x="772" y="325" type="curve"/>
      <point x="772" y="525"/>
      <point x="619" y="645"/>
      <point x="412" y="645" type="curve"/>
      <point x="201" y="645"/>
      <point x="44" y="527"/>
      <point x="44" y="323" type="curve"/>
      <point x="142" y="323"/>
      <point x="43" y="323"/>
    </contour>
    <contour>
      <point x="566" y="454" type="curve"/>
      <point x="526" y="491"/>
      <point x="476" y="510"/>
      <point x="418" y="510" type="curve"/>
      <point x="293" y="510"/>
      <point x="212" y="442"/>
      <point x="212" y="322" type="curve"/>
      <point x="212" y="207"/>
      <point x="285" y="140"/>
      <point x="402" y="140" type="curve"/>
      <point x="468" y="140"/>
      <point x="515" y="151"/>
      <point x="566" y="193" type="curve"/>
      <point x="517" y="247"/>
      <point x="566" y="193"/>
      <point x="517" y="247" type="curve"/>
      <point x="477" y="223"/>
      <point x="447" y="214"/>
      <point x="406" y="214" type="curve"/>
      <point x="340" y="214"/>
      <point x="307" y="258"/>
      <point x="307" y="326" type="curve"/>
      <point x="307" y="394"/>
      <point x="345" y="435"/>
      <point x="414" y="435" type="curve"/>
      <point x="443" y="435"/>
      <point x="475" y="429"/>
      <point x="511" y="408" type="curve"/>
      <point x="568" y="455"/>
      <point x="508" y="406"/>
    </contour>
  </outline>
</glyph>
<glyph name="ordfeminine" format="1">
  <advance width="422"/>
  <unicode hex="00AA"/>
  <outline>
    <contour>
      <point x="363" y="426" type="curve"/>
      <point x="363" y="510"/>
      <point x="363" y="585"/>
      <point x="363" y="669" type="curve"/>
      <point x="363" y="751"/>
      <point x="296" y="776"/>
      <point x="210" y="776" type="curve"/>
      <point x="146" y="776"/>
      <point x="98" y="756"/>
      <point x="61" y="726" type="curve"/>
      <point x="90" y="676"/>
      <point x="65" y="722"/>
      <point x="95" y="672" type="curve"/>
      <point x="118" y="692"/>
      <point x="152" y="713"/>
      <point x="199" y="713" type="curve"/>
      <point x="245" y="713"/>
      <point x="281" y="699"/>
      <point x="281" y="657" type="curve"/>
      <point x="281" y="577"/>
      <point x="281" y="505"/>
      <point x="281" y="426" type="curve"/>
      <point x="359" y="426"/>
      <point x="285" y="426"/>
    </contour>
    <contour>
      <point x="320" y="649" type="curve"/>
      <point x="267" y="644"/>
      <point x="234" y="642"/>
      <point x="181" y="636" type="curve"/>
      <point x="100" y="626"/>
      <point x="41" y="604"/>
      <point x="41" y="529" type="curve"/>
      <point x="41" y="456"/>
      <point x="93" y="422"/>
      <point x="172" y="422" type="curve"/>
      <point x="250" y="422"/>
      <point x="288" y="466"/>
      <point x="341" y="523" type="curve"/>
      <point x="303" y="554"/>
      <point x="338" y="525"/>
      <point x="301" y="556" type="curve"/>
      <point x="268" y="515"/>
      <point x="238" y="483"/>
      <point x="188" y="483" type="curve"/>
      <point x="147" y="483"/>
      <point x="121" y="497"/>
      <point x="121" y="531" type="curve"/>
      <point x="121" y="563"/>
      <point x="148" y="576"/>
      <point x="180" y="580" type="curve"/>
      <point x="236" y="586"/>
      <point x="267" y="590"/>
      <point x="323" y="597" type="curve"/>
      <point x="320" y="646"/>
      <point x="323" y="600"/>
    </contour>
  </outline>
</glyph>
<glyph name="guillemotleft" format="1">
  <advance width="570"/>
  <unicode hex="00AB"/>
  <outline>
    <contour>
      <point x="263" y="464" type="curve"/>
      <point x="219" y="438"/>
      <point x="83" y="365"/>
      <point x="38" y="339" type="curve"/>
      <point x="38" y="238"/>
      <point x="38" y="331"/>
      <point x="38" y="231" type="curve"/>
      <point x="83" y="257"/>
      <point x="219" y="334"/>
      <point x="263" y="361" type="curve"/>
      <point x="263" y="461"/>
      <point x="263" y="364"/>
    </contour>
    <contour>
      <point x="263" y="211" type="curve"/>
      <point x="219" y="237"/>
      <point x="83" y="312"/>
      <point x="38" y="339" type="curve"/>
      <point x="38" y="238"/>
      <point x="38" y="331"/>
      <point x="38" y="231" type="curve"/>
      <point x="83" y="205"/>
      <point x="219" y="133"/>
      <point x="263" y="107" type="curve"/>
      <point x="263" y="207"/>
      <point x="263" y="111"/>
    </contour>
    <contour>
      <point x="509" y="464" type="curve"/>
      <point x="464" y="438"/>
      <point x="329" y="365"/>
      <point x="284" y="339" type="curve"/>
      <point x="284" y="238"/>
      <point x="284" y="331"/>
      <point x="284" y="231" type="curve"/>
      <point x="329" y="257"/>
      <point x="464" y="334"/>
      <point x="509" y="361" type="curve"/>
      <point x="509" y="461"/>
      <point x="509" y="364"/>
    </contour>
    <contour>
      <point x="509" y="211" type="curve"/>
      <point x="464" y="237"/>
      <point x="329" y="312"/>
      <point x="284" y="339" type="curve"/>
      <point x="284" y="238"/>
      <point x="284" y="331"/>
      <point x="284" y="231" type="curve"/>
      <point x="329" y="205"/>
      <point x="464" y="133"/>
      <point x="509" y="107" type="curve"/>
      <point x="509" y="207"/>
      <point x="509" y="111"/>
    </contour>
  </outline>
</glyph>
<glyph name="logicalnot" format="1">
  <advance width="653"/>
  <unicode hex="00AC"/>
  <outline>
    <contour>
      <point x="62" y="263" type="curve"/>
      <point x="587" y="263" type="line"/>
      <point x="587" y="363"/>
      <point x="587" y="263"/>
      <point x="587" y="363" type="curve"/>
      <point x="62" y="363" type="line"/>
      <point x="62" y="263"/>
      <point x="62" y="363"/>
    </contour>
    <contour>
      <point x="587" y="142" type="curve"/>
      <point x="587" y="363" type="line"/>
      <point x="466" y="363"/>
      <point x="591" y="363"/>
      <point x="471" y="363" type="curve"/>
      <point x="471" y="142" type="line"/>
      <point x="591" y="142"/>
      <point x="466" y="142"/>
    </contour>
  </outline>
</glyph>
<glyph name="registered" format="1">
  <advance width="821"/>
  <unicode hex="00AE"/>
  <outline>
    <contour>
      <point x="134" y="322" type="curve"/>
      <point x="134" y="487"/>
      <point x="247" y="578"/>
      <point x="414" y="578" type="curve"/>
      <point x="579" y="578"/>
      <point x="688" y="484"/>
      <point x="688" y="320" type="curve"/>
      <point x="688" y="161"/>
      <point x="583" y="69"/>
      <point x="422" y="69" type="curve"/>
      <point x="252" y="69"/>
      <point x="134" y="157"/>
      <point x="134" y="322" type="curve"/>
      <point x="98" y="322"/>
      <point x="83" y="322"/>
      <point x="47" y="322" type="curve"/>
      <point x="47" y="113"/>
      <point x="200" y="3"/>
      <point x="418" y="3" type="curve"/>
      <point x="630" y="3"/>
      <point x="774" y="117"/>
      <point x="774" y="324" type="curve"/>
      <point x="774" y="532"/>
      <point x="628" y="644"/>
      <point x="414" y="644" type="curve"/>
      <point x="197" y="644"/>
      <point x="47" y="533"/>
      <point x="47" y="322" type="curve"/>
      <point x="83" y="322"/>
      <point x="98" y="322"/>
    </contour>
    <contour>
      <point x="375" y="316" type="curve"/>
      <point x="396" y="287"/>
      <point x="459" y="172"/>
      <point x="480" y="143" type="curve"/>
      <point x="532" y="143"/>
      <point x="516" y="142"/>
      <point x="575" y="142" type="curve"/>
      <point x="554" y="173"/>
      <point x="493" y="281"/>
      <point x="472" y="312" type="curve"/>
      <point x="363" y="312"/>
      <point x="484" y="316"/>
    </contour>
    <contour>
      <point x="376" y="143" type="curve"/>
      <point x="376" y="252"/>
      <point x="376" y="395"/>
      <point x="376" y="504" type="curve"/>
      <point x="319" y="504"/>
      <point x="341" y="505"/>
      <point x="282" y="505" type="curve"/>
      <point x="282" y="396"/>
      <point x="282" y="252"/>
      <point x="282" y="143" type="curve"/>
      <point x="343" y="143"/>
      <point x="315" y="143"/>
    </contour>
    <contour>
      <point x="333" y="275" type="curve"/>
      <point x="353" y="275"/>
      <point x="373" y="275"/>
      <point x="393" y="275" type="curve"/>
      <point x="487" y="275"/>
      <point x="555" y="303"/>
      <point x="555" y="392" type="curve"/>
      <point x="555" y="469"/>
      <point x="495" y="505"/>
      <point x="414" y="505" type="curve"/>
      <point x="403" y="505"/>
      <point x="351" y="505"/>
      <point x="340" y="505" type="curve"/>
      <point x="282" y="445"/>
      <point x="380" y="505"/>
      <point x="282" y="431" type="curve"/>
      <point x="320" y="431"/>
      <point x="358" y="431"/>
      <point x="396" y="431" type="curve"/>
      <point x="433" y="431"/>
      <point x="462" y="422"/>
      <point x="462" y="388" type="curve"/>
      <point x="462" y="357"/>
      <point x="439" y="348"/>
      <point x="407" y="348" type="curve"/>
      <point x="382" y="348"/>
      <point x="357" y="348"/>
      <point x="333" y="348" type="curve"/>
      <point x="333" y="275"/>
      <point x="333" y="348"/>
    </contour>
  </outline>
</glyph>
<glyph name="macron" format="1">
  <advance width="348"/>
  <unicode hex="00AF"/>
  <outline>
    <contour>
      <point x="263" y="672" type="curve"/>
      <point x="184" y="672"/>
      <point x="106" y="672"/>
      <point x="28" y="672" type="curve"/>
      <point x="28" y="581"/>
      <point x="28" y="672"/>
      <point x="28" y="581" type="curve"/>
      <point x="106" y="581"/>
      <point x="184" y="581"/>
      <point x="263" y="581" type="curve"/>
      <point x="263" y="672"/>
      <point x="263" y="581"/>
    </contour>
    <contour>
      <point x="147" y="581" type="move" name="_top"/>
    </contour>
  </outline>
</glyph>
<glyph name="degree" format="1">
  <advance width="489"/>
  <unicode hex="00B0"/>
  <outline>
    <contour>
      <point x="449" y="521" type="curve"/>
      <point x="449" y="644"/>
      <point x="369" y="718"/>
      <point x="245" y="718" type="curve"/>
      <point x="120" y="718"/>
      <point x="40" y="645"/>
      <point x="40" y="522" type="curve"/>
      <point x="118" y="522"/>
      <point x="66" y="522"/>
      <point x="144" y="522" type="curve"/>
      <point x="144" y="587"/>
      <point x="178" y="632"/>
      <point x="243" y="632" type="curve"/>
      <point x="307" y="632"/>
      <point x="344" y="588"/>
      <point x="344" y="521" type="curve"/>
      <point x="344" y="453"/>
      <point x="310" y="407"/>
      <point x="245" y="407" type="curve"/>
      <point x="179" y="407"/>
      <point x="144" y="454"/>
      <point x="144" y="522" type="curve"/>
      <point x="66" y="522"/>
      <point x="118" y="522"/>
      <point x="40" y="522" type="curve"/>
      <point x="40" y="397"/>
      <point x="118" y="320"/>
      <point x="243" y="320" type="curve"/>
      <point x="369" y="320"/>
      <point x="449" y="396"/>
    </contour>
  </outline>
</glyph>
<glyph name="plusminus" format="1">
  <advance width="666"/>
  <unicode hex="00B1"/>
  <outline>
    <contour>
      <point x="51" y="32" type="line"/>
      <point x="615" y="32" type="line"/>
      <point x="615" y="132" type="line"/>
      <point x="51" y="132" type="line"/>
    </contour>
    <contour>
      <point x="51" y="263" type="curve"/>
      <point x="615" y="263" type="line"/>
      <point x="615" y="363"/>
      <point x="615" y="263"/>
      <point x="615" y="363" type="curve"/>
      <point x="51" y="363" type="line"/>
      <point x="51" y="263"/>
      <point x="51" y="363"/>
    </contour>
    <contour>
      <point x="391" y="32" type="curve"/>
      <point x="391" y="584" type="line"/>
      <point x="270" y="584"/>
      <point x="398" y="584"/>
      <point x="278" y="584" type="curve"/>
      <point x="278" y="32" type="line"/>
      <point x="398" y="32"/>
      <point x="270" y="32"/>
    </contour>
  </outline>
</glyph>
<glyph name="twosuperior" format="1">
  <advance width="479"/>
  <unicode hex="00B2"/>
  <outline>
    <contour>
      <point x="42" y="312" type="curve"/>
      <point x="191" y="312"/>
      <point x="317" y="312"/>
      <point x="430" y="312" type="curve"/>
      <point x="430" y="357"/>
      <point x="430" y="354"/>
      <point x="430" y="395" type="curve"/>
      <point x="305" y="395"/>
      <point x="167" y="395"/>
      <point x="42" y="395" type="curve"/>
      <point x="42" y="312"/>
      <point x="42" y="395"/>
    </contour>
    <contour>
      <point x="133" y="610" type="curve"/>
      <point x="159" y="645"/>
      <point x="184" y="665"/>
      <point x="225" y="665" type="curve"/>
      <point x="268" y="665"/>
      <point x="298" y="646"/>
      <point x="298" y="608" type="curve"/>
      <point x="298" y="570"/>
      <point x="269" y="551"/>
      <point x="239" y="527" type="curve"/>
      <point x="173" y="483"/>
      <point x="108" y="439"/>
      <point x="42" y="395" type="curve"/>
      <point x="45" y="314"/>
      <point x="44" y="395"/>
      <point x="47" y="314" type="curve"/>
      <point x="142" y="370"/>
      <point x="230" y="414"/>
      <point x="300" y="462" type="curve"/>
      <point x="358" y="508"/>
      <point x="407" y="541"/>
      <point x="407" y="612" type="curve"/>
      <point x="407" y="705"/>
      <point x="334" y="749"/>
      <point x="235" y="749" type="curve"/>
      <point x="155" y="749"/>
      <point x="94" y="722"/>
      <point x="57" y="652" type="curve"/>
      <point x="133" y="610"/>
      <point x="57" y="652"/>
    </contour>
    <contour>
      <point x="233" y="749" type="move" name="_top"/>
    </contour>
    <contour>
      <point x="235" y="312" type="move" name="_bottom"/>
    </contour>
  </outline>
</glyph>
<glyph name="threesuperior" format="1">
  <advance width="424"/>
  <unicode hex="00B3"/>
  <outline>
    <contour>
      <point x="95" y="630" type="curve"/>
      <point x="123" y="653"/>
      <point x="154" y="665"/>
      <point x="182" y="665" type="curve"/>
      <point x="224" y="665"/>
      <point x="255" y="652"/>
      <point x="255" y="616" type="curve"/>
      <point x="255" y="574"/>
      <point x="196" y="567"/>
      <point x="139" y="565" type="curve"/>
      <point x="139" y="495"/>
      <point x="139" y="565"/>
      <point x="139" y="495" type="curve"/>
      <point x="260" y="497"/>
      <point x="366" y="518"/>
      <point x="366" y="622" type="curve"/>
      <point x="366" y="713"/>
      <point x="292" y="747"/>
      <point x="194" y="747" type="curve"/>
      <point x="135" y="747"/>
      <point x="81" y="724"/>
      <point x="41" y="687" type="curve"/>
      <point x="95" y="630"/>
      <point x="41" y="687"/>
    </contour>
    <contour>
      <point x="39" y="342" type="curve"/>
      <point x="82" y="319"/>
      <point x="125" y="305"/>
      <point x="173" y="305" type="curve"/>
      <point x="292" y="302"/>
      <point x="384" y="335"/>
      <point x="382" y="440" type="curve"/>
      <point x="382" y="550"/>
      <point x="265" y="553"/>
      <point x="139" y="556" type="curve"/>
      <point x="139" y="494"/>
      <point x="139" y="556"/>
      <point x="139" y="494" type="curve"/>
      <point x="208" y="491"/>
      <point x="271" y="484"/>
      <point x="271" y="438" type="curve"/>
      <point x="271" y="397"/>
      <point x="233" y="383"/>
      <point x="184" y="384" type="curve"/>
      <point x="153" y="384"/>
      <point x="123" y="391"/>
      <point x="86" y="406" type="curve"/>
      <point x="39" y="342"/>
      <point x="86" y="406"/>
    </contour>
    <contour>
      <point x="207" y="747" type="move" name="_top"/>
    </contour>
    <contour>
      <point x="197" y="305" type="move" name="_bottom"/>
    </contour>
  </outline>
</glyph>
<glyph name="acute" format="1">
  <advance width="254"/>
  <unicode hex="00B4"/>
  <outline>
    <contour>
      <point x="83" y="589" type="line"/>
      <point x="239" y="755" type="line"/>
      <point x="84" y="755" type="line"/>
      <point x="-35" y="589" type="line"/>
    </contour>
    <contour>
      <point x="31" y="590" type="move" name="_top"/>
    </contour>
  </outline>
</glyph>
<glyph name="paragraph" format="1">
  <advance width="817"/>
  <unicode hex="00B6"/>
  <outline>
    <contour>
      <point x="468" y="631" type="curve"/>
      <point x="636" y="631"/>
      <point x="468" y="631"/>
      <point x="636" y="631" type="curve"/>
      <point x="636" y="722"/>
      <point x="636" y="631"/>
      <point x="636" y="722" type="curve"/>
      <point x="580" y="722"/>
      <point x="524" y="722"/>
      <point x="468" y="722" type="curve"/>
      <point x="468" y="631"/>
      <point x="468" y="722"/>
    </contour>
    <contour>
      <point x="447" y="380" type="curve"/>
      <point x="396" y="357"/>
      <point x="357" y="344"/>
      <point x="300" y="344" type="curve"/>
      <point x="212" y="344"/>
      <point x="152" y="391"/>
      <point x="152" y="478" type="curve"/>
      <point x="152" y="581"/>
      <point x="232" y="631"/>
      <point x="341" y="631" type="curve"/>
      <point x="383" y="631"/>
      <point x="424" y="631"/>
      <point x="465" y="631" type="curve"/>
      <point x="465" y="722"/>
      <point x="465" y="631"/>
      <point x="465" y="722" type="curve"/>
      <point x="418" y="722"/>
      <point x="372" y="722"/>
      <point x="325" y="722" type="curve"/>
      <point x="156" y="722"/>
      <point x="31" y="641"/>
      <point x="31" y="482" type="curve"/>
      <point x="31" y="330"/>
      <point x="150" y="257"/>
      <point x="311" y="255" type="curve"/>
      <point x="375" y="255"/>
      <point x="428" y="275"/>
      <point x="486" y="300" type="curve"/>
      <point x="447" y="380"/>
      <point x="485" y="301"/>
    </contour>
    <contour>
      <point x="530" y="0" type="curve"/>
      <point x="530" y="241"/>
      <point x="530" y="481"/>
      <point x="530" y="722" type="curve"/>
      <point x="409" y="722"/>
      <point x="530" y="722"/>
      <point x="409" y="722" type="curve"/>
      <point x="409" y="481"/>
      <point x="409" y="241"/>
      <point x="409" y="0" type="curve"/>
      <point x="530" y="0"/>
      <point x="409" y="0"/>
    </contour>
    <contour>
      <point x="748" y="0" type="curve"/>
      <point x="748" y="241"/>
      <point x="748" y="481"/>
      <point x="748" y="722" type="curve"/>
      <point x="627" y="722"/>
      <point x="748" y="722"/>
      <point x="627" y="722" type="curve"/>
      <point x="627" y="481"/>
      <point x="627" y="241"/>
      <point x="627" y="0" type="curve"/>
      <point x="748" y="0"/>
      <point x="627" y="0"/>
    </contour>
  </outline>
</glyph>
<glyph name="periodcentered" format="1">
  <advance width="233"/>
  <unicode hex="00B7"/>
  <outline>
    <contour>
      <point x="185" y="440" type="curve"/>
      <point x="185" y="481"/>
      <point x="156" y="500"/>
      <point x="115" y="500" type="curve"/>
      <point x="75" y="500"/>
      <point x="48" y="479"/>
      <point x="48" y="440" type="curve"/>
      <point x="182" y="440"/>
      <point x="51" y="440"/>
      <point x="185" y="440" type="curve"/>
      <point x="185" y="399"/>
      <point x="156" y="380"/>
      <point x="115" y="380" type="curve"/>
      <point x="74" y="380"/>
      <point x="48" y="401"/>
      <point x="48" y="440" type="curve"/>
      <point x="182" y="440"/>
      <point x="51" y="440"/>
    </contour>
  </outline>
</glyph>
<glyph name="cedilla" format="1">
  <advance width="331"/>
  <unicode hex="00B8"/>
  <outline>
    <contour>
      <point x="147" y="136" type="curve"/>
      <point x="133" y="114"/>
      <point x="81" y="31"/>
      <point x="67" y="8" type="curve"/>
      <point x="150" y="-65"/>
      <point x="67" y="8"/>
      <point x="150" y="-65" type="curve"/>
      <point x="167" y="-39"/>
      <point x="224" y="47"/>
      <point x="240" y="73" type="curve"/>
      <point x="147" y="136"/>
      <point x="240" y="73"/>
    </contour>
    <contour>
      <point x="150" y="-65" type="curve"/>
      <point x="157" y="-60"/>
      <point x="163" y="-57"/>
      <point x="172" y="-57" type="curve"/>
      <point x="186" y="-57"/>
      <point x="196" y="-65"/>
      <point x="196" y="-79" type="curve"/>
      <point x="196" y="-98"/>
      <point x="179" y="-105"/>
      <point x="158" y="-105" type="curve"/>
      <point x="134" y="-105"/>
      <point x="114" y="-99"/>
      <point x="87" y="-86" type="curve"/>
      <point x="49" y="-155"/>
      <point x="87" y="-86"/>
      <point x="49" y="-155" type="curve"/>
      <point x="83" y="-173"/>
      <point x="113" y="-181"/>
      <point x="153" y="-181" type="curve"/>
      <point x="233" y="-181"/>
      <point x="293" y="-152"/>
      <point x="293" y="-77" type="curve"/>
      <point x="293" y="-7"/>
      <point x="243" y="30"/>
      <point x="171" y="30" type="curve"/>
      <point x="132" y="30"/>
      <point x="104" y="23"/>
      <point x="67" y="8" type="curve"/>
      <point x="150" y="-65"/>
      <point x="67" y="8"/>
    </contour>
    <contour>
      <point x="225" y="73" type="move" name="_bottom"/>
    </contour>
  </outline>
</glyph>
<glyph name="onesuperior" format="1">
  <advance width="310"/>
  <unicode hex="00B9"/>
  <outline>
    <contour>
      <point x="66" y="577" type="line"/>
      <point x="246" y="737" type="line"/>
      <point x="135" y="740" type="line"/>
      <point x="13" y="638" type="line"/>
    </contour>
    <contour>
      <point x="246" y="312" type="curve"/>
      <point x="246" y="740" type="line"/>
      <point x="135" y="740" type="line"/>
      <point x="135" y="312" type="line"/>
      <point x="214" y="312"/>
      <point x="171" y="312"/>
    </contour>
    <contour>
      <point x="182" y="738" type="move" name="_top"/>
    </contour>
    <contour>
      <point x="192" y="313" type="move" name="_bottom"/>
    </contour>
  </outline>
</glyph>
<glyph name="ordmasculine" format="1">
  <advance width="447"/>
  <unicode hex="00BA"/>
  <outline>
    <contour>
      <point x="118" y="601" type="curve"/>
      <point x="118" y="668"/>
      <point x="153" y="714"/>
      <point x="221" y="714" type="curve"/>
      <point x="290" y="714"/>
      <point x="327" y="668"/>
      <point x="327" y="600" type="curve"/>
      <point x="327" y="529"/>
      <point x="292" y="484"/>
      <point x="227" y="484" type="curve"/>
      <point x="155" y="484"/>
      <point x="118" y="529"/>
      <point x="118" y="601" type="curve"/>
      <point x="70" y="601"/>
      <point x="86" y="601"/>
      <point x="38" y="601" type="curve"/>
      <point x="38" y="486"/>
      <point x="109" y="420"/>
      <point x="223" y="420" type="curve"/>
      <point x="338" y="420"/>
      <point x="410" y="485"/>
      <point x="410" y="600" type="curve"/>
      <point x="410" y="711"/>
      <point x="340" y="777"/>
      <point x="224" y="777" type="curve"/>
      <point x="108" y="777"/>
      <point x="38" y="711"/>
      <point x="38" y="601" type="curve"/>
      <point x="86" y="601"/>
      <point x="70" y="601"/>
    </contour>
  </outline>
</glyph>
<glyph name="onequarter" format="1">
  <advance width="1013"/>
  <unicode hex="00BC"/>
  <outline>
    <contour>
      <point x="342" y="-48" type="line"/>
      <point x="787" y="718" type="line"/>
      <point x="675" y="718" type="line"/>
      <point x="231" y="-48" type="line"/>
    </contour>
    <contour>
      <point x="78" y="556" type="line"/>
      <point x="257" y="716" type="line"/>
      <point x="147" y="719" type="line"/>
      <point x="24" y="617" type="line"/>
    </contour>
    <contour>
      <point x="257" y="292" type="curve"/>
      <point x="257" y="719" type="line"/>
      <point x="147" y="719" type="line"/>
      <point x="147" y="292" type="line"/>
      <point x="226" y="292"/>
      <point x="182" y="292"/>
    </contour>
    <contour>
      <point x="980" y="155" type="line"/>
      <point x="583" y="155" type="line"/>
      <point x="583" y="75" type="line"/>
      <point x="980" y="75" type="line"/>
    </contour>
    <contour>
      <point x="614" y="83" type="line"/>
      <point x="872" y="381" type="line"/>
      <point x="788" y="396" type="line"/>
      <point x="583" y="155" type="line"/>
    </contour>
    <contour>
      <point x="898" y="-49" type="line"/>
      <point x="898" y="396" type="line"/>
      <point x="788" y="396" type="line"/>
      <point x="788" y="-49" type="line"/>
    </contour>
  </outline>
</glyph>
<glyph name="onehalf" format="1">
  <advance width="1082"/>
  <unicode hex="00BD"/>
  <outline>
    <contour>
      <point x="359" y="-48" type="line"/>
      <point x="803" y="718" type="line"/>
      <point x="691" y="718" type="line"/>
      <point x="247" y="-48" type="line"/>
    </contour>
    <contour>
      <point x="78" y="556" type="line"/>
      <point x="257" y="716" type="line"/>
      <point x="147" y="719" type="line"/>
      <point x="24" y="617" type="line"/>
    </contour>
    <contour>
      <point x="257" y="292" type="curve"/>
      <point x="257" y="719" type="line"/>
      <point x="147" y="719" type="line"/>
      <point x="147" y="292" type="line"/>
      <point x="226" y="292"/>
      <point x="182" y="292"/>
    </contour>
    <contour>
      <point x="658" y="-49" type="curve"/>
      <point x="806" y="-49"/>
      <point x="932" y="-49"/>
      <point x="1046" y="-49" type="curve"/>
      <point x="1046" y="-4"/>
      <point x="1046" y="-7"/>
      <point x="1046" y="34" type="curve"/>
      <point x="921" y="34"/>
      <point x="782" y="34"/>
      <point x="658" y="34" type="curve"/>
      <point x="658" y="-49"/>
      <point x="658" y="34"/>
    </contour>
    <contour>
      <point x="749" y="249" type="curve"/>
      <point x="774" y="284"/>
      <point x="799" y="304"/>
      <point x="841" y="304" type="curve"/>
      <point x="884" y="304"/>
      <point x="913" y="285"/>
      <point x="913" y="247" type="curve"/>
      <point x="913" y="208"/>
      <point x="884" y="190"/>
      <point x="854" y="166" type="curve"/>
      <point x="788" y="122"/>
      <point x="723" y="78"/>
      <point x="658" y="34" type="curve"/>
      <point x="660" y="-47"/>
      <point x="660" y="34"/>
      <point x="662" y="-47" type="curve"/>
      <point x="757" y="9"/>
      <point x="845" y="53"/>
      <point x="915" y="101" type="curve"/>
      <point x="974" y="147"/>
      <point x="1022" y="180"/>
      <point x="1022" y="251" type="curve"/>
      <point x="1022" y="344"/>
      <point x="950" y="388"/>
      <point x="851" y="388" type="curve"/>
      <point x="770" y="388"/>
      <point x="709" y="361"/>
      <point x="672" y="291" type="curve"/>
      <point x="749" y="249"/>
      <point x="672" y="291"/>
    </contour>
  </outline>
</glyph>
<glyph name="threequarters" format="1">
  <advance width="1026"/>
  <unicode hex="00BE"/>
  <outline>
    <contour>
      <point x="368" y="-48" type="line"/>
      <point x="812" y="718" type="line"/>
      <point x="701" y="718" type="line"/>
      <point x="257" y="-48" type="line"/>
    </contour>
    <contour>
      <point x="91" y="600" type="curve"/>
      <point x="119" y="623"/>
      <point x="150" y="635"/>
      <point x="179" y="635" type="curve"/>
      <point x="221" y="635"/>
      <point x="252" y="622"/>
      <point x="252" y="587" type="curve"/>
      <point x="252" y="545"/>
      <point x="192" y="537"/>
      <point x="135" y="535" type="curve"/>
      <point x="135" y="465"/>
      <point x="135" y="535"/>
      <point x="135" y="465" type="curve"/>
      <point x="257" y="467"/>
      <point x="362" y="489"/>
      <point x="362" y="593" type="curve"/>
      <point x="362" y="683"/>
      <point x="288" y="717"/>
      <point x="190" y="717" type="curve"/>
      <point x="131" y="717"/>
      <point x="77" y="695"/>
      <point x="38" y="658" type="curve"/>
      <point x="91" y="600"/>
      <point x="38" y="658"/>
    </contour>
    <contour>
      <point x="35" y="313" type="curve"/>
      <point x="79" y="290"/>
      <point x="121" y="275"/>
      <point x="170" y="275" type="curve"/>
      <point x="289" y="273"/>
      <point x="381" y="305"/>
      <point x="379" y="410" type="curve"/>
      <point x="379" y="521"/>
      <point x="262" y="523"/>
      <point x="135" y="526" type="curve"/>
      <point x="135" y="464"/>
      <point x="135" y="526"/>
      <point x="135" y="464" type="curve"/>
      <point x="204" y="462"/>
      <point x="268" y="455"/>
      <point x="268" y="409" type="curve"/>
      <point x="267" y="368"/>
      <point x="229" y="354"/>
      <point x="180" y="355" type="curve"/>
      <point x="149" y="355"/>
      <point x="119" y="361"/>
      <point x="83" y="377" type="curve"/>
      <point x="35" y="313"/>
      <point x="83" y="377"/>
    </contour>
    <contour>
      <point x="998" y="155" type="line"/>
      <point x="601" y="155" type="line"/>
      <point x="601" y="75" type="line"/>
      <point x="998" y="75" type="line"/>
    </contour>
    <contour>
      <point x="632" y="83" type="line"/>
      <point x="890" y="381" type="line"/>
      <point x="806" y="396" type="line"/>
      <point x="601" y="155" type="line"/>
    </contour>
    <contour>
      <point x="916" y="-49" type="line"/>
      <point x="916" y="396" type="line"/>
      <point x="806" y="396" type="line"/>
      <point x="806" y="-49" type="line"/>
    </contour>
  </outline>
</glyph>
<glyph name="questiondown" format="1">
  <advance width="546"/>
  <unicode hex="00BF"/>
  <outline>
    <contour>
      <point x="351" y="347" type="curve"/>
      <point x="351" y="384"/>
      <point x="351" y="459"/>
      <point x="351" y="496" type="curve"/>
      <point x="235" y="496"/>
      <point x="351" y="496"/>
      <point x="235" y="496" type="curve"/>
      <point x="235" y="459"/>
      <point x="235" y="384"/>
      <point x="235" y="347" type="curve"/>
      <point x="351" y="347"/>
      <point x="235" y="347"/>
    </contour>
    <contour>
      <point x="442" y="134" type="line"/>
      <point x="406" y="98"/>
      <point x="356" y="70"/>
      <point x="295" y="70" type="curve"/>
      <point x="209" y="70"/>
      <point x="150" y="115"/>
      <point x="150" y="199" type="curve"/>
      <point x="150" y="294"/>
      <point x="228" y="347"/>
      <point x="339" y="347" type="curve"/>
      <point x="339" y="382"/>
      <point x="339" y="403"/>
      <point x="339" y="437" type="curve"/>
      <point x="162" y="437"/>
      <point x="35" y="353"/>
      <point x="35" y="199" type="curve"/>
      <point x="35" y="54"/>
      <point x="141" y="-26"/>
      <point x="289" y="-26" type="curve"/>
      <point x="379" y="-26"/>
      <point x="448" y="4"/>
      <point x="505" y="63" type="curve"/>
    </contour>
    <contour>
      <point x="224" y="685" type="curve"/>
      <point x="224" y="645"/>
      <point x="253" y="626"/>
      <point x="293" y="626" type="curve"/>
      <point x="333" y="626"/>
      <point x="360" y="647"/>
      <point x="360" y="685" type="curve"/>
      <point x="224" y="685"/>
      <point x="360" y="685"/>
      <point x="224" y="685" type="curve"/>
      <point x="224" y="727"/>
      <point x="253" y="744"/>
      <point x="293" y="744" type="curve"/>
      <point x="334" y="744"/>
      <point x="360" y="725"/>
      <point x="360" y="685" type="curve"/>
      <point x="224" y="685"/>
      <point x="360" y="685"/>
    </contour>
  </outline>
</glyph>
<glyph name="Atilde" format="1">
  <advance width="733"/>
  <unicode hex="00C3"/>
  <outline>
    <contour>
      <point x="536" y="299" type="curve"/>
      <point x="426" y="299"/>
      <point x="316" y="299"/>
      <point x="206" y="299" type="curve"/>
      <point x="156" y="203"/>
      <point x="206" y="299"/>
      <point x="156" y="203" type="curve"/>
      <point x="295" y="203"/>
      <point x="435" y="203"/>
      <point x="574" y="203" type="curve"/>
      <point x="536" y="299"/>
      <point x="574" y="203"/>
    </contour>
    <contour>
      <point x="721" y="0" type="curve"/>
      <point x="626" y="241"/>
      <point x="527" y="481"/>
      <point x="432" y="722" type="curve"/>
      <point x="322" y="722"/>
      <point x="432" y="722"/>
      <point x="322" y="722" type="curve"/>
      <point x="415" y="482"/>
      <point x="502" y="240"/>
      <point x="594" y="0" type="curve"/>
      <point x="721" y="0"/>
      <point x="594" y="0"/>
    </contour>
    <contour>
      <point x="129" y="0" type="curve"/>
      <point x="232" y="240"/>
      <point x="327" y="482"/>
      <point x="431" y="722" type="curve"/>
      <point x="321" y="722"/>
      <point x="431" y="722"/>
      <point x="321" y="722" type="curve"/>
      <point x="215" y="480"/>
      <point x="102" y="242"/>
      <point x="-3" y="0" type="curve"/>
      <point x="129" y="0"/>
      <point x="-3" y="0"/>
    </contour>
    <contour>
      <point x="522" y="961" type="curve"/>
      <point x="508" y="921"/>
      <point x="491" y="893"/>
      <point x="462" y="893" type="curve"/>
      <point x="429" y="893"/>
      <point x="410" y="903"/>
      <point x="386" y="924" type="curve"/>
      <point x="351" y="953"/>
      <point x="325" y="967"/>
      <point x="281" y="967" type="curve"/>
      <point x="205" y="967"/>
      <point x="163" y="912"/>
      <point x="136" y="835" type="curve"/>
      <point x="226" y="789"/>
      <point x="137" y="835"/>
      <point x="227" y="789" type="curve"/>
      <point x="244" y="836"/>
      <point x="263" y="860"/>
      <point x="294" y="860" type="curve"/>
      <point x="325" y="860"/>
      <point x="340" y="848"/>
      <point x="362" y="829" type="curve"/>
      <point x="401" y="797"/>
      <point x="427" y="784"/>
      <point x="475" y="784" type="curve"/>
      <point x="553" y="784"/>
      <point x="590" y="841"/>
      <point x="617" y="917" type="curve"/>
      <point x="522" y="961"/>
      <point x="617" y="917"/>
    </contour>
  </outline>
</glyph>
<glyph name="Adieresis" format="1">
  <advance width="733"/>
  <unicode hex="00C4"/>
  <outline>
    <contour>
      <point x="536" y="299" type="curve"/>
      <point x="426" y="299"/>
      <point x="316" y="299"/>
      <point x="206" y="299" type="curve"/>
      <point x="156" y="203"/>
      <point x="206" y="299"/>
      <point x="156" y="203" type="curve"/>
      <point x="295" y="203"/>
      <point x="435" y="203"/>
      <point x="574" y="203" type="curve"/>
      <point x="536" y="299"/>
      <point x="574" y="203"/>
    </contour>
    <contour>
      <point x="721" y="0" type="curve"/>
      <point x="626" y="241"/>
      <point x="527" y="481"/>
      <point x="432" y="722" type="curve"/>
      <point x="322" y="722"/>
      <point x="432" y="722"/>
      <point x="322" y="722" type="curve"/>
      <point x="415" y="482"/>
      <point x="502" y="240"/>
      <point x="594" y="0" type="curve"/>
      <point x="721" y="0"/>
      <point x="594" y="0"/>
    </contour>
    <contour>
      <point x="129" y="0" type="curve"/>
      <point x="232" y="240"/>
      <point x="327" y="482"/>
      <point x="431" y="722" type="curve"/>
      <point x="321" y="722"/>
      <point x="431" y="722"/>
      <point x="321" y="722" type="curve"/>
      <point x="215" y="480"/>
      <point x="102" y="242"/>
      <point x="-3" y="0" type="curve"/>
      <point x="129" y="0"/>
      <point x="-3" y="0"/>
    </contour>
    <contour>
      <point x="345" y="847" type="curve"/>
      <point x="345" y="887"/>
      <point x="315" y="907"/>
      <point x="275" y="907" type="curve"/>
      <point x="235" y="907"/>
      <point x="207" y="885"/>
      <point x="207" y="847" type="curve"/>
      <point x="342" y="847"/>
      <point x="211" y="847"/>
      <point x="345" y="847" type="curve"/>
      <point x="345" y="806"/>
      <point x="315" y="787"/>
      <point x="275" y="787" type="curve"/>
      <point x="234" y="787"/>
      <point x="207" y="807"/>
      <point x="207" y="847" type="curve"/>
      <point x="342" y="847"/>
      <point x="211" y="847"/>
    </contour>
    <contour>
      <point x="543" y="847" type="curve"/>
      <point x="543" y="887"/>
      <point x="513" y="907"/>
      <point x="473" y="907" type="curve"/>
      <point x="433" y="907"/>
      <point x="406" y="885"/>
      <point x="406" y="847" type="curve"/>
      <point x="540" y="847"/>
      <point x="409" y="847"/>
      <point x="543" y="847" type="curve"/>
      <point x="543" y="806"/>
      <point x="514" y="787"/>
      <point x="473" y="787" type="curve"/>
      <point x="432" y="787"/>
      <point x="406" y="807"/>
      <point x="406" y="847" type="curve"/>
      <point x="540" y="847"/>
      <point x="409" y="847"/>
    </contour>
  </outline>
</glyph>
<glyph name="Aring" format="1">
  <advance width="733"/>
  <unicode hex="00C5"/>
  <outline>
    <contour>
      <point x="536" y="299" type="curve"/>
      <point x="426" y="299"/>
      <point x="316" y="299"/>
      <point x="206" y="299" type="curve"/>
      <point x="156" y="203"/>
      <point x="206" y="299"/>
      <point x="156" y="203" type="curve"/>
      <point x="295" y="203"/>
      <point x="435" y="203"/>
      <point x="574" y="203" type="curve"/>
      <point x="536" y="299"/>
      <point x="574" y="203"/>
    </contour>
    <contour>
      <point x="721" y="0" type="curve"/>
      <point x="626" y="241"/>
      <point x="527" y="481"/>
      <point x="432" y="722" type="curve"/>
      <point x="322" y="722"/>
      <point x="432" y="722"/>
      <point x="322" y="722" type="curve"/>
      <point x="415" y="482"/>
      <point x="502" y="240"/>
      <point x="594" y="0" type="curve"/>
      <point x="721" y="0"/>
      <point x="594" y="0"/>
    </contour>
    <contour>
      <point x="129" y="0" type="curve"/>
      <point x="232" y="240"/>
      <point x="327" y="482"/>
      <point x="431" y="722" type="curve"/>
      <point x="321" y="722"/>
      <point x="431" y="722"/>
      <point x="321" y="722" type="curve"/>
      <point x="215" y="480"/>
      <point x="102" y="242"/>
      <point x="-3" y="0" type="curve"/>
      <point x="129" y="0"/>
      <point x="-3" y="0"/>
    </contour>
    <contour>
      <point x="212" y="929" type="curve"/>
      <point x="212" y="837"/>
      <point x="279" y="788"/>
      <point x="375" y="788" type="curve"/>
      <point x="473" y="788"/>
      <point x="542" y="836"/>
      <point x="542" y="929" type="curve"/>
      <point x="542" y="1023"/>
      <point x="472" y="1070"/>
      <point x="373" y="1070" type="curve"/>
      <point x="277" y="1070"/>
      <point x="212" y="1021"/>
      <point x="212" y="929" type="curve"/>
      <point x="315" y="929"/>
      <point x="208" y="929"/>
      <point x="311" y="929" type="curve"/>
      <point x="311" y="968"/>
      <point x="333" y="991"/>
      <point x="373" y="991" type="curve"/>
      <point x="415" y="991"/>
      <point x="440" y="971"/>
      <point x="440" y="929" type="curve"/>
      <point x="440" y="890"/>
      <point x="416" y="868"/>
      <point x="375" y="868" type="curve"/>
      <point x="335" y="868"/>
      <point x="311" y="890"/>
      <point x="311" y="929" type="curve"/>
      <point x="208" y="929"/>
      <point x="315" y="929"/>
    </contour>
  </outline>
</glyph>
<glyph name="AE" format="1">
  <advance width="990"/>
  <unicode hex="00C6"/>
  <outline>
    <contour>
      <point x="475" y="280" type="curve"/>
      <point x="365" y="280"/>
      <point x="311" y="280"/>
      <point x="201" y="280" type="curve"/>
      <point x="152" y="183"/>
      <point x="201" y="280"/>
      <point x="152" y="183" type="curve"/>
      <point x="291" y="183"/>
      <point x="374" y="183"/>
      <point x="514" y="183" type="curve"/>
      <point x="475" y="280"/>
      <point x="514" y="183"/>
    </contour>
    <contour>
      <point x="121" y="0" type="curve"/>
      <point x="568" y="722" type="line"/>
      <point x="458" y="722"/>
      <point x="568" y="722"/>
      <point x="458" y="722" type="curve"/>
      <point x="-12" y="0" type="line"/>
      <point x="120" y="0"/>
      <point x="-11" y="0"/>
    </contour>
    <contour>
      <point x="524" y="327" type="curve"/>
      <point x="637" y="327"/>
      <point x="751" y="327"/>
      <point x="865" y="327" type="curve"/>
      <point x="865" y="419"/>
      <point x="865" y="327"/>
      <point x="865" y="419" type="curve"/>
      <point x="751" y="419"/>
      <point x="637" y="419"/>
      <point x="524" y="419" type="curve"/>
      <point x="524" y="327"/>
      <point x="524" y="419"/>
    </contour>
    <contour>
      <point x="507" y="631" type="curve"/>
      <point x="649" y="631"/>
      <point x="790" y="631"/>
      <point x="931" y="631" type="curve"/>
      <point x="931" y="722"/>
      <point x="931" y="631"/>
      <point x="931" y="722" type="curve"/>
      <point x="790" y="722"/>
      <point x="649" y="722"/>
      <point x="507" y="722" type="curve"/>
      <point x="507" y="631"/>
      <point x="507" y="722"/>
    </contour>
    <contour>
      <point x="579" y="0" type="curve"/>
      <point x="579" y="722" type="line"/>
      <point x="458" y="722"/>
      <point x="579" y="722"/>
      <point x="458" y="722" type="curve"/>
      <point x="458" y="481"/>
      <point x="458" y="241"/>
      <point x="458" y="0" type="curve"/>
      <point x="579" y="0"/>
      <point x="458" y="0"/>
    </contour>
    <contour>
      <point x="507" y="0" type="curve"/>
      <point x="660" y="0"/>
      <point x="813" y="0"/>
      <point x="966" y="0" type="curve"/>
      <point x="966" y="91"/>
      <point x="966" y="0"/>
      <point x="966" y="91" type="curve"/>
      <point x="813" y="91"/>
      <point x="660" y="91"/>
      <point x="507" y="91" type="curve"/>
      <point x="507" y="0"/>
      <point x="507" y="91"/>
    </contour>
  </outline>
</glyph>
<glyph name="Ccedilla" format="1">
  <advance width="712"/>
  <unicode hex="00C7"/>
  <outline>
    <contour>
      <point x="690" y="654" type="curve"/>
      <point x="612" y="696"/>
      <point x="525" y="727"/>
      <point x="428" y="727" type="curve"/>
      <point x="188" y="727"/>
      <point x="45" y="587"/>
      <point x="45" y="344" type="curve"/>
      <point x="45" y="121"/>
      <point x="180" y="-5"/>
      <point x="404" y="-5" type="curve"/>
      <point x="531" y="-5"/>
      <point x="611" y="26"/>
      <point x="699" y="93" type="curve"/>
      <point x="642" y="168"/>
      <point x="698" y="93"/>
      <point x="641" y="168" type="curve"/>
      <point x="563" y="115"/>
      <point x="501" y="92"/>
      <point x="409" y="92" type="curve"/>
      <point x="251" y="92"/>
      <point x="166" y="188"/>
      <point x="166" y="349" type="curve"/>
      <point x="166" y="523"/>
      <point x="255" y="632"/>
      <point x="423" y="632" type="curve"/>
      <point x="497" y="632"/>
      <point x="564" y="614"/>
      <point x="634" y="578" type="curve"/>
      <point x="690" y="654"/>
      <point x="634" y="578"/>
    </contour>
    <contour>
      <point x="356" y="67" type="curve"/>
      <point x="342" y="45"/>
      <point x="291" y="-39"/>
      <point x="277" y="-62" type="curve"/>
      <point x="359" y="-135"/>
      <point x="277" y="-62"/>
      <point x="359" y="-135" type="curve"/>
      <point x="376" y="-108"/>
      <point x="433" y="-23"/>
      <point x="449" y="4" type="curve"/>
      <point x="356" y="67"/>
      <point x="449" y="4"/>
    </contour>
    <contour>
      <point x="359" y="-135" type="curve"/>
      <point x="366" y="-130"/>
      <point x="372" y="-127"/>
      <point x="381" y="-127" type="curve"/>
      <point x="396" y="-127"/>
      <point x="405" y="-134"/>
      <point x="405" y="-149" type="curve"/>
      <point x="405" y="-167"/>
      <point x="388" y="-174"/>
      <point x="367" y="-174" type="curve"/>
      <point x="343" y="-174"/>
      <point x="324" y="-168"/>
      <point x="297" y="-156" type="curve"/>
      <point x="258" y="-224"/>
      <point x="297" y="-156"/>
      <point x="258" y="-224" type="curve"/>
      <point x="293" y="-242"/>
      <point x="322" y="-251"/>
      <point x="362" y="-251" type="curve"/>
      <point x="442" y="-251"/>
      <point x="502" y="-221"/>
      <point x="502" y="-146" type="curve"/>
      <point x="502" y="-77"/>
      <point x="452" y="-39"/>
      <point x="381" y="-39" type="curve"/>
      <point x="341" y="-39"/>
      <point x="313" y="-46"/>
      <point x="277" y="-62" type="curve"/>
      <point x="359" y="-135"/>
      <point x="277" y="-62"/>
    </contour>
  </outline>
</glyph>
<glyph name="Egrave" format="1">
  <advance width="618"/>
  <unicode hex="00C8"/>
  <outline>
    <contour>
      <point x="152" y="327" type="curve"/>
      <point x="265" y="327"/>
      <point x="379" y="327"/>
      <point x="493" y="327" type="curve"/>
      <point x="493" y="419"/>
      <point x="493" y="327"/>
      <point x="493" y="419" type="curve"/>
      <point x="379" y="419"/>
      <point x="265" y="419"/>
      <point x="152" y="419" type="curve"/>
      <point x="152" y="327"/>
      <point x="152" y="419"/>
    </contour>
    <contour>
      <point x="136" y="631" type="curve"/>
      <point x="277" y="631"/>
      <point x="418" y="631"/>
      <point x="559" y="631" type="curve"/>
      <point x="559" y="722"/>
      <point x="559" y="631"/>
      <point x="559" y="722" type="curve"/>
      <point x="418" y="722"/>
      <point x="277" y="722"/>
      <point x="136" y="722" type="curve"/>
      <point x="136" y="631"/>
      <point x="136" y="722"/>
    </contour>
    <contour>
      <point x="207" y="0" type="curve"/>
      <point x="207" y="722" type="line"/>
      <point x="86" y="722"/>
      <point x="207" y="722"/>
      <point x="86" y="722" type="curve"/>
      <point x="86" y="481"/>
      <point x="86" y="241"/>
      <point x="86" y="0" type="curve"/>
      <point x="207" y="0"/>
      <point x="86" y="0"/>
    </contour>
    <contour>
      <point x="136" y="0" type="curve"/>
      <point x="289" y="0"/>
      <point x="441" y="0"/>
      <point x="594" y="0" type="curve"/>
      <point x="594" y="91"/>
      <point x="594" y="0"/>
      <point x="594" y="91" type="curve"/>
      <point x="441" y="91"/>
      <point x="289" y="91"/>
      <point x="136" y="91" type="curve"/>
      <point x="136" y="0"/>
      <point x="136" y="91"/>
    </contour>
    <contour>
      <point x="364" y="791" type="line"/>
      <point x="243" y="957" type="line"/>
      <point x="88" y="957" type="line"/>
      <point x="244" y="791" type="line"/>
    </contour>
  </outline>
</glyph>
<glyph name="Eacute" format="1">
  <advance width="611"/>
  <unicode hex="00C9"/>
  <outline>
    <contour>
      <point x="145" y="327" type="curve"/>
      <point x="259" y="327"/>
      <point x="373" y="327"/>
      <point x="487" y="327" type="curve"/>
      <point x="487" y="419"/>
      <point x="487" y="327"/>
      <point x="487" y="419" type="curve"/>
      <point x="373" y="419"/>
      <point x="259" y="419"/>
      <point x="145" y="419" type="curve"/>
      <point x="145" y="327"/>
      <point x="145" y="419"/>
    </contour>
    <contour>
      <point x="129" y="631" type="curve"/>
      <point x="270" y="631"/>
      <point x="411" y="631"/>
      <point x="553" y="631" type="curve"/>
      <point x="553" y="722"/>
      <point x="553" y="631"/>
      <point x="553" y="722" type="curve"/>
      <point x="411" y="722"/>
      <point x="270" y="722"/>
      <point x="129" y="722" type="curve"/>
      <point x="129" y="631"/>
      <point x="129" y="722"/>
    </contour>
    <contour>
      <point x="201" y="0" type="curve"/>
      <point x="201" y="722" type="line"/>
      <point x="80" y="722"/>
      <point x="201" y="722"/>
      <point x="80" y="722" type="curve"/>
      <point x="80" y="481"/>
      <point x="80" y="241"/>
      <point x="80" y="0" type="curve"/>
      <point x="201" y="0"/>
      <point x="80" y="0"/>
    </contour>
    <contour>
      <point x="129" y="0" type="curve"/>
      <point x="282" y="0"/>
      <point x="435" y="0"/>
      <point x="588" y="0" type="curve"/>
      <point x="588" y="91"/>
      <point x="588" y="0"/>
      <point x="588" y="91" type="curve"/>
      <point x="435" y="91"/>
      <point x="282" y="91"/>
      <point x="129" y="91" type="curve"/>
      <point x="129" y="0"/>
      <point x="129" y="91"/>
    </contour>
    <contour>
      <point x="343" y="790" type="line"/>
      <point x="499" y="956" type="line"/>
      <point x="344" y="956" type="line"/>
      <point x="225" y="790" type="line"/>
    </contour>
  </outline>
</glyph>
<glyph name="Ecircumflex" format="1">
  <advance width="585"/>
  <unicode hex="00CA"/>
  <outline>
    <contour>
      <point x="129" y="327" type="curve"/>
      <point x="243" y="327"/>
      <point x="357" y="327"/>
      <point x="471" y="327" type="curve"/>
      <point x="471" y="419"/>
      <point x="471" y="327"/>
      <point x="471" y="419" type="curve"/>
      <point x="357" y="419"/>
      <point x="243" y="419"/>
      <point x="129" y="419" type="curve"/>
      <point x="129" y="327"/>
      <point x="129" y="419"/>
    </contour>
    <contour>
      <point x="113" y="631" type="curve"/>
      <point x="255" y="631"/>
      <point x="396" y="631"/>
      <point x="537" y="631" type="curve"/>
      <point x="537" y="722"/>
      <point x="537" y="631"/>
      <point x="537" y="722" type="curve"/>
      <point x="396" y="722"/>
      <point x="255" y="722"/>
      <point x="113" y="722" type="curve"/>
      <point x="113" y="631"/>
      <point x="113" y="722"/>
    </contour>
    <contour>
      <point x="185" y="0" type="curve"/>
      <point x="185" y="722" type="line"/>
      <point x="64" y="722"/>
      <point x="185" y="722"/>
      <point x="64" y="722" type="curve"/>
      <point x="64" y="481"/>
      <point x="64" y="241"/>
      <point x="64" y="0" type="curve"/>
      <point x="185" y="0"/>
      <point x="64" y="0"/>
    </contour>
    <contour>
      <point x="113" y="0" type="curve"/>
      <point x="266" y="0"/>
      <point x="419" y="0"/>
      <point x="572" y="0" type="curve"/>
      <point x="572" y="91"/>
      <point x="572" y="0"/>
      <point x="572" y="91" type="curve"/>
      <point x="419" y="91"/>
      <point x="266" y="91"/>
      <point x="113" y="91" type="curve"/>
      <point x="113" y="0"/>
      <point x="113" y="91"/>
    </contour>
    <contour>
      <point x="176" y="791" type="line"/>
      <point x="332" y="957" type="line"/>
      <point x="177" y="957" type="line"/>
      <point x="58" y="791" type="line"/>
    </contour>
    <contour>
      <point x="494" y="791" type="line"/>
      <point x="373" y="957" type="line"/>
      <point x="219" y="957" type="line"/>
      <point x="375" y="791" type="line"/>
    </contour>
  </outline>
</glyph>
<glyph name="Edieresis" format="1">
  <advance width="609"/>
  <unicode hex="00CB"/>
  <outline>
    <contour>
      <point x="144" y="327" type="curve"/>
      <point x="257" y="327"/>
      <point x="371" y="327"/>
      <point x="485" y="327" type="curve"/>
      <point x="485" y="419"/>
      <point x="485" y="327"/>
      <point x="485" y="419" type="curve"/>
      <point x="371" y="419"/>
      <point x="257" y="419"/>
      <point x="144" y="419" type="curve"/>
      <point x="144" y="327"/>
      <point x="144" y="419"/>
    </contour>
    <contour>
      <point x="127" y="631" type="curve"/>
      <point x="269" y="631"/>
      <point x="410" y="631"/>
      <point x="551" y="631" type="curve"/>
      <point x="551" y="722"/>
      <point x="551" y="631"/>
      <point x="551" y="722" type="curve"/>
      <point x="410" y="722"/>
      <point x="269" y="722"/>
      <point x="127" y="722" type="curve"/>
      <point x="127" y="631"/>
      <point x="127" y="722"/>
    </contour>
    <contour>
      <point x="199" y="0" type="curve"/>
      <point x="199" y="722" type="line"/>
      <point x="78" y="722"/>
      <point x="199" y="722"/>
      <point x="78" y="722" type="curve"/>
      <point x="78" y="481"/>
      <point x="78" y="241"/>
      <point x="78" y="0" type="curve"/>
      <point x="199" y="0"/>
      <point x="78" y="0"/>
    </contour>
    <contour>
      <point x="127" y="0" type="curve"/>
      <point x="280" y="0"/>
      <point x="433" y="0"/>
      <point x="586" y="0" type="curve"/>
      <point x="586" y="91"/>
      <point x="586" y="0"/>
      <point x="586" y="91" type="curve"/>
      <point x="433" y="91"/>
      <point x="280" y="91"/>
      <point x="127" y="91" type="curve"/>
      <point x="127" y="0"/>
      <point x="127" y="91"/>
    </contour>
    <contour>
      <point x="260" y="847" type="curve"/>
      <point x="260" y="887"/>
      <point x="230" y="907"/>
      <point x="190" y="907" type="curve"/>
      <point x="150" y="907"/>
      <point x="123" y="885"/>
      <point x="123" y="847" type="curve"/>
      <point x="257" y="847"/>
      <point x="126" y="847"/>
      <point x="260" y="847" type="curve"/>
      <point x="260" y="806"/>
      <point x="231" y="787"/>
      <point x="190" y="787" type="curve"/>
      <point x="149" y="787"/>
      <point x="123" y="807"/>
      <point x="123" y="847" type="curve"/>
      <point x="257" y="847"/>
      <point x="126" y="847"/>
    </contour>
    <contour>
      <point x="458" y="847" type="curve"/>
      <point x="458" y="887"/>
      <point x="428" y="907"/>
      <point x="388" y="907" type="curve"/>
      <point x="348" y="907"/>
      <point x="321" y="885"/>
      <point x="321" y="847" type="curve"/>
      <point x="455" y="847"/>
      <point x="324" y="847"/>
      <point x="458" y="847" type="curve"/>
      <point x="458" y="806"/>
      <point x="429" y="787"/>
      <point x="388" y="787" type="curve"/>
      <point x="347" y="787"/>
      <point x="321" y="807"/>
      <point x="321" y="847" type="curve"/>
      <point x="455" y="847"/>
      <point x="324" y="847"/>
    </contour>
  </outline>
</glyph>
<glyph name="Igrave" format="1">
  <advance width="299"/>
  <unicode hex="00CC"/>
  <outline>
    <contour>
      <point x="213" y="0" type="curve"/>
      <point x="213" y="241"/>
      <point x="213" y="481"/>
      <point x="213" y="722" type="curve"/>
      <point x="92" y="722"/>
      <point x="213" y="722"/>
      <point x="92" y="722" type="curve"/>
      <point x="92" y="481"/>
      <point x="92" y="241"/>
      <point x="92" y="0" type="curve"/>
      <point x="213" y="0"/>
      <point x="92" y="0"/>
    </contour>
    <contour>
      <point x="219" y="791" type="line"/>
      <point x="98" y="957" type="line"/>
      <point x="-56" y="957" type="line"/>
      <point x="100" y="791" type="line"/>
    </contour>
  </outline>
</glyph>
<glyph name="Iacute" format="1">
  <advance width="299"/>
  <unicode hex="00CD"/>
  <outline>
    <contour>
      <point x="207" y="0" type="curve"/>
      <point x="207" y="241"/>
      <point x="207" y="481"/>
      <point x="207" y="722" type="curve"/>
      <point x="86" y="722"/>
      <point x="207" y="722"/>
      <point x="86" y="722" type="curve"/>
      <point x="86" y="481"/>
      <point x="86" y="241"/>
      <point x="86" y="0" type="curve"/>
      <point x="207" y="0"/>
      <point x="86" y="0"/>
    </contour>
    <contour>
      <point x="199" y="790" type="line"/>
      <point x="355" y="956" type="line"/>
      <point x="200" y="956" type="line"/>
      <point x="80" y="790" type="line"/>
    </contour>
  </outline>
</glyph>
<glyph name="Icircumflex" format="1">
  <advance width="324"/>
  <unicode hex="00CE"/>
  <outline>
    <contour>
      <point x="226" y="0" type="curve"/>
      <point x="226" y="241"/>
      <point x="226" y="481"/>
      <point x="226" y="722" type="curve"/>
      <point x="105" y="722"/>
      <point x="226" y="722"/>
      <point x="105" y="722" type="curve"/>
      <point x="105" y="481"/>
      <point x="105" y="241"/>
      <point x="105" y="0" type="curve"/>
      <point x="226" y="0"/>
      <point x="105" y="0"/>
    </contour>
    <contour>
      <point x="67" y="791" type="line"/>
      <point x="223" y="957" type="line"/>
      <point x="68" y="957" type="line"/>
      <point x="-52" y="791" type="line"/>
    </contour>
    <contour>
      <point x="385" y="791" type="line"/>
      <point x="264" y="957" type="line"/>
      <point x="109" y="957" type="line"/>
      <point x="265" y="791" type="line"/>
    </contour>
  </outline>
</glyph>
<glyph name="Idieresis" format="1">
  <advance width="300"/>
  <unicode hex="00CF"/>
  <outline>
    <contour>
      <point x="213" y="0" type="curve"/>
      <point x="213" y="241"/>
      <point x="213" y="481"/>
      <point x="213" y="722" type="curve"/>
      <point x="92" y="722"/>
      <point x="213" y="722"/>
      <point x="92" y="722" type="curve"/>
      <point x="92" y="481"/>
      <point x="92" y="241"/>
      <point x="92" y="0" type="curve"/>
      <point x="213" y="0"/>
      <point x="92" y="0"/>
    </contour>
    <contour>
      <point x="124" y="847" type="curve"/>
      <point x="124" y="887"/>
      <point x="94" y="907"/>
      <point x="54" y="907" type="curve"/>
      <point x="13" y="907"/>
      <point x="-14" y="885"/>
      <point x="-14" y="847" type="curve"/>
      <point x="120" y="847"/>
      <point x="-11" y="847"/>
      <point x="124" y="847" type="curve"/>
      <point x="124" y="806"/>
      <point x="94" y="787"/>
      <point x="53" y="787" type="curve"/>
      <point x="13" y="787"/>
      <point x="-14" y="807"/>
      <point x="-14" y="847" type="curve"/>
      <point x="120" y="847"/>
      <point x="-11" y="847"/>
    </contour>
    <contour>
      <point x="322" y="847" type="curve"/>
      <point x="322" y="887"/>
      <point x="292" y="907"/>
      <point x="252" y="907" type="curve"/>
      <point x="212" y="907"/>
      <point x="185" y="885"/>
      <point x="185" y="847" type="curve"/>
      <point x="319" y="847"/>
      <point x="188" y="847"/>
      <point x="322" y="847" type="curve"/>
      <point x="322" y="806"/>
      <point x="292" y="787"/>
      <point x="252" y="787" type="curve"/>
      <point x="211" y="787"/>
      <point x="185" y="807"/>
      <point x="185" y="847" type="curve"/>
      <point x="319" y="847"/>
      <point x="188" y="847"/>
    </contour>
  </outline>
</glyph>
<glyph name="Ntilde" format="1">
  <advance width="853"/>
  <unicode hex="00D1"/>
  <outline>
    <contour>
      <point x="772" y="0" type="curve"/>
      <point x="587" y="240"/>
      <point x="404" y="482"/>
      <point x="219" y="722" type="curve"/>
      <point x="80" y="722"/>
      <point x="218" y="722"/>
      <point x="80" y="722" type="curve"/>
      <point x="264" y="482"/>
      <point x="448" y="240"/>
      <point x="633" y="0" type="curve"/>
      <point x="772" y="0"/>
      <point x="633" y="0"/>
    </contour>
    <contour>
      <point x="653" y="722" type="curve"/>
      <point x="653" y="481"/>
      <point x="653" y="241"/>
      <point x="653" y="0" type="curve"/>
      <point x="774" y="0"/>
      <point x="653" y="0"/>
      <point x="774" y="0" type="curve"/>
      <point x="774" y="241"/>
      <point x="774" y="481"/>
      <point x="774" y="722" type="curve"/>
      <point x="653" y="722"/>
      <point x="774" y="722"/>
    </contour>
    <contour>
      <point x="201" y="0" type="curve"/>
      <point x="201" y="241"/>
      <point x="201" y="481"/>
      <point x="201" y="722" type="curve"/>
      <point x="80" y="722"/>
      <point x="201" y="722"/>
      <point x="80" y="722" type="curve"/>
      <point x="80" y="481"/>
      <point x="80" y="241"/>
      <point x="80" y="0" type="curve"/>
      <point x="201" y="0"/>
      <point x="80" y="0"/>
    </contour>
    <contour>
      <point x="575" y="961" type="curve"/>
      <point x="561" y="921"/>
      <point x="544" y="893"/>
      <point x="515" y="893" type="curve"/>
      <point x="482" y="893"/>
      <point x="463" y="903"/>
      <point x="439" y="924" type="curve"/>
      <point x="404" y="953"/>
      <point x="378" y="967"/>
      <point x="334" y="967" type="curve"/>
      <point x="258" y="967"/>
      <point x="216" y="912"/>
      <point x="189" y="835" type="curve"/>
      <point x="279" y="789"/>
      <point x="190" y="835"/>
      <point x="280" y="789" type="curve"/>
      <point x="297" y="836"/>
      <point x="316" y="860"/>
      <point x="347" y="860" type="curve"/>
      <point x="378" y="860"/>
      <point x="393" y="848"/>
      <point x="415" y="829" type="curve"/>
      <point x="454" y="797"/>
      <point x="480" y="784"/>
      <point x="528" y="784" type="curve"/>
      <point x="606" y="784"/>
      <point x="643" y="841"/>
      <point x="670" y="917" type="curve"/>
      <point x="575" y="961"/>
      <point x="670" y="917"/>
    </contour>
  </outline>
</glyph>
<glyph name="Ograve" format="1">
  <advance width="805"/>
  <unicode hex="00D2"/>
  <outline>
    <contour>
      <point x="166" y="360" type="curve" name="FullCurve"/>
      <point x="166" y="520"/>
      <point x="241" y="631"/>
      <point x="398" y="631" type="curve" name="FullCurve"/>
      <point x="555" y="631"/>
      <point x="639" y="524"/>
      <point x="639" y="363" type="curve" name="FullCurve"/>
      <point x="639" y="203"/>
      <point x="562" y="92"/>
      <point x="405" y="92" type="curve" name="FullCurve"/>
      <point x="247" y="92"/>
      <point x="166" y="199"/>
      <point x="166" y="360" type="curve" name="FullCurve"/>
      <point x="45" y="360"/>
      <point x="166" y="360"/>
      <point x="45" y="360" type="curve" name="FullCurve"/>
      <point x="45" y="136"/>
      <point x="177" y="-5"/>
      <point x="400" y="-5" type="curve" name="FullCurve"/>
      <point x="626" y="-5"/>
      <point x="760" y="137"/>
      <point x="760" y="363" type="curve" name="FullCurve"/>
      <point x="760" y="585"/>
      <point x="629" y="727"/>
      <point x="406" y="727" type="curve" name="FullCurve"/>
      <point x="180" y="727"/>
      <point x="45" y="585"/>
      <point x="45" y="360" type="curve" name="FullCurve"/>
      <point x="166" y="360"/>
      <point x="45" y="360"/>
    </contour>
    <contour>
      <point x="471" y="791" type="line"/>
      <point x="350" y="957" type="line"/>
      <point x="195" y="957" type="line"/>
      <point x="351" y="791" type="line"/>
    </contour>
  </outline>
</glyph>
<glyph name="Otilde" format="1">
  <advance width="805"/>
  <unicode hex="00D5"/>
  <outline>
    <contour>
      <point x="166" y="360" type="curve" name="FullCurve"/>
      <point x="166" y="520"/>
      <point x="241" y="631"/>
      <point x="398" y="631" type="curve" name="FullCurve"/>
      <point x="555" y="631"/>
      <point x="639" y="524"/>
      <point x="639" y="363" type="curve" name="FullCurve"/>
      <point x="639" y="203"/>
      <point x="562" y="92"/>
      <point x="405" y="92" type="curve" name="FullCurve"/>
      <point x="247" y="92"/>
      <point x="166" y="199"/>
      <point x="166" y="360" type="curve" name="FullCurve"/>
      <point x="45" y="360"/>
      <point x="166" y="360"/>
      <point x="45" y="360" type="curve" name="FullCurve"/>
      <point x="45" y="136"/>
      <point x="177" y="-5"/>
      <point x="400" y="-5" type="curve" name="FullCurve"/>
      <point x="626" y="-5"/>
      <point x="760" y="137"/>
      <point x="760" y="363" type="curve" name="FullCurve"/>
      <point x="760" y="585"/>
      <point x="629" y="727"/>
      <point x="406" y="727" type="curve" name="FullCurve"/>
      <point x="180" y="727"/>
      <point x="45" y="585"/>
      <point x="45" y="360" type="curve" name="FullCurve"/>
      <point x="166" y="360"/>
      <point x="45" y="360"/>
    </contour>
    <contour>
      <point x="552" y="961" type="curve"/>
      <point x="538" y="921"/>
      <point x="521" y="893"/>
      <point x="492" y="893" type="curve"/>
      <point x="459" y="893"/>
      <point x="440" y="903"/>
      <point x="416" y="924" type="curve"/>
      <point x="381" y="953"/>
      <point x="355" y="967"/>
      <point x="312" y="967" type="curve"/>
      <point x="235" y="967"/>
      <point x="193" y="912"/>
      <point x="166" y="835" type="curve"/>
      <point x="256" y="789"/>
      <point x="167" y="835"/>
      <point x="257" y="789" type="curve"/>
      <point x="274" y="836"/>
      <point x="293" y="860"/>
      <point x="324" y="860" type="curve"/>
      <point x="355" y="860"/>
      <point x="370" y="848"/>
      <point x="392" y="829" type="curve"/>
      <point x="431" y="797"/>
      <point x="457" y="784"/>
      <point x="505" y="784" type="curve"/>
      <point x="583" y="784"/>
      <point x="620" y="841"/>
      <point x="647" y="917" type="curve"/>
      <point x="552" y="961"/>
      <point x="647" y="917"/>
    </contour>
  </outline>
</glyph>
<glyph name="Odieresis" format="1">
  <advance width="805"/>
  <unicode hex="00D6"/>
  <outline>
    <contour>
      <point x="166" y="360" type="curve" name="FullCurve"/>
      <point x="166" y="520"/>
      <point x="241" y="631"/>
      <point x="398" y="631" type="curve" name="FullCurve"/>
      <point x="555" y="631"/>
      <point x="639" y="524"/>
      <point x="639" y="363" type="curve" name="FullCurve"/>
      <point x="639" y="203"/>
      <point x="562" y="92"/>
      <point x="405" y="92" type="curve" name="FullCurve"/>
      <point x="247" y="92"/>
      <point x="166" y="199"/>
      <point x="166" y="360" type="curve" name="FullCurve"/>
      <point x="45" y="360"/>
      <point x="166" y="360"/>
      <point x="45" y="360" type="curve" name="FullCurve"/>
      <point x="45" y="136"/>
      <point x="177" y="-5"/>
      <point x="400" y="-5" type="curve" name="FullCurve"/>
      <point x="626" y="-5"/>
      <point x="760" y="137"/>
      <point x="760" y="363" type="curve" name="FullCurve"/>
      <point x="760" y="585"/>
      <point x="629" y="727"/>
      <point x="406" y="727" type="curve" name="FullCurve"/>
      <point x="180" y="727"/>
      <point x="45" y="585"/>
      <point x="45" y="360" type="curve" name="FullCurve"/>
      <point x="166" y="360"/>
      <point x="45" y="360"/>
    </contour>
    <contour>
      <point x="375" y="847" type="curve"/>
      <point x="375" y="887"/>
      <point x="345" y="907"/>
      <point x="305" y="907" type="curve"/>
      <point x="265" y="907"/>
      <point x="238" y="885"/>
      <point x="238" y="847" type="curve"/>
      <point x="372" y="847"/>
      <point x="241" y="847"/>
      <point x="375" y="847" type="curve"/>
      <point x="375" y="806"/>
      <point x="345" y="787"/>
      <point x="305" y="787" type="curve"/>
      <point x="264" y="787"/>
      <point x="238" y="807"/>
      <point x="238" y="847" type="curve"/>
      <point x="372" y="847"/>
      <point x="241" y="847"/>
    </contour>
    <contour>
      <point x="573" y="847" type="curve"/>
      <point x="573" y="887"/>
      <point x="543" y="907"/>
      <point x="503" y="907" type="curve"/>
      <point x="463" y="907"/>
      <point x="436" y="885"/>
      <point x="436" y="847" type="curve"/>
      <point x="570" y="847"/>
      <point x="439" y="847"/>
      <point x="573" y="847" type="curve"/>
      <point x="573" y="806"/>
      <point x="544" y="787"/>
      <point x="503" y="787" type="curve"/>
      <point x="462" y="787"/>
      <point x="436" y="807"/>
      <point x="436" y="847" type="curve"/>
      <point x="570" y="847"/>
      <point x="439" y="847"/>
    </contour>
  </outline>
</glyph>
<glyph name="multiply" format="1">
  <advance width="588"/>
  <unicode hex="00D7"/>
  <outline>
    <contour>
      <point x="115" y="59" type="line"/>
      <point x="542" y="494" type="line"/>
      <point x="473" y="563" type="line"/>
      <point x="45" y="128" type="line"/>
    </contour>
    <contour>
      <point x="543" y="127" type="line"/>
      <point x="115" y="562" type="line"/>
      <point x="45" y="493" type="line"/>
      <point x="473" y="58" type="line"/>
    </contour>
  </outline>
</glyph>
